G75*
%MOIN*%
%OFA0B0*%
%FSLAX25Y25*%
%IPPOS*%
%LPD*%
%AMOC8*
5,1,8,0,0,1.08239X$1,22.5*
%
%ADD10C,0.00000*%
%ADD11C,0.03000*%
%ADD12C,0.00800*%
%ADD13C,0.00500*%
%ADD14C,0.01200*%
%ADD15C,0.02300*%
%ADD16C,0.00060*%
%ADD17C,0.00600*%
D10*
X0001500Y0002000D02*
X0001500Y0335000D01*
X1301000Y0335000D01*
X1301000Y0002000D01*
X0001500Y0002000D01*
X0130749Y0117346D02*
X0130751Y0117504D01*
X0130757Y0117662D01*
X0130767Y0117820D01*
X0130781Y0117978D01*
X0130799Y0118135D01*
X0130820Y0118292D01*
X0130846Y0118448D01*
X0130876Y0118604D01*
X0130909Y0118759D01*
X0130947Y0118912D01*
X0130988Y0119065D01*
X0131033Y0119217D01*
X0131082Y0119368D01*
X0131135Y0119517D01*
X0131191Y0119665D01*
X0131251Y0119811D01*
X0131315Y0119956D01*
X0131383Y0120099D01*
X0131454Y0120241D01*
X0131528Y0120381D01*
X0131606Y0120518D01*
X0131688Y0120654D01*
X0131772Y0120788D01*
X0131861Y0120919D01*
X0131952Y0121048D01*
X0132047Y0121175D01*
X0132144Y0121300D01*
X0132245Y0121422D01*
X0132349Y0121541D01*
X0132456Y0121658D01*
X0132566Y0121772D01*
X0132679Y0121883D01*
X0132794Y0121992D01*
X0132912Y0122097D01*
X0133033Y0122199D01*
X0133156Y0122299D01*
X0133282Y0122395D01*
X0133410Y0122488D01*
X0133540Y0122578D01*
X0133673Y0122664D01*
X0133808Y0122748D01*
X0133944Y0122827D01*
X0134083Y0122904D01*
X0134224Y0122976D01*
X0134366Y0123046D01*
X0134510Y0123111D01*
X0134656Y0123173D01*
X0134803Y0123231D01*
X0134952Y0123286D01*
X0135102Y0123337D01*
X0135253Y0123384D01*
X0135405Y0123427D01*
X0135558Y0123466D01*
X0135713Y0123502D01*
X0135868Y0123533D01*
X0136024Y0123561D01*
X0136180Y0123585D01*
X0136337Y0123605D01*
X0136495Y0123621D01*
X0136652Y0123633D01*
X0136811Y0123641D01*
X0136969Y0123645D01*
X0137127Y0123645D01*
X0137285Y0123641D01*
X0137444Y0123633D01*
X0137601Y0123621D01*
X0137759Y0123605D01*
X0137916Y0123585D01*
X0138072Y0123561D01*
X0138228Y0123533D01*
X0138383Y0123502D01*
X0138538Y0123466D01*
X0138691Y0123427D01*
X0138843Y0123384D01*
X0138994Y0123337D01*
X0139144Y0123286D01*
X0139293Y0123231D01*
X0139440Y0123173D01*
X0139586Y0123111D01*
X0139730Y0123046D01*
X0139872Y0122976D01*
X0140013Y0122904D01*
X0140152Y0122827D01*
X0140288Y0122748D01*
X0140423Y0122664D01*
X0140556Y0122578D01*
X0140686Y0122488D01*
X0140814Y0122395D01*
X0140940Y0122299D01*
X0141063Y0122199D01*
X0141184Y0122097D01*
X0141302Y0121992D01*
X0141417Y0121883D01*
X0141530Y0121772D01*
X0141640Y0121658D01*
X0141747Y0121541D01*
X0141851Y0121422D01*
X0141952Y0121300D01*
X0142049Y0121175D01*
X0142144Y0121048D01*
X0142235Y0120919D01*
X0142324Y0120788D01*
X0142408Y0120654D01*
X0142490Y0120518D01*
X0142568Y0120381D01*
X0142642Y0120241D01*
X0142713Y0120099D01*
X0142781Y0119956D01*
X0142845Y0119811D01*
X0142905Y0119665D01*
X0142961Y0119517D01*
X0143014Y0119368D01*
X0143063Y0119217D01*
X0143108Y0119065D01*
X0143149Y0118912D01*
X0143187Y0118759D01*
X0143220Y0118604D01*
X0143250Y0118448D01*
X0143276Y0118292D01*
X0143297Y0118135D01*
X0143315Y0117978D01*
X0143329Y0117820D01*
X0143339Y0117662D01*
X0143345Y0117504D01*
X0143347Y0117346D01*
X0143345Y0117188D01*
X0143339Y0117030D01*
X0143329Y0116872D01*
X0143315Y0116714D01*
X0143297Y0116557D01*
X0143276Y0116400D01*
X0143250Y0116244D01*
X0143220Y0116088D01*
X0143187Y0115933D01*
X0143149Y0115780D01*
X0143108Y0115627D01*
X0143063Y0115475D01*
X0143014Y0115324D01*
X0142961Y0115175D01*
X0142905Y0115027D01*
X0142845Y0114881D01*
X0142781Y0114736D01*
X0142713Y0114593D01*
X0142642Y0114451D01*
X0142568Y0114311D01*
X0142490Y0114174D01*
X0142408Y0114038D01*
X0142324Y0113904D01*
X0142235Y0113773D01*
X0142144Y0113644D01*
X0142049Y0113517D01*
X0141952Y0113392D01*
X0141851Y0113270D01*
X0141747Y0113151D01*
X0141640Y0113034D01*
X0141530Y0112920D01*
X0141417Y0112809D01*
X0141302Y0112700D01*
X0141184Y0112595D01*
X0141063Y0112493D01*
X0140940Y0112393D01*
X0140814Y0112297D01*
X0140686Y0112204D01*
X0140556Y0112114D01*
X0140423Y0112028D01*
X0140288Y0111944D01*
X0140152Y0111865D01*
X0140013Y0111788D01*
X0139872Y0111716D01*
X0139730Y0111646D01*
X0139586Y0111581D01*
X0139440Y0111519D01*
X0139293Y0111461D01*
X0139144Y0111406D01*
X0138994Y0111355D01*
X0138843Y0111308D01*
X0138691Y0111265D01*
X0138538Y0111226D01*
X0138383Y0111190D01*
X0138228Y0111159D01*
X0138072Y0111131D01*
X0137916Y0111107D01*
X0137759Y0111087D01*
X0137601Y0111071D01*
X0137444Y0111059D01*
X0137285Y0111051D01*
X0137127Y0111047D01*
X0136969Y0111047D01*
X0136811Y0111051D01*
X0136652Y0111059D01*
X0136495Y0111071D01*
X0136337Y0111087D01*
X0136180Y0111107D01*
X0136024Y0111131D01*
X0135868Y0111159D01*
X0135713Y0111190D01*
X0135558Y0111226D01*
X0135405Y0111265D01*
X0135253Y0111308D01*
X0135102Y0111355D01*
X0134952Y0111406D01*
X0134803Y0111461D01*
X0134656Y0111519D01*
X0134510Y0111581D01*
X0134366Y0111646D01*
X0134224Y0111716D01*
X0134083Y0111788D01*
X0133944Y0111865D01*
X0133808Y0111944D01*
X0133673Y0112028D01*
X0133540Y0112114D01*
X0133410Y0112204D01*
X0133282Y0112297D01*
X0133156Y0112393D01*
X0133033Y0112493D01*
X0132912Y0112595D01*
X0132794Y0112700D01*
X0132679Y0112809D01*
X0132566Y0112920D01*
X0132456Y0113034D01*
X0132349Y0113151D01*
X0132245Y0113270D01*
X0132144Y0113392D01*
X0132047Y0113517D01*
X0131952Y0113644D01*
X0131861Y0113773D01*
X0131772Y0113904D01*
X0131688Y0114038D01*
X0131606Y0114174D01*
X0131528Y0114311D01*
X0131454Y0114451D01*
X0131383Y0114593D01*
X0131315Y0114736D01*
X0131251Y0114881D01*
X0131191Y0115027D01*
X0131135Y0115175D01*
X0131082Y0115324D01*
X0131033Y0115475D01*
X0130988Y0115627D01*
X0130947Y0115780D01*
X0130909Y0115933D01*
X0130876Y0116088D01*
X0130846Y0116244D01*
X0130820Y0116400D01*
X0130799Y0116557D01*
X0130781Y0116714D01*
X0130767Y0116872D01*
X0130757Y0117030D01*
X0130751Y0117188D01*
X0130749Y0117346D01*
X0504578Y0117346D02*
X0504580Y0117504D01*
X0504586Y0117662D01*
X0504596Y0117820D01*
X0504610Y0117978D01*
X0504628Y0118135D01*
X0504649Y0118292D01*
X0504675Y0118448D01*
X0504705Y0118604D01*
X0504738Y0118759D01*
X0504776Y0118912D01*
X0504817Y0119065D01*
X0504862Y0119217D01*
X0504911Y0119368D01*
X0504964Y0119517D01*
X0505020Y0119665D01*
X0505080Y0119811D01*
X0505144Y0119956D01*
X0505212Y0120099D01*
X0505283Y0120241D01*
X0505357Y0120381D01*
X0505435Y0120518D01*
X0505517Y0120654D01*
X0505601Y0120788D01*
X0505690Y0120919D01*
X0505781Y0121048D01*
X0505876Y0121175D01*
X0505973Y0121300D01*
X0506074Y0121422D01*
X0506178Y0121541D01*
X0506285Y0121658D01*
X0506395Y0121772D01*
X0506508Y0121883D01*
X0506623Y0121992D01*
X0506741Y0122097D01*
X0506862Y0122199D01*
X0506985Y0122299D01*
X0507111Y0122395D01*
X0507239Y0122488D01*
X0507369Y0122578D01*
X0507502Y0122664D01*
X0507637Y0122748D01*
X0507773Y0122827D01*
X0507912Y0122904D01*
X0508053Y0122976D01*
X0508195Y0123046D01*
X0508339Y0123111D01*
X0508485Y0123173D01*
X0508632Y0123231D01*
X0508781Y0123286D01*
X0508931Y0123337D01*
X0509082Y0123384D01*
X0509234Y0123427D01*
X0509387Y0123466D01*
X0509542Y0123502D01*
X0509697Y0123533D01*
X0509853Y0123561D01*
X0510009Y0123585D01*
X0510166Y0123605D01*
X0510324Y0123621D01*
X0510481Y0123633D01*
X0510640Y0123641D01*
X0510798Y0123645D01*
X0510956Y0123645D01*
X0511114Y0123641D01*
X0511273Y0123633D01*
X0511430Y0123621D01*
X0511588Y0123605D01*
X0511745Y0123585D01*
X0511901Y0123561D01*
X0512057Y0123533D01*
X0512212Y0123502D01*
X0512367Y0123466D01*
X0512520Y0123427D01*
X0512672Y0123384D01*
X0512823Y0123337D01*
X0512973Y0123286D01*
X0513122Y0123231D01*
X0513269Y0123173D01*
X0513415Y0123111D01*
X0513559Y0123046D01*
X0513701Y0122976D01*
X0513842Y0122904D01*
X0513981Y0122827D01*
X0514117Y0122748D01*
X0514252Y0122664D01*
X0514385Y0122578D01*
X0514515Y0122488D01*
X0514643Y0122395D01*
X0514769Y0122299D01*
X0514892Y0122199D01*
X0515013Y0122097D01*
X0515131Y0121992D01*
X0515246Y0121883D01*
X0515359Y0121772D01*
X0515469Y0121658D01*
X0515576Y0121541D01*
X0515680Y0121422D01*
X0515781Y0121300D01*
X0515878Y0121175D01*
X0515973Y0121048D01*
X0516064Y0120919D01*
X0516153Y0120788D01*
X0516237Y0120654D01*
X0516319Y0120518D01*
X0516397Y0120381D01*
X0516471Y0120241D01*
X0516542Y0120099D01*
X0516610Y0119956D01*
X0516674Y0119811D01*
X0516734Y0119665D01*
X0516790Y0119517D01*
X0516843Y0119368D01*
X0516892Y0119217D01*
X0516937Y0119065D01*
X0516978Y0118912D01*
X0517016Y0118759D01*
X0517049Y0118604D01*
X0517079Y0118448D01*
X0517105Y0118292D01*
X0517126Y0118135D01*
X0517144Y0117978D01*
X0517158Y0117820D01*
X0517168Y0117662D01*
X0517174Y0117504D01*
X0517176Y0117346D01*
X0517174Y0117188D01*
X0517168Y0117030D01*
X0517158Y0116872D01*
X0517144Y0116714D01*
X0517126Y0116557D01*
X0517105Y0116400D01*
X0517079Y0116244D01*
X0517049Y0116088D01*
X0517016Y0115933D01*
X0516978Y0115780D01*
X0516937Y0115627D01*
X0516892Y0115475D01*
X0516843Y0115324D01*
X0516790Y0115175D01*
X0516734Y0115027D01*
X0516674Y0114881D01*
X0516610Y0114736D01*
X0516542Y0114593D01*
X0516471Y0114451D01*
X0516397Y0114311D01*
X0516319Y0114174D01*
X0516237Y0114038D01*
X0516153Y0113904D01*
X0516064Y0113773D01*
X0515973Y0113644D01*
X0515878Y0113517D01*
X0515781Y0113392D01*
X0515680Y0113270D01*
X0515576Y0113151D01*
X0515469Y0113034D01*
X0515359Y0112920D01*
X0515246Y0112809D01*
X0515131Y0112700D01*
X0515013Y0112595D01*
X0514892Y0112493D01*
X0514769Y0112393D01*
X0514643Y0112297D01*
X0514515Y0112204D01*
X0514385Y0112114D01*
X0514252Y0112028D01*
X0514117Y0111944D01*
X0513981Y0111865D01*
X0513842Y0111788D01*
X0513701Y0111716D01*
X0513559Y0111646D01*
X0513415Y0111581D01*
X0513269Y0111519D01*
X0513122Y0111461D01*
X0512973Y0111406D01*
X0512823Y0111355D01*
X0512672Y0111308D01*
X0512520Y0111265D01*
X0512367Y0111226D01*
X0512212Y0111190D01*
X0512057Y0111159D01*
X0511901Y0111131D01*
X0511745Y0111107D01*
X0511588Y0111087D01*
X0511430Y0111071D01*
X0511273Y0111059D01*
X0511114Y0111051D01*
X0510956Y0111047D01*
X0510798Y0111047D01*
X0510640Y0111051D01*
X0510481Y0111059D01*
X0510324Y0111071D01*
X0510166Y0111087D01*
X0510009Y0111107D01*
X0509853Y0111131D01*
X0509697Y0111159D01*
X0509542Y0111190D01*
X0509387Y0111226D01*
X0509234Y0111265D01*
X0509082Y0111308D01*
X0508931Y0111355D01*
X0508781Y0111406D01*
X0508632Y0111461D01*
X0508485Y0111519D01*
X0508339Y0111581D01*
X0508195Y0111646D01*
X0508053Y0111716D01*
X0507912Y0111788D01*
X0507773Y0111865D01*
X0507637Y0111944D01*
X0507502Y0112028D01*
X0507369Y0112114D01*
X0507239Y0112204D01*
X0507111Y0112297D01*
X0506985Y0112393D01*
X0506862Y0112493D01*
X0506741Y0112595D01*
X0506623Y0112700D01*
X0506508Y0112809D01*
X0506395Y0112920D01*
X0506285Y0113034D01*
X0506178Y0113151D01*
X0506074Y0113270D01*
X0505973Y0113392D01*
X0505876Y0113517D01*
X0505781Y0113644D01*
X0505690Y0113773D01*
X0505601Y0113904D01*
X0505517Y0114038D01*
X0505435Y0114174D01*
X0505357Y0114311D01*
X0505283Y0114451D01*
X0505212Y0114593D01*
X0505144Y0114736D01*
X0505080Y0114881D01*
X0505020Y0115027D01*
X0504964Y0115175D01*
X0504911Y0115324D01*
X0504862Y0115475D01*
X0504817Y0115627D01*
X0504776Y0115780D01*
X0504738Y0115933D01*
X0504705Y0116088D01*
X0504675Y0116244D01*
X0504649Y0116400D01*
X0504628Y0116557D01*
X0504610Y0116714D01*
X0504596Y0116872D01*
X0504586Y0117030D01*
X0504580Y0117188D01*
X0504578Y0117346D01*
X0504578Y0229551D02*
X0504580Y0229709D01*
X0504586Y0229867D01*
X0504596Y0230025D01*
X0504610Y0230183D01*
X0504628Y0230340D01*
X0504649Y0230497D01*
X0504675Y0230653D01*
X0504705Y0230809D01*
X0504738Y0230964D01*
X0504776Y0231117D01*
X0504817Y0231270D01*
X0504862Y0231422D01*
X0504911Y0231573D01*
X0504964Y0231722D01*
X0505020Y0231870D01*
X0505080Y0232016D01*
X0505144Y0232161D01*
X0505212Y0232304D01*
X0505283Y0232446D01*
X0505357Y0232586D01*
X0505435Y0232723D01*
X0505517Y0232859D01*
X0505601Y0232993D01*
X0505690Y0233124D01*
X0505781Y0233253D01*
X0505876Y0233380D01*
X0505973Y0233505D01*
X0506074Y0233627D01*
X0506178Y0233746D01*
X0506285Y0233863D01*
X0506395Y0233977D01*
X0506508Y0234088D01*
X0506623Y0234197D01*
X0506741Y0234302D01*
X0506862Y0234404D01*
X0506985Y0234504D01*
X0507111Y0234600D01*
X0507239Y0234693D01*
X0507369Y0234783D01*
X0507502Y0234869D01*
X0507637Y0234953D01*
X0507773Y0235032D01*
X0507912Y0235109D01*
X0508053Y0235181D01*
X0508195Y0235251D01*
X0508339Y0235316D01*
X0508485Y0235378D01*
X0508632Y0235436D01*
X0508781Y0235491D01*
X0508931Y0235542D01*
X0509082Y0235589D01*
X0509234Y0235632D01*
X0509387Y0235671D01*
X0509542Y0235707D01*
X0509697Y0235738D01*
X0509853Y0235766D01*
X0510009Y0235790D01*
X0510166Y0235810D01*
X0510324Y0235826D01*
X0510481Y0235838D01*
X0510640Y0235846D01*
X0510798Y0235850D01*
X0510956Y0235850D01*
X0511114Y0235846D01*
X0511273Y0235838D01*
X0511430Y0235826D01*
X0511588Y0235810D01*
X0511745Y0235790D01*
X0511901Y0235766D01*
X0512057Y0235738D01*
X0512212Y0235707D01*
X0512367Y0235671D01*
X0512520Y0235632D01*
X0512672Y0235589D01*
X0512823Y0235542D01*
X0512973Y0235491D01*
X0513122Y0235436D01*
X0513269Y0235378D01*
X0513415Y0235316D01*
X0513559Y0235251D01*
X0513701Y0235181D01*
X0513842Y0235109D01*
X0513981Y0235032D01*
X0514117Y0234953D01*
X0514252Y0234869D01*
X0514385Y0234783D01*
X0514515Y0234693D01*
X0514643Y0234600D01*
X0514769Y0234504D01*
X0514892Y0234404D01*
X0515013Y0234302D01*
X0515131Y0234197D01*
X0515246Y0234088D01*
X0515359Y0233977D01*
X0515469Y0233863D01*
X0515576Y0233746D01*
X0515680Y0233627D01*
X0515781Y0233505D01*
X0515878Y0233380D01*
X0515973Y0233253D01*
X0516064Y0233124D01*
X0516153Y0232993D01*
X0516237Y0232859D01*
X0516319Y0232723D01*
X0516397Y0232586D01*
X0516471Y0232446D01*
X0516542Y0232304D01*
X0516610Y0232161D01*
X0516674Y0232016D01*
X0516734Y0231870D01*
X0516790Y0231722D01*
X0516843Y0231573D01*
X0516892Y0231422D01*
X0516937Y0231270D01*
X0516978Y0231117D01*
X0517016Y0230964D01*
X0517049Y0230809D01*
X0517079Y0230653D01*
X0517105Y0230497D01*
X0517126Y0230340D01*
X0517144Y0230183D01*
X0517158Y0230025D01*
X0517168Y0229867D01*
X0517174Y0229709D01*
X0517176Y0229551D01*
X0517174Y0229393D01*
X0517168Y0229235D01*
X0517158Y0229077D01*
X0517144Y0228919D01*
X0517126Y0228762D01*
X0517105Y0228605D01*
X0517079Y0228449D01*
X0517049Y0228293D01*
X0517016Y0228138D01*
X0516978Y0227985D01*
X0516937Y0227832D01*
X0516892Y0227680D01*
X0516843Y0227529D01*
X0516790Y0227380D01*
X0516734Y0227232D01*
X0516674Y0227086D01*
X0516610Y0226941D01*
X0516542Y0226798D01*
X0516471Y0226656D01*
X0516397Y0226516D01*
X0516319Y0226379D01*
X0516237Y0226243D01*
X0516153Y0226109D01*
X0516064Y0225978D01*
X0515973Y0225849D01*
X0515878Y0225722D01*
X0515781Y0225597D01*
X0515680Y0225475D01*
X0515576Y0225356D01*
X0515469Y0225239D01*
X0515359Y0225125D01*
X0515246Y0225014D01*
X0515131Y0224905D01*
X0515013Y0224800D01*
X0514892Y0224698D01*
X0514769Y0224598D01*
X0514643Y0224502D01*
X0514515Y0224409D01*
X0514385Y0224319D01*
X0514252Y0224233D01*
X0514117Y0224149D01*
X0513981Y0224070D01*
X0513842Y0223993D01*
X0513701Y0223921D01*
X0513559Y0223851D01*
X0513415Y0223786D01*
X0513269Y0223724D01*
X0513122Y0223666D01*
X0512973Y0223611D01*
X0512823Y0223560D01*
X0512672Y0223513D01*
X0512520Y0223470D01*
X0512367Y0223431D01*
X0512212Y0223395D01*
X0512057Y0223364D01*
X0511901Y0223336D01*
X0511745Y0223312D01*
X0511588Y0223292D01*
X0511430Y0223276D01*
X0511273Y0223264D01*
X0511114Y0223256D01*
X0510956Y0223252D01*
X0510798Y0223252D01*
X0510640Y0223256D01*
X0510481Y0223264D01*
X0510324Y0223276D01*
X0510166Y0223292D01*
X0510009Y0223312D01*
X0509853Y0223336D01*
X0509697Y0223364D01*
X0509542Y0223395D01*
X0509387Y0223431D01*
X0509234Y0223470D01*
X0509082Y0223513D01*
X0508931Y0223560D01*
X0508781Y0223611D01*
X0508632Y0223666D01*
X0508485Y0223724D01*
X0508339Y0223786D01*
X0508195Y0223851D01*
X0508053Y0223921D01*
X0507912Y0223993D01*
X0507773Y0224070D01*
X0507637Y0224149D01*
X0507502Y0224233D01*
X0507369Y0224319D01*
X0507239Y0224409D01*
X0507111Y0224502D01*
X0506985Y0224598D01*
X0506862Y0224698D01*
X0506741Y0224800D01*
X0506623Y0224905D01*
X0506508Y0225014D01*
X0506395Y0225125D01*
X0506285Y0225239D01*
X0506178Y0225356D01*
X0506074Y0225475D01*
X0505973Y0225597D01*
X0505876Y0225722D01*
X0505781Y0225849D01*
X0505690Y0225978D01*
X0505601Y0226109D01*
X0505517Y0226243D01*
X0505435Y0226379D01*
X0505357Y0226516D01*
X0505283Y0226656D01*
X0505212Y0226798D01*
X0505144Y0226941D01*
X0505080Y0227086D01*
X0505020Y0227232D01*
X0504964Y0227380D01*
X0504911Y0227529D01*
X0504862Y0227680D01*
X0504817Y0227832D01*
X0504776Y0227985D01*
X0504738Y0228138D01*
X0504705Y0228293D01*
X0504675Y0228449D01*
X0504649Y0228605D01*
X0504628Y0228762D01*
X0504610Y0228919D01*
X0504596Y0229077D01*
X0504586Y0229235D01*
X0504580Y0229393D01*
X0504578Y0229551D01*
X0242941Y0301783D02*
X0242943Y0301884D01*
X0242949Y0301985D01*
X0242959Y0302086D01*
X0242973Y0302186D01*
X0242991Y0302285D01*
X0243013Y0302384D01*
X0243038Y0302482D01*
X0243068Y0302579D01*
X0243101Y0302674D01*
X0243138Y0302768D01*
X0243179Y0302861D01*
X0243223Y0302952D01*
X0243271Y0303041D01*
X0243323Y0303128D01*
X0243378Y0303213D01*
X0243436Y0303295D01*
X0243497Y0303376D01*
X0243562Y0303454D01*
X0243629Y0303529D01*
X0243699Y0303601D01*
X0243773Y0303671D01*
X0243849Y0303738D01*
X0243927Y0303802D01*
X0244008Y0303862D01*
X0244091Y0303919D01*
X0244177Y0303973D01*
X0244265Y0304024D01*
X0244354Y0304071D01*
X0244445Y0304115D01*
X0244538Y0304154D01*
X0244633Y0304191D01*
X0244728Y0304223D01*
X0244825Y0304252D01*
X0244924Y0304276D01*
X0245022Y0304297D01*
X0245122Y0304314D01*
X0245222Y0304327D01*
X0245323Y0304336D01*
X0245424Y0304341D01*
X0245525Y0304342D01*
X0245626Y0304339D01*
X0245727Y0304332D01*
X0245828Y0304321D01*
X0245928Y0304306D01*
X0246027Y0304287D01*
X0246126Y0304264D01*
X0246223Y0304238D01*
X0246320Y0304207D01*
X0246415Y0304173D01*
X0246508Y0304135D01*
X0246601Y0304093D01*
X0246691Y0304048D01*
X0246780Y0303999D01*
X0246866Y0303947D01*
X0246950Y0303891D01*
X0247033Y0303832D01*
X0247112Y0303770D01*
X0247190Y0303705D01*
X0247264Y0303637D01*
X0247336Y0303565D01*
X0247405Y0303492D01*
X0247471Y0303415D01*
X0247534Y0303336D01*
X0247594Y0303254D01*
X0247650Y0303170D01*
X0247703Y0303084D01*
X0247753Y0302996D01*
X0247799Y0302906D01*
X0247842Y0302815D01*
X0247881Y0302721D01*
X0247916Y0302626D01*
X0247947Y0302530D01*
X0247975Y0302433D01*
X0247999Y0302335D01*
X0248019Y0302236D01*
X0248035Y0302136D01*
X0248047Y0302035D01*
X0248055Y0301935D01*
X0248059Y0301834D01*
X0248059Y0301732D01*
X0248055Y0301631D01*
X0248047Y0301531D01*
X0248035Y0301430D01*
X0248019Y0301330D01*
X0247999Y0301231D01*
X0247975Y0301133D01*
X0247947Y0301036D01*
X0247916Y0300940D01*
X0247881Y0300845D01*
X0247842Y0300751D01*
X0247799Y0300660D01*
X0247753Y0300570D01*
X0247703Y0300482D01*
X0247650Y0300396D01*
X0247594Y0300312D01*
X0247534Y0300230D01*
X0247471Y0300151D01*
X0247405Y0300074D01*
X0247336Y0300001D01*
X0247264Y0299929D01*
X0247190Y0299861D01*
X0247112Y0299796D01*
X0247033Y0299734D01*
X0246950Y0299675D01*
X0246866Y0299619D01*
X0246779Y0299567D01*
X0246691Y0299518D01*
X0246601Y0299473D01*
X0246508Y0299431D01*
X0246415Y0299393D01*
X0246320Y0299359D01*
X0246223Y0299328D01*
X0246126Y0299302D01*
X0246027Y0299279D01*
X0245928Y0299260D01*
X0245828Y0299245D01*
X0245727Y0299234D01*
X0245626Y0299227D01*
X0245525Y0299224D01*
X0245424Y0299225D01*
X0245323Y0299230D01*
X0245222Y0299239D01*
X0245122Y0299252D01*
X0245022Y0299269D01*
X0244924Y0299290D01*
X0244825Y0299314D01*
X0244728Y0299343D01*
X0244633Y0299375D01*
X0244538Y0299412D01*
X0244445Y0299451D01*
X0244354Y0299495D01*
X0244265Y0299542D01*
X0244177Y0299593D01*
X0244091Y0299647D01*
X0244008Y0299704D01*
X0243927Y0299764D01*
X0243849Y0299828D01*
X0243773Y0299895D01*
X0243699Y0299965D01*
X0243629Y0300037D01*
X0243562Y0300112D01*
X0243497Y0300190D01*
X0243436Y0300271D01*
X0243378Y0300353D01*
X0243323Y0300438D01*
X0243271Y0300525D01*
X0243223Y0300614D01*
X0243179Y0300705D01*
X0243138Y0300798D01*
X0243101Y0300892D01*
X0243068Y0300987D01*
X0243038Y0301084D01*
X0243013Y0301182D01*
X0242991Y0301281D01*
X0242973Y0301380D01*
X0242959Y0301480D01*
X0242949Y0301581D01*
X0242943Y0301682D01*
X0242941Y0301783D01*
X0223256Y0321469D02*
X0223258Y0321570D01*
X0223264Y0321671D01*
X0223274Y0321772D01*
X0223288Y0321872D01*
X0223306Y0321971D01*
X0223328Y0322070D01*
X0223353Y0322168D01*
X0223383Y0322265D01*
X0223416Y0322360D01*
X0223453Y0322454D01*
X0223494Y0322547D01*
X0223538Y0322638D01*
X0223586Y0322727D01*
X0223638Y0322814D01*
X0223693Y0322899D01*
X0223751Y0322981D01*
X0223812Y0323062D01*
X0223877Y0323140D01*
X0223944Y0323215D01*
X0224014Y0323287D01*
X0224088Y0323357D01*
X0224164Y0323424D01*
X0224242Y0323488D01*
X0224323Y0323548D01*
X0224406Y0323605D01*
X0224492Y0323659D01*
X0224580Y0323710D01*
X0224669Y0323757D01*
X0224760Y0323801D01*
X0224853Y0323840D01*
X0224948Y0323877D01*
X0225043Y0323909D01*
X0225140Y0323938D01*
X0225239Y0323962D01*
X0225337Y0323983D01*
X0225437Y0324000D01*
X0225537Y0324013D01*
X0225638Y0324022D01*
X0225739Y0324027D01*
X0225840Y0324028D01*
X0225941Y0324025D01*
X0226042Y0324018D01*
X0226143Y0324007D01*
X0226243Y0323992D01*
X0226342Y0323973D01*
X0226441Y0323950D01*
X0226538Y0323924D01*
X0226635Y0323893D01*
X0226730Y0323859D01*
X0226823Y0323821D01*
X0226916Y0323779D01*
X0227006Y0323734D01*
X0227095Y0323685D01*
X0227181Y0323633D01*
X0227265Y0323577D01*
X0227348Y0323518D01*
X0227427Y0323456D01*
X0227505Y0323391D01*
X0227579Y0323323D01*
X0227651Y0323251D01*
X0227720Y0323178D01*
X0227786Y0323101D01*
X0227849Y0323022D01*
X0227909Y0322940D01*
X0227965Y0322856D01*
X0228018Y0322770D01*
X0228068Y0322682D01*
X0228114Y0322592D01*
X0228157Y0322501D01*
X0228196Y0322407D01*
X0228231Y0322312D01*
X0228262Y0322216D01*
X0228290Y0322119D01*
X0228314Y0322021D01*
X0228334Y0321922D01*
X0228350Y0321822D01*
X0228362Y0321721D01*
X0228370Y0321621D01*
X0228374Y0321520D01*
X0228374Y0321418D01*
X0228370Y0321317D01*
X0228362Y0321217D01*
X0228350Y0321116D01*
X0228334Y0321016D01*
X0228314Y0320917D01*
X0228290Y0320819D01*
X0228262Y0320722D01*
X0228231Y0320626D01*
X0228196Y0320531D01*
X0228157Y0320437D01*
X0228114Y0320346D01*
X0228068Y0320256D01*
X0228018Y0320168D01*
X0227965Y0320082D01*
X0227909Y0319998D01*
X0227849Y0319916D01*
X0227786Y0319837D01*
X0227720Y0319760D01*
X0227651Y0319687D01*
X0227579Y0319615D01*
X0227505Y0319547D01*
X0227427Y0319482D01*
X0227348Y0319420D01*
X0227265Y0319361D01*
X0227181Y0319305D01*
X0227094Y0319253D01*
X0227006Y0319204D01*
X0226916Y0319159D01*
X0226823Y0319117D01*
X0226730Y0319079D01*
X0226635Y0319045D01*
X0226538Y0319014D01*
X0226441Y0318988D01*
X0226342Y0318965D01*
X0226243Y0318946D01*
X0226143Y0318931D01*
X0226042Y0318920D01*
X0225941Y0318913D01*
X0225840Y0318910D01*
X0225739Y0318911D01*
X0225638Y0318916D01*
X0225537Y0318925D01*
X0225437Y0318938D01*
X0225337Y0318955D01*
X0225239Y0318976D01*
X0225140Y0319000D01*
X0225043Y0319029D01*
X0224948Y0319061D01*
X0224853Y0319098D01*
X0224760Y0319137D01*
X0224669Y0319181D01*
X0224580Y0319228D01*
X0224492Y0319279D01*
X0224406Y0319333D01*
X0224323Y0319390D01*
X0224242Y0319450D01*
X0224164Y0319514D01*
X0224088Y0319581D01*
X0224014Y0319651D01*
X0223944Y0319723D01*
X0223877Y0319798D01*
X0223812Y0319876D01*
X0223751Y0319957D01*
X0223693Y0320039D01*
X0223638Y0320124D01*
X0223586Y0320211D01*
X0223538Y0320300D01*
X0223494Y0320391D01*
X0223453Y0320484D01*
X0223416Y0320578D01*
X0223383Y0320673D01*
X0223353Y0320770D01*
X0223328Y0320868D01*
X0223306Y0320967D01*
X0223288Y0321066D01*
X0223274Y0321166D01*
X0223264Y0321267D01*
X0223258Y0321368D01*
X0223256Y0321469D01*
X0223256Y0331311D02*
X0223258Y0331412D01*
X0223264Y0331513D01*
X0223274Y0331614D01*
X0223288Y0331714D01*
X0223306Y0331813D01*
X0223328Y0331912D01*
X0223353Y0332010D01*
X0223383Y0332107D01*
X0223416Y0332202D01*
X0223453Y0332296D01*
X0223494Y0332389D01*
X0223538Y0332480D01*
X0223586Y0332569D01*
X0223638Y0332656D01*
X0223693Y0332741D01*
X0223751Y0332823D01*
X0223812Y0332904D01*
X0223877Y0332982D01*
X0223944Y0333057D01*
X0224014Y0333129D01*
X0224088Y0333199D01*
X0224164Y0333266D01*
X0224242Y0333330D01*
X0224323Y0333390D01*
X0224406Y0333447D01*
X0224492Y0333501D01*
X0224580Y0333552D01*
X0224669Y0333599D01*
X0224760Y0333643D01*
X0224853Y0333682D01*
X0224948Y0333719D01*
X0225043Y0333751D01*
X0225140Y0333780D01*
X0225239Y0333804D01*
X0225337Y0333825D01*
X0225437Y0333842D01*
X0225537Y0333855D01*
X0225638Y0333864D01*
X0225739Y0333869D01*
X0225840Y0333870D01*
X0225941Y0333867D01*
X0226042Y0333860D01*
X0226143Y0333849D01*
X0226243Y0333834D01*
X0226342Y0333815D01*
X0226441Y0333792D01*
X0226538Y0333766D01*
X0226635Y0333735D01*
X0226730Y0333701D01*
X0226823Y0333663D01*
X0226916Y0333621D01*
X0227006Y0333576D01*
X0227095Y0333527D01*
X0227181Y0333475D01*
X0227265Y0333419D01*
X0227348Y0333360D01*
X0227427Y0333298D01*
X0227505Y0333233D01*
X0227579Y0333165D01*
X0227651Y0333093D01*
X0227720Y0333020D01*
X0227786Y0332943D01*
X0227849Y0332864D01*
X0227909Y0332782D01*
X0227965Y0332698D01*
X0228018Y0332612D01*
X0228068Y0332524D01*
X0228114Y0332434D01*
X0228157Y0332343D01*
X0228196Y0332249D01*
X0228231Y0332154D01*
X0228262Y0332058D01*
X0228290Y0331961D01*
X0228314Y0331863D01*
X0228334Y0331764D01*
X0228350Y0331664D01*
X0228362Y0331563D01*
X0228370Y0331463D01*
X0228374Y0331362D01*
X0228374Y0331260D01*
X0228370Y0331159D01*
X0228362Y0331059D01*
X0228350Y0330958D01*
X0228334Y0330858D01*
X0228314Y0330759D01*
X0228290Y0330661D01*
X0228262Y0330564D01*
X0228231Y0330468D01*
X0228196Y0330373D01*
X0228157Y0330279D01*
X0228114Y0330188D01*
X0228068Y0330098D01*
X0228018Y0330010D01*
X0227965Y0329924D01*
X0227909Y0329840D01*
X0227849Y0329758D01*
X0227786Y0329679D01*
X0227720Y0329602D01*
X0227651Y0329529D01*
X0227579Y0329457D01*
X0227505Y0329389D01*
X0227427Y0329324D01*
X0227348Y0329262D01*
X0227265Y0329203D01*
X0227181Y0329147D01*
X0227094Y0329095D01*
X0227006Y0329046D01*
X0226916Y0329001D01*
X0226823Y0328959D01*
X0226730Y0328921D01*
X0226635Y0328887D01*
X0226538Y0328856D01*
X0226441Y0328830D01*
X0226342Y0328807D01*
X0226243Y0328788D01*
X0226143Y0328773D01*
X0226042Y0328762D01*
X0225941Y0328755D01*
X0225840Y0328752D01*
X0225739Y0328753D01*
X0225638Y0328758D01*
X0225537Y0328767D01*
X0225437Y0328780D01*
X0225337Y0328797D01*
X0225239Y0328818D01*
X0225140Y0328842D01*
X0225043Y0328871D01*
X0224948Y0328903D01*
X0224853Y0328940D01*
X0224760Y0328979D01*
X0224669Y0329023D01*
X0224580Y0329070D01*
X0224492Y0329121D01*
X0224406Y0329175D01*
X0224323Y0329232D01*
X0224242Y0329292D01*
X0224164Y0329356D01*
X0224088Y0329423D01*
X0224014Y0329493D01*
X0223944Y0329565D01*
X0223877Y0329640D01*
X0223812Y0329718D01*
X0223751Y0329799D01*
X0223693Y0329881D01*
X0223638Y0329966D01*
X0223586Y0330053D01*
X0223538Y0330142D01*
X0223494Y0330233D01*
X0223453Y0330326D01*
X0223416Y0330420D01*
X0223383Y0330515D01*
X0223353Y0330612D01*
X0223328Y0330710D01*
X0223306Y0330809D01*
X0223288Y0330908D01*
X0223274Y0331008D01*
X0223264Y0331109D01*
X0223258Y0331210D01*
X0223256Y0331311D01*
X0262626Y0331311D02*
X0262628Y0331412D01*
X0262634Y0331513D01*
X0262644Y0331614D01*
X0262658Y0331714D01*
X0262676Y0331813D01*
X0262698Y0331912D01*
X0262723Y0332010D01*
X0262753Y0332107D01*
X0262786Y0332202D01*
X0262823Y0332296D01*
X0262864Y0332389D01*
X0262908Y0332480D01*
X0262956Y0332569D01*
X0263008Y0332656D01*
X0263063Y0332741D01*
X0263121Y0332823D01*
X0263182Y0332904D01*
X0263247Y0332982D01*
X0263314Y0333057D01*
X0263384Y0333129D01*
X0263458Y0333199D01*
X0263534Y0333266D01*
X0263612Y0333330D01*
X0263693Y0333390D01*
X0263776Y0333447D01*
X0263862Y0333501D01*
X0263950Y0333552D01*
X0264039Y0333599D01*
X0264130Y0333643D01*
X0264223Y0333682D01*
X0264318Y0333719D01*
X0264413Y0333751D01*
X0264510Y0333780D01*
X0264609Y0333804D01*
X0264707Y0333825D01*
X0264807Y0333842D01*
X0264907Y0333855D01*
X0265008Y0333864D01*
X0265109Y0333869D01*
X0265210Y0333870D01*
X0265311Y0333867D01*
X0265412Y0333860D01*
X0265513Y0333849D01*
X0265613Y0333834D01*
X0265712Y0333815D01*
X0265811Y0333792D01*
X0265908Y0333766D01*
X0266005Y0333735D01*
X0266100Y0333701D01*
X0266193Y0333663D01*
X0266286Y0333621D01*
X0266376Y0333576D01*
X0266465Y0333527D01*
X0266551Y0333475D01*
X0266635Y0333419D01*
X0266718Y0333360D01*
X0266797Y0333298D01*
X0266875Y0333233D01*
X0266949Y0333165D01*
X0267021Y0333093D01*
X0267090Y0333020D01*
X0267156Y0332943D01*
X0267219Y0332864D01*
X0267279Y0332782D01*
X0267335Y0332698D01*
X0267388Y0332612D01*
X0267438Y0332524D01*
X0267484Y0332434D01*
X0267527Y0332343D01*
X0267566Y0332249D01*
X0267601Y0332154D01*
X0267632Y0332058D01*
X0267660Y0331961D01*
X0267684Y0331863D01*
X0267704Y0331764D01*
X0267720Y0331664D01*
X0267732Y0331563D01*
X0267740Y0331463D01*
X0267744Y0331362D01*
X0267744Y0331260D01*
X0267740Y0331159D01*
X0267732Y0331059D01*
X0267720Y0330958D01*
X0267704Y0330858D01*
X0267684Y0330759D01*
X0267660Y0330661D01*
X0267632Y0330564D01*
X0267601Y0330468D01*
X0267566Y0330373D01*
X0267527Y0330279D01*
X0267484Y0330188D01*
X0267438Y0330098D01*
X0267388Y0330010D01*
X0267335Y0329924D01*
X0267279Y0329840D01*
X0267219Y0329758D01*
X0267156Y0329679D01*
X0267090Y0329602D01*
X0267021Y0329529D01*
X0266949Y0329457D01*
X0266875Y0329389D01*
X0266797Y0329324D01*
X0266718Y0329262D01*
X0266635Y0329203D01*
X0266551Y0329147D01*
X0266464Y0329095D01*
X0266376Y0329046D01*
X0266286Y0329001D01*
X0266193Y0328959D01*
X0266100Y0328921D01*
X0266005Y0328887D01*
X0265908Y0328856D01*
X0265811Y0328830D01*
X0265712Y0328807D01*
X0265613Y0328788D01*
X0265513Y0328773D01*
X0265412Y0328762D01*
X0265311Y0328755D01*
X0265210Y0328752D01*
X0265109Y0328753D01*
X0265008Y0328758D01*
X0264907Y0328767D01*
X0264807Y0328780D01*
X0264707Y0328797D01*
X0264609Y0328818D01*
X0264510Y0328842D01*
X0264413Y0328871D01*
X0264318Y0328903D01*
X0264223Y0328940D01*
X0264130Y0328979D01*
X0264039Y0329023D01*
X0263950Y0329070D01*
X0263862Y0329121D01*
X0263776Y0329175D01*
X0263693Y0329232D01*
X0263612Y0329292D01*
X0263534Y0329356D01*
X0263458Y0329423D01*
X0263384Y0329493D01*
X0263314Y0329565D01*
X0263247Y0329640D01*
X0263182Y0329718D01*
X0263121Y0329799D01*
X0263063Y0329881D01*
X0263008Y0329966D01*
X0262956Y0330053D01*
X0262908Y0330142D01*
X0262864Y0330233D01*
X0262823Y0330326D01*
X0262786Y0330420D01*
X0262753Y0330515D01*
X0262723Y0330612D01*
X0262698Y0330710D01*
X0262676Y0330809D01*
X0262658Y0330908D01*
X0262644Y0331008D01*
X0262634Y0331109D01*
X0262628Y0331210D01*
X0262626Y0331311D01*
X0262626Y0321469D02*
X0262628Y0321570D01*
X0262634Y0321671D01*
X0262644Y0321772D01*
X0262658Y0321872D01*
X0262676Y0321971D01*
X0262698Y0322070D01*
X0262723Y0322168D01*
X0262753Y0322265D01*
X0262786Y0322360D01*
X0262823Y0322454D01*
X0262864Y0322547D01*
X0262908Y0322638D01*
X0262956Y0322727D01*
X0263008Y0322814D01*
X0263063Y0322899D01*
X0263121Y0322981D01*
X0263182Y0323062D01*
X0263247Y0323140D01*
X0263314Y0323215D01*
X0263384Y0323287D01*
X0263458Y0323357D01*
X0263534Y0323424D01*
X0263612Y0323488D01*
X0263693Y0323548D01*
X0263776Y0323605D01*
X0263862Y0323659D01*
X0263950Y0323710D01*
X0264039Y0323757D01*
X0264130Y0323801D01*
X0264223Y0323840D01*
X0264318Y0323877D01*
X0264413Y0323909D01*
X0264510Y0323938D01*
X0264609Y0323962D01*
X0264707Y0323983D01*
X0264807Y0324000D01*
X0264907Y0324013D01*
X0265008Y0324022D01*
X0265109Y0324027D01*
X0265210Y0324028D01*
X0265311Y0324025D01*
X0265412Y0324018D01*
X0265513Y0324007D01*
X0265613Y0323992D01*
X0265712Y0323973D01*
X0265811Y0323950D01*
X0265908Y0323924D01*
X0266005Y0323893D01*
X0266100Y0323859D01*
X0266193Y0323821D01*
X0266286Y0323779D01*
X0266376Y0323734D01*
X0266465Y0323685D01*
X0266551Y0323633D01*
X0266635Y0323577D01*
X0266718Y0323518D01*
X0266797Y0323456D01*
X0266875Y0323391D01*
X0266949Y0323323D01*
X0267021Y0323251D01*
X0267090Y0323178D01*
X0267156Y0323101D01*
X0267219Y0323022D01*
X0267279Y0322940D01*
X0267335Y0322856D01*
X0267388Y0322770D01*
X0267438Y0322682D01*
X0267484Y0322592D01*
X0267527Y0322501D01*
X0267566Y0322407D01*
X0267601Y0322312D01*
X0267632Y0322216D01*
X0267660Y0322119D01*
X0267684Y0322021D01*
X0267704Y0321922D01*
X0267720Y0321822D01*
X0267732Y0321721D01*
X0267740Y0321621D01*
X0267744Y0321520D01*
X0267744Y0321418D01*
X0267740Y0321317D01*
X0267732Y0321217D01*
X0267720Y0321116D01*
X0267704Y0321016D01*
X0267684Y0320917D01*
X0267660Y0320819D01*
X0267632Y0320722D01*
X0267601Y0320626D01*
X0267566Y0320531D01*
X0267527Y0320437D01*
X0267484Y0320346D01*
X0267438Y0320256D01*
X0267388Y0320168D01*
X0267335Y0320082D01*
X0267279Y0319998D01*
X0267219Y0319916D01*
X0267156Y0319837D01*
X0267090Y0319760D01*
X0267021Y0319687D01*
X0266949Y0319615D01*
X0266875Y0319547D01*
X0266797Y0319482D01*
X0266718Y0319420D01*
X0266635Y0319361D01*
X0266551Y0319305D01*
X0266464Y0319253D01*
X0266376Y0319204D01*
X0266286Y0319159D01*
X0266193Y0319117D01*
X0266100Y0319079D01*
X0266005Y0319045D01*
X0265908Y0319014D01*
X0265811Y0318988D01*
X0265712Y0318965D01*
X0265613Y0318946D01*
X0265513Y0318931D01*
X0265412Y0318920D01*
X0265311Y0318913D01*
X0265210Y0318910D01*
X0265109Y0318911D01*
X0265008Y0318916D01*
X0264907Y0318925D01*
X0264807Y0318938D01*
X0264707Y0318955D01*
X0264609Y0318976D01*
X0264510Y0319000D01*
X0264413Y0319029D01*
X0264318Y0319061D01*
X0264223Y0319098D01*
X0264130Y0319137D01*
X0264039Y0319181D01*
X0263950Y0319228D01*
X0263862Y0319279D01*
X0263776Y0319333D01*
X0263693Y0319390D01*
X0263612Y0319450D01*
X0263534Y0319514D01*
X0263458Y0319581D01*
X0263384Y0319651D01*
X0263314Y0319723D01*
X0263247Y0319798D01*
X0263182Y0319876D01*
X0263121Y0319957D01*
X0263063Y0320039D01*
X0263008Y0320124D01*
X0262956Y0320211D01*
X0262908Y0320300D01*
X0262864Y0320391D01*
X0262823Y0320484D01*
X0262786Y0320578D01*
X0262753Y0320673D01*
X0262723Y0320770D01*
X0262698Y0320868D01*
X0262676Y0320967D01*
X0262658Y0321066D01*
X0262644Y0321166D01*
X0262634Y0321267D01*
X0262628Y0321368D01*
X0262626Y0321469D01*
X0130703Y0229471D02*
X0130705Y0229629D01*
X0130711Y0229787D01*
X0130721Y0229945D01*
X0130735Y0230103D01*
X0130753Y0230260D01*
X0130774Y0230417D01*
X0130800Y0230573D01*
X0130830Y0230729D01*
X0130863Y0230884D01*
X0130901Y0231037D01*
X0130942Y0231190D01*
X0130987Y0231342D01*
X0131036Y0231493D01*
X0131089Y0231642D01*
X0131145Y0231790D01*
X0131205Y0231936D01*
X0131269Y0232081D01*
X0131337Y0232224D01*
X0131408Y0232366D01*
X0131482Y0232506D01*
X0131560Y0232643D01*
X0131642Y0232779D01*
X0131726Y0232913D01*
X0131815Y0233044D01*
X0131906Y0233173D01*
X0132001Y0233300D01*
X0132098Y0233425D01*
X0132199Y0233547D01*
X0132303Y0233666D01*
X0132410Y0233783D01*
X0132520Y0233897D01*
X0132633Y0234008D01*
X0132748Y0234117D01*
X0132866Y0234222D01*
X0132987Y0234324D01*
X0133110Y0234424D01*
X0133236Y0234520D01*
X0133364Y0234613D01*
X0133494Y0234703D01*
X0133627Y0234789D01*
X0133762Y0234873D01*
X0133898Y0234952D01*
X0134037Y0235029D01*
X0134178Y0235101D01*
X0134320Y0235171D01*
X0134464Y0235236D01*
X0134610Y0235298D01*
X0134757Y0235356D01*
X0134906Y0235411D01*
X0135056Y0235462D01*
X0135207Y0235509D01*
X0135359Y0235552D01*
X0135512Y0235591D01*
X0135667Y0235627D01*
X0135822Y0235658D01*
X0135978Y0235686D01*
X0136134Y0235710D01*
X0136291Y0235730D01*
X0136449Y0235746D01*
X0136606Y0235758D01*
X0136765Y0235766D01*
X0136923Y0235770D01*
X0137081Y0235770D01*
X0137239Y0235766D01*
X0137398Y0235758D01*
X0137555Y0235746D01*
X0137713Y0235730D01*
X0137870Y0235710D01*
X0138026Y0235686D01*
X0138182Y0235658D01*
X0138337Y0235627D01*
X0138492Y0235591D01*
X0138645Y0235552D01*
X0138797Y0235509D01*
X0138948Y0235462D01*
X0139098Y0235411D01*
X0139247Y0235356D01*
X0139394Y0235298D01*
X0139540Y0235236D01*
X0139684Y0235171D01*
X0139826Y0235101D01*
X0139967Y0235029D01*
X0140106Y0234952D01*
X0140242Y0234873D01*
X0140377Y0234789D01*
X0140510Y0234703D01*
X0140640Y0234613D01*
X0140768Y0234520D01*
X0140894Y0234424D01*
X0141017Y0234324D01*
X0141138Y0234222D01*
X0141256Y0234117D01*
X0141371Y0234008D01*
X0141484Y0233897D01*
X0141594Y0233783D01*
X0141701Y0233666D01*
X0141805Y0233547D01*
X0141906Y0233425D01*
X0142003Y0233300D01*
X0142098Y0233173D01*
X0142189Y0233044D01*
X0142278Y0232913D01*
X0142362Y0232779D01*
X0142444Y0232643D01*
X0142522Y0232506D01*
X0142596Y0232366D01*
X0142667Y0232224D01*
X0142735Y0232081D01*
X0142799Y0231936D01*
X0142859Y0231790D01*
X0142915Y0231642D01*
X0142968Y0231493D01*
X0143017Y0231342D01*
X0143062Y0231190D01*
X0143103Y0231037D01*
X0143141Y0230884D01*
X0143174Y0230729D01*
X0143204Y0230573D01*
X0143230Y0230417D01*
X0143251Y0230260D01*
X0143269Y0230103D01*
X0143283Y0229945D01*
X0143293Y0229787D01*
X0143299Y0229629D01*
X0143301Y0229471D01*
X0143299Y0229313D01*
X0143293Y0229155D01*
X0143283Y0228997D01*
X0143269Y0228839D01*
X0143251Y0228682D01*
X0143230Y0228525D01*
X0143204Y0228369D01*
X0143174Y0228213D01*
X0143141Y0228058D01*
X0143103Y0227905D01*
X0143062Y0227752D01*
X0143017Y0227600D01*
X0142968Y0227449D01*
X0142915Y0227300D01*
X0142859Y0227152D01*
X0142799Y0227006D01*
X0142735Y0226861D01*
X0142667Y0226718D01*
X0142596Y0226576D01*
X0142522Y0226436D01*
X0142444Y0226299D01*
X0142362Y0226163D01*
X0142278Y0226029D01*
X0142189Y0225898D01*
X0142098Y0225769D01*
X0142003Y0225642D01*
X0141906Y0225517D01*
X0141805Y0225395D01*
X0141701Y0225276D01*
X0141594Y0225159D01*
X0141484Y0225045D01*
X0141371Y0224934D01*
X0141256Y0224825D01*
X0141138Y0224720D01*
X0141017Y0224618D01*
X0140894Y0224518D01*
X0140768Y0224422D01*
X0140640Y0224329D01*
X0140510Y0224239D01*
X0140377Y0224153D01*
X0140242Y0224069D01*
X0140106Y0223990D01*
X0139967Y0223913D01*
X0139826Y0223841D01*
X0139684Y0223771D01*
X0139540Y0223706D01*
X0139394Y0223644D01*
X0139247Y0223586D01*
X0139098Y0223531D01*
X0138948Y0223480D01*
X0138797Y0223433D01*
X0138645Y0223390D01*
X0138492Y0223351D01*
X0138337Y0223315D01*
X0138182Y0223284D01*
X0138026Y0223256D01*
X0137870Y0223232D01*
X0137713Y0223212D01*
X0137555Y0223196D01*
X0137398Y0223184D01*
X0137239Y0223176D01*
X0137081Y0223172D01*
X0136923Y0223172D01*
X0136765Y0223176D01*
X0136606Y0223184D01*
X0136449Y0223196D01*
X0136291Y0223212D01*
X0136134Y0223232D01*
X0135978Y0223256D01*
X0135822Y0223284D01*
X0135667Y0223315D01*
X0135512Y0223351D01*
X0135359Y0223390D01*
X0135207Y0223433D01*
X0135056Y0223480D01*
X0134906Y0223531D01*
X0134757Y0223586D01*
X0134610Y0223644D01*
X0134464Y0223706D01*
X0134320Y0223771D01*
X0134178Y0223841D01*
X0134037Y0223913D01*
X0133898Y0223990D01*
X0133762Y0224069D01*
X0133627Y0224153D01*
X0133494Y0224239D01*
X0133364Y0224329D01*
X0133236Y0224422D01*
X0133110Y0224518D01*
X0132987Y0224618D01*
X0132866Y0224720D01*
X0132748Y0224825D01*
X0132633Y0224934D01*
X0132520Y0225045D01*
X0132410Y0225159D01*
X0132303Y0225276D01*
X0132199Y0225395D01*
X0132098Y0225517D01*
X0132001Y0225642D01*
X0131906Y0225769D01*
X0131815Y0225898D01*
X0131726Y0226029D01*
X0131642Y0226163D01*
X0131560Y0226299D01*
X0131482Y0226436D01*
X0131408Y0226576D01*
X0131337Y0226718D01*
X0131269Y0226861D01*
X0131205Y0227006D01*
X0131145Y0227152D01*
X0131089Y0227300D01*
X0131036Y0227449D01*
X0130987Y0227600D01*
X0130942Y0227752D01*
X0130901Y0227905D01*
X0130863Y0228058D01*
X0130830Y0228213D01*
X0130800Y0228369D01*
X0130774Y0228525D01*
X0130753Y0228682D01*
X0130735Y0228839D01*
X0130721Y0228997D01*
X0130711Y0229155D01*
X0130705Y0229313D01*
X0130703Y0229471D01*
D11*
X0133657Y0099515D02*
X0133657Y0096679D01*
X0145000Y0085336D01*
X0145000Y0082500D01*
X0133657Y0082500D01*
X0126584Y0088172D02*
X0120913Y0082500D01*
X0115241Y0088172D01*
X0115241Y0099515D01*
X0108169Y0099515D02*
X0108169Y0085336D01*
X0105333Y0082500D01*
X0099661Y0082500D01*
X0096826Y0085336D01*
X0096826Y0099515D01*
X0089753Y0099515D02*
X0089753Y0082500D01*
X0086917Y0091007D02*
X0078410Y0082500D01*
X0071337Y0085336D02*
X0068501Y0082500D01*
X0062830Y0082500D01*
X0059994Y0085336D01*
X0059994Y0096679D01*
X0062830Y0099515D01*
X0068501Y0099515D01*
X0071337Y0096679D01*
X0071337Y0093843D01*
X0068501Y0091007D01*
X0059994Y0091007D01*
X0078410Y0099515D02*
X0089753Y0088172D01*
X0126584Y0088172D02*
X0126584Y0099515D01*
X0133657Y0099515D02*
X0145000Y0099515D01*
X0145000Y0069515D02*
X0136493Y0069515D01*
X0133657Y0066679D01*
X0133657Y0061007D01*
X0136493Y0058172D01*
X0145000Y0058172D01*
X0139328Y0058172D02*
X0133657Y0052500D01*
X0126584Y0052500D02*
X0115241Y0063843D01*
X0115241Y0066679D01*
X0118077Y0069515D01*
X0123749Y0069515D01*
X0126584Y0066679D01*
X0145000Y0069515D02*
X0145000Y0052500D01*
X0126584Y0052500D02*
X0115241Y0052500D01*
X0118077Y0039515D02*
X0115241Y0036679D01*
X0126584Y0025336D01*
X0123749Y0022500D01*
X0118077Y0022500D01*
X0115241Y0025336D01*
X0115241Y0036679D01*
X0118077Y0039515D02*
X0123749Y0039515D01*
X0126584Y0036679D01*
X0126584Y0025336D01*
X0133657Y0022500D02*
X0145000Y0022500D01*
X0133657Y0033843D01*
X0133657Y0036679D01*
X0136493Y0039515D01*
X0142164Y0039515D01*
X0145000Y0036679D01*
X0108169Y0033843D02*
X0102497Y0039515D01*
X0102497Y0022500D01*
X0096826Y0022500D02*
X0108169Y0022500D01*
X0089753Y0025336D02*
X0089753Y0031007D01*
X0081246Y0031007D01*
X0078410Y0028172D01*
X0078410Y0025336D01*
X0081246Y0022500D01*
X0086917Y0022500D01*
X0089753Y0025336D01*
X0089753Y0031007D02*
X0084081Y0036679D01*
X0078410Y0039515D01*
X0062129Y0033843D02*
X0056458Y0039515D01*
X0056458Y0022500D01*
X0062129Y0022500D02*
X0050786Y0022500D01*
X0043713Y0022500D02*
X0032370Y0033843D01*
X0032370Y0036679D01*
X0035206Y0039515D01*
X0040878Y0039515D01*
X0043713Y0036679D01*
X0068501Y0025336D02*
X0068501Y0022500D01*
X0071337Y0022500D01*
X0071337Y0025336D01*
X0068501Y0025336D01*
X0043713Y0022500D02*
X0032370Y0022500D01*
D12*
X0360098Y0120689D02*
X0360098Y0149311D01*
X0419803Y0149311D02*
X0419803Y0120689D01*
X0421400Y0122101D02*
X0422101Y0121400D01*
X0425604Y0121400D01*
X0425604Y0124202D02*
X0422101Y0124202D01*
X0421400Y0123502D01*
X0421400Y0122101D01*
X0421400Y0126004D02*
X0424202Y0128806D01*
X0424903Y0128806D01*
X0425604Y0128106D01*
X0425604Y0126705D01*
X0424903Y0126004D01*
X0421400Y0126004D02*
X0421400Y0128806D01*
X0412785Y0127913D02*
X0412787Y0128013D01*
X0412793Y0128113D01*
X0412803Y0128212D01*
X0412817Y0128311D01*
X0412834Y0128410D01*
X0412856Y0128507D01*
X0412881Y0128604D01*
X0412910Y0128700D01*
X0412943Y0128794D01*
X0412980Y0128887D01*
X0413020Y0128978D01*
X0413064Y0129068D01*
X0413112Y0129156D01*
X0413162Y0129242D01*
X0413217Y0129326D01*
X0413274Y0129408D01*
X0413335Y0129488D01*
X0413398Y0129565D01*
X0413465Y0129639D01*
X0413535Y0129711D01*
X0413607Y0129780D01*
X0413682Y0129846D01*
X0413760Y0129909D01*
X0413840Y0129969D01*
X0413922Y0130025D01*
X0414007Y0130079D01*
X0414094Y0130129D01*
X0414182Y0130175D01*
X0414272Y0130218D01*
X0414364Y0130258D01*
X0414458Y0130293D01*
X0414552Y0130325D01*
X0414648Y0130354D01*
X0414745Y0130378D01*
X0414843Y0130399D01*
X0414941Y0130415D01*
X0415041Y0130428D01*
X0415140Y0130437D01*
X0415240Y0130442D01*
X0415340Y0130443D01*
X0415440Y0130440D01*
X0415540Y0130433D01*
X0415639Y0130422D01*
X0415738Y0130407D01*
X0415836Y0130389D01*
X0415934Y0130366D01*
X0416030Y0130340D01*
X0416125Y0130310D01*
X0416219Y0130276D01*
X0416312Y0130238D01*
X0416403Y0130197D01*
X0416492Y0130152D01*
X0416580Y0130104D01*
X0416666Y0130052D01*
X0416749Y0129997D01*
X0416830Y0129939D01*
X0416909Y0129878D01*
X0416985Y0129813D01*
X0417059Y0129746D01*
X0417130Y0129675D01*
X0417198Y0129602D01*
X0417264Y0129526D01*
X0417326Y0129448D01*
X0417385Y0129368D01*
X0417441Y0129285D01*
X0417493Y0129200D01*
X0417543Y0129113D01*
X0417588Y0129024D01*
X0417630Y0128933D01*
X0417669Y0128841D01*
X0417704Y0128747D01*
X0417735Y0128652D01*
X0417762Y0128556D01*
X0417785Y0128459D01*
X0417805Y0128361D01*
X0417821Y0128262D01*
X0417833Y0128163D01*
X0417841Y0128063D01*
X0417845Y0127963D01*
X0417845Y0127863D01*
X0417841Y0127763D01*
X0417833Y0127663D01*
X0417821Y0127564D01*
X0417805Y0127465D01*
X0417785Y0127367D01*
X0417762Y0127270D01*
X0417735Y0127174D01*
X0417704Y0127079D01*
X0417669Y0126985D01*
X0417630Y0126893D01*
X0417588Y0126802D01*
X0417543Y0126713D01*
X0417493Y0126626D01*
X0417441Y0126541D01*
X0417385Y0126458D01*
X0417326Y0126378D01*
X0417264Y0126300D01*
X0417198Y0126224D01*
X0417130Y0126151D01*
X0417059Y0126080D01*
X0416985Y0126013D01*
X0416909Y0125948D01*
X0416830Y0125887D01*
X0416749Y0125829D01*
X0416666Y0125774D01*
X0416580Y0125722D01*
X0416492Y0125674D01*
X0416403Y0125629D01*
X0416312Y0125588D01*
X0416219Y0125550D01*
X0416125Y0125516D01*
X0416030Y0125486D01*
X0415934Y0125460D01*
X0415836Y0125437D01*
X0415738Y0125419D01*
X0415639Y0125404D01*
X0415540Y0125393D01*
X0415440Y0125386D01*
X0415340Y0125383D01*
X0415240Y0125384D01*
X0415140Y0125389D01*
X0415041Y0125398D01*
X0414941Y0125411D01*
X0414843Y0125427D01*
X0414745Y0125448D01*
X0414648Y0125472D01*
X0414552Y0125501D01*
X0414458Y0125533D01*
X0414364Y0125568D01*
X0414272Y0125608D01*
X0414182Y0125651D01*
X0414094Y0125697D01*
X0414007Y0125747D01*
X0413922Y0125801D01*
X0413840Y0125857D01*
X0413760Y0125917D01*
X0413682Y0125980D01*
X0413607Y0126046D01*
X0413535Y0126115D01*
X0413465Y0126187D01*
X0413398Y0126261D01*
X0413335Y0126338D01*
X0413274Y0126418D01*
X0413217Y0126500D01*
X0413162Y0126584D01*
X0413112Y0126670D01*
X0413064Y0126758D01*
X0413020Y0126848D01*
X0412980Y0126939D01*
X0412943Y0127032D01*
X0412910Y0127126D01*
X0412881Y0127222D01*
X0412856Y0127319D01*
X0412834Y0127416D01*
X0412817Y0127515D01*
X0412803Y0127614D01*
X0412793Y0127713D01*
X0412787Y0127813D01*
X0412785Y0127913D01*
X0433098Y0120689D02*
X0433098Y0149311D01*
X0431903Y0149900D02*
X0429101Y0149900D01*
X0428400Y0150601D01*
X0428400Y0152002D01*
X0429101Y0152702D01*
X0429101Y0154504D02*
X0428400Y0155205D01*
X0428400Y0156606D01*
X0429101Y0157306D01*
X0430502Y0157306D01*
X0431202Y0156606D01*
X0431202Y0155905D01*
X0430502Y0154504D01*
X0432604Y0154504D01*
X0432604Y0157306D01*
X0431903Y0152702D02*
X0432604Y0152002D01*
X0432604Y0150601D01*
X0431903Y0149900D01*
X0492803Y0149311D02*
X0492803Y0120689D01*
X0494400Y0122101D02*
X0495101Y0121400D01*
X0498604Y0121400D01*
X0498604Y0124202D02*
X0495101Y0124202D01*
X0494400Y0123502D01*
X0494400Y0122101D01*
X0494400Y0126004D02*
X0494400Y0128806D01*
X0494400Y0127405D02*
X0498604Y0127405D01*
X0497202Y0126004D01*
X0485785Y0127913D02*
X0485787Y0128013D01*
X0485793Y0128113D01*
X0485803Y0128212D01*
X0485817Y0128311D01*
X0485834Y0128410D01*
X0485856Y0128507D01*
X0485881Y0128604D01*
X0485910Y0128700D01*
X0485943Y0128794D01*
X0485980Y0128887D01*
X0486020Y0128978D01*
X0486064Y0129068D01*
X0486112Y0129156D01*
X0486162Y0129242D01*
X0486217Y0129326D01*
X0486274Y0129408D01*
X0486335Y0129488D01*
X0486398Y0129565D01*
X0486465Y0129639D01*
X0486535Y0129711D01*
X0486607Y0129780D01*
X0486682Y0129846D01*
X0486760Y0129909D01*
X0486840Y0129969D01*
X0486922Y0130025D01*
X0487007Y0130079D01*
X0487094Y0130129D01*
X0487182Y0130175D01*
X0487272Y0130218D01*
X0487364Y0130258D01*
X0487458Y0130293D01*
X0487552Y0130325D01*
X0487648Y0130354D01*
X0487745Y0130378D01*
X0487843Y0130399D01*
X0487941Y0130415D01*
X0488041Y0130428D01*
X0488140Y0130437D01*
X0488240Y0130442D01*
X0488340Y0130443D01*
X0488440Y0130440D01*
X0488540Y0130433D01*
X0488639Y0130422D01*
X0488738Y0130407D01*
X0488836Y0130389D01*
X0488934Y0130366D01*
X0489030Y0130340D01*
X0489125Y0130310D01*
X0489219Y0130276D01*
X0489312Y0130238D01*
X0489403Y0130197D01*
X0489492Y0130152D01*
X0489580Y0130104D01*
X0489666Y0130052D01*
X0489749Y0129997D01*
X0489830Y0129939D01*
X0489909Y0129878D01*
X0489985Y0129813D01*
X0490059Y0129746D01*
X0490130Y0129675D01*
X0490198Y0129602D01*
X0490264Y0129526D01*
X0490326Y0129448D01*
X0490385Y0129368D01*
X0490441Y0129285D01*
X0490493Y0129200D01*
X0490543Y0129113D01*
X0490588Y0129024D01*
X0490630Y0128933D01*
X0490669Y0128841D01*
X0490704Y0128747D01*
X0490735Y0128652D01*
X0490762Y0128556D01*
X0490785Y0128459D01*
X0490805Y0128361D01*
X0490821Y0128262D01*
X0490833Y0128163D01*
X0490841Y0128063D01*
X0490845Y0127963D01*
X0490845Y0127863D01*
X0490841Y0127763D01*
X0490833Y0127663D01*
X0490821Y0127564D01*
X0490805Y0127465D01*
X0490785Y0127367D01*
X0490762Y0127270D01*
X0490735Y0127174D01*
X0490704Y0127079D01*
X0490669Y0126985D01*
X0490630Y0126893D01*
X0490588Y0126802D01*
X0490543Y0126713D01*
X0490493Y0126626D01*
X0490441Y0126541D01*
X0490385Y0126458D01*
X0490326Y0126378D01*
X0490264Y0126300D01*
X0490198Y0126224D01*
X0490130Y0126151D01*
X0490059Y0126080D01*
X0489985Y0126013D01*
X0489909Y0125948D01*
X0489830Y0125887D01*
X0489749Y0125829D01*
X0489666Y0125774D01*
X0489580Y0125722D01*
X0489492Y0125674D01*
X0489403Y0125629D01*
X0489312Y0125588D01*
X0489219Y0125550D01*
X0489125Y0125516D01*
X0489030Y0125486D01*
X0488934Y0125460D01*
X0488836Y0125437D01*
X0488738Y0125419D01*
X0488639Y0125404D01*
X0488540Y0125393D01*
X0488440Y0125386D01*
X0488340Y0125383D01*
X0488240Y0125384D01*
X0488140Y0125389D01*
X0488041Y0125398D01*
X0487941Y0125411D01*
X0487843Y0125427D01*
X0487745Y0125448D01*
X0487648Y0125472D01*
X0487552Y0125501D01*
X0487458Y0125533D01*
X0487364Y0125568D01*
X0487272Y0125608D01*
X0487182Y0125651D01*
X0487094Y0125697D01*
X0487007Y0125747D01*
X0486922Y0125801D01*
X0486840Y0125857D01*
X0486760Y0125917D01*
X0486682Y0125980D01*
X0486607Y0126046D01*
X0486535Y0126115D01*
X0486465Y0126187D01*
X0486398Y0126261D01*
X0486335Y0126338D01*
X0486274Y0126418D01*
X0486217Y0126500D01*
X0486162Y0126584D01*
X0486112Y0126670D01*
X0486064Y0126758D01*
X0486020Y0126848D01*
X0485980Y0126939D01*
X0485943Y0127032D01*
X0485910Y0127126D01*
X0485881Y0127222D01*
X0485856Y0127319D01*
X0485834Y0127416D01*
X0485817Y0127515D01*
X0485803Y0127614D01*
X0485793Y0127713D01*
X0485787Y0127813D01*
X0485785Y0127913D01*
X0492894Y0161400D02*
X0492894Y0165604D01*
X0494996Y0163502D01*
X0492194Y0163502D01*
X0496798Y0164903D02*
X0497498Y0165604D01*
X0498899Y0165604D01*
X0499600Y0164903D01*
X0499600Y0162101D01*
X0498899Y0161400D01*
X0497498Y0161400D01*
X0496798Y0162101D01*
X0342412Y0178601D02*
X0341711Y0177900D01*
X0340310Y0177900D01*
X0339609Y0178601D01*
X0337808Y0177900D02*
X0335005Y0177900D01*
X0336407Y0177900D02*
X0336407Y0182104D01*
X0337808Y0180702D01*
X0339609Y0181403D02*
X0340310Y0182104D01*
X0341711Y0182104D01*
X0342412Y0181403D01*
X0342412Y0178601D01*
X0333204Y0178601D02*
X0332503Y0177900D01*
X0331102Y0177900D01*
X0330402Y0178601D01*
X0330402Y0181403D01*
X0331102Y0182104D01*
X0332503Y0182104D01*
X0333204Y0181403D01*
X0333204Y0180702D01*
X0332503Y0180002D01*
X0330402Y0180002D01*
X0327500Y0186100D02*
X0327500Y0211900D01*
X0340500Y0211900D01*
X0340500Y0186100D01*
X0327500Y0186100D01*
X0279104Y0187494D02*
X0274900Y0187494D01*
X0279104Y0184692D01*
X0274900Y0184692D01*
X0274900Y0182891D02*
X0279104Y0182891D01*
X0279104Y0180088D02*
X0274900Y0182891D01*
X0274900Y0180088D02*
X0279104Y0180088D01*
X0278403Y0178287D02*
X0279104Y0177586D01*
X0279104Y0176185D01*
X0278403Y0175484D01*
X0275601Y0175484D01*
X0274900Y0176185D01*
X0274900Y0177586D01*
X0275601Y0178287D01*
X0278403Y0178287D01*
X0278403Y0173683D02*
X0279104Y0172982D01*
X0279104Y0171581D01*
X0278403Y0170880D01*
X0275601Y0170880D01*
X0274900Y0171581D01*
X0274900Y0172982D01*
X0275601Y0173683D01*
X0275601Y0189296D02*
X0274900Y0189997D01*
X0274900Y0191398D01*
X0275601Y0192098D01*
X0276301Y0192098D01*
X0277002Y0191398D01*
X0277002Y0189296D01*
X0275601Y0189296D01*
X0277002Y0189296D02*
X0278403Y0190697D01*
X0279104Y0192098D01*
X0271516Y0195601D02*
X0270815Y0194900D01*
X0270115Y0194900D01*
X0269414Y0195601D01*
X0269414Y0199104D01*
X0270115Y0199104D02*
X0268713Y0199104D01*
X0266912Y0199104D02*
X0264109Y0199104D01*
X0265511Y0199104D02*
X0265511Y0194900D01*
X0262308Y0194900D02*
X0262308Y0197702D01*
X0260907Y0199104D01*
X0259505Y0197702D01*
X0259505Y0194900D01*
X0257704Y0195601D02*
X0257003Y0194900D01*
X0255602Y0194900D01*
X0254902Y0195601D01*
X0254902Y0197002D01*
X0256303Y0197002D01*
X0257704Y0198403D02*
X0257704Y0195601D01*
X0259505Y0197002D02*
X0262308Y0197002D01*
X0257704Y0198403D02*
X0257003Y0199104D01*
X0255602Y0199104D01*
X0254902Y0198403D01*
X0219620Y0183903D02*
X0219620Y0181101D01*
X0218919Y0180400D01*
X0217518Y0180400D01*
X0216817Y0181101D01*
X0215016Y0181101D02*
X0214315Y0180400D01*
X0212914Y0180400D01*
X0212213Y0181101D01*
X0212213Y0183903D01*
X0212914Y0184604D01*
X0214315Y0184604D01*
X0215016Y0183903D01*
X0215016Y0181101D01*
X0216817Y0183903D02*
X0217518Y0184604D01*
X0218919Y0184604D01*
X0219620Y0183903D01*
X0210412Y0184604D02*
X0207609Y0180400D01*
X0207609Y0184604D01*
X0205808Y0184604D02*
X0203006Y0180400D01*
X0203006Y0184604D01*
X0201204Y0184604D02*
X0198402Y0184604D01*
X0198402Y0183903D01*
X0201204Y0181101D01*
X0201204Y0180400D01*
X0205808Y0180400D02*
X0205808Y0184604D01*
X0210412Y0184604D02*
X0210412Y0180400D01*
X0328590Y0213400D02*
X0331392Y0213400D01*
X0328590Y0216202D01*
X0328590Y0216903D01*
X0329290Y0217604D01*
X0330692Y0217604D01*
X0331392Y0216903D01*
X0333194Y0216903D02*
X0333194Y0215502D01*
X0333894Y0214801D01*
X0335996Y0214801D01*
X0335996Y0213400D02*
X0335996Y0217604D01*
X0333894Y0217604D01*
X0333194Y0216903D01*
X0334595Y0214801D02*
X0333194Y0213400D01*
X0337798Y0214801D02*
X0337798Y0217604D01*
X0340600Y0217604D02*
X0340600Y0214801D01*
X0339199Y0213400D01*
X0337798Y0214801D01*
X0345392Y0220900D02*
X0345392Y0221601D01*
X0342590Y0224403D01*
X0342590Y0225104D01*
X0345392Y0225104D01*
X0348595Y0225104D02*
X0348595Y0220900D01*
X0349996Y0220900D02*
X0347194Y0220900D01*
X0349996Y0223702D02*
X0348595Y0225104D01*
X0351798Y0224403D02*
X0352498Y0225104D01*
X0353899Y0225104D01*
X0354600Y0224403D01*
X0354600Y0221601D01*
X0353899Y0220900D01*
X0352498Y0220900D01*
X0351798Y0221601D01*
X0352403Y0230400D02*
X0349601Y0230400D01*
X0348900Y0231101D01*
X0348900Y0232502D01*
X0349601Y0233202D01*
X0348900Y0235004D02*
X0351702Y0237806D01*
X0352403Y0237806D01*
X0353104Y0237106D01*
X0353104Y0235705D01*
X0352403Y0235004D01*
X0352403Y0233202D02*
X0353104Y0232502D01*
X0353104Y0231101D01*
X0352403Y0230400D01*
X0348900Y0235004D02*
X0348900Y0237806D01*
X0336965Y0251579D02*
X0333421Y0248035D01*
X0332634Y0248035D01*
X0336965Y0251579D02*
X0336965Y0264965D01*
X0332831Y0264965D01*
X0338900Y0264098D02*
X0338900Y0261296D01*
X0338900Y0262697D02*
X0343104Y0262697D01*
X0341702Y0261296D01*
X0342403Y0259495D02*
X0343104Y0258794D01*
X0343104Y0257393D01*
X0342403Y0256692D01*
X0339601Y0256692D01*
X0338900Y0257393D01*
X0338900Y0258794D01*
X0339601Y0259495D01*
X0324169Y0264965D02*
X0320035Y0264965D01*
X0320035Y0251579D01*
X0323579Y0248035D01*
X0324169Y0248035D01*
X0264808Y0264900D02*
X0264808Y0269104D01*
X0262706Y0269104D01*
X0262005Y0268403D01*
X0262005Y0267002D01*
X0262706Y0266301D01*
X0264808Y0266301D01*
X0263407Y0266301D02*
X0262005Y0264900D01*
X0260204Y0264900D02*
X0260204Y0265601D01*
X0257402Y0268403D01*
X0257402Y0269104D01*
X0260204Y0269104D01*
X0248604Y0271598D02*
X0247903Y0270197D01*
X0246502Y0268796D01*
X0246502Y0270898D01*
X0245801Y0271598D01*
X0245101Y0271598D01*
X0244400Y0270898D01*
X0244400Y0269497D01*
X0245101Y0268796D01*
X0246502Y0268796D01*
X0246502Y0266995D02*
X0245801Y0266294D01*
X0245801Y0264192D01*
X0244400Y0264192D02*
X0248604Y0264192D01*
X0248604Y0266294D01*
X0247903Y0266995D01*
X0246502Y0266995D01*
X0245801Y0265593D02*
X0244400Y0266995D01*
X0294090Y0280502D02*
X0296892Y0280502D01*
X0294790Y0282604D01*
X0294790Y0278400D01*
X0298694Y0278400D02*
X0301496Y0278400D01*
X0300095Y0278400D02*
X0300095Y0282604D01*
X0301496Y0281202D01*
X0303298Y0281903D02*
X0303998Y0282604D01*
X0306100Y0282604D01*
X0306100Y0278400D01*
X0303998Y0278400D01*
X0303298Y0279101D01*
X0303298Y0281903D01*
X0292378Y0285008D02*
X0292378Y0300362D01*
X0270222Y0289045D02*
X0269521Y0289745D01*
X0268120Y0289745D01*
X0267420Y0289045D01*
X0265618Y0289045D02*
X0265618Y0286242D01*
X0264918Y0285542D01*
X0263516Y0285542D01*
X0262816Y0286242D01*
X0262816Y0289045D01*
X0263516Y0289745D01*
X0264918Y0289745D01*
X0265618Y0289045D01*
X0267420Y0286242D02*
X0268120Y0285542D01*
X0269521Y0285542D01*
X0270222Y0286242D01*
X0270222Y0289045D01*
X0261014Y0289745D02*
X0258212Y0285542D01*
X0258212Y0289745D01*
X0256410Y0289745D02*
X0253608Y0285542D01*
X0253608Y0289745D01*
X0251806Y0289045D02*
X0251106Y0289745D01*
X0249705Y0289745D01*
X0249004Y0289045D01*
X0249004Y0288344D01*
X0251806Y0285542D01*
X0249004Y0285542D01*
X0256410Y0285542D02*
X0256410Y0289745D01*
X0261014Y0289745D02*
X0261014Y0285542D01*
X0292378Y0285008D02*
X0339622Y0285008D01*
X0339622Y0300362D01*
X0355400Y0299504D02*
X0358202Y0302306D01*
X0358903Y0302306D01*
X0359604Y0301606D01*
X0359604Y0300205D01*
X0358903Y0299504D01*
X0358903Y0297702D02*
X0357502Y0297702D01*
X0356801Y0297002D01*
X0356801Y0294900D01*
X0355400Y0294900D02*
X0359604Y0294900D01*
X0359604Y0297002D01*
X0358903Y0297702D01*
X0356801Y0296301D02*
X0355400Y0297702D01*
X0355400Y0299504D02*
X0355400Y0302306D01*
X0385090Y0308101D02*
X0385090Y0308801D01*
X0385790Y0309502D01*
X0387892Y0309502D01*
X0387892Y0308101D01*
X0387192Y0307400D01*
X0385790Y0307400D01*
X0385090Y0308101D01*
X0386491Y0310903D02*
X0387892Y0309502D01*
X0386491Y0310903D02*
X0385090Y0311604D01*
X0391095Y0311604D02*
X0391095Y0307400D01*
X0392496Y0307400D02*
X0389694Y0307400D01*
X0392496Y0310202D02*
X0391095Y0311604D01*
X0394298Y0310903D02*
X0394998Y0311604D01*
X0396399Y0311604D01*
X0397100Y0310903D01*
X0397100Y0308101D01*
X0396399Y0307400D01*
X0394998Y0307400D01*
X0394298Y0308101D01*
X0392104Y0297098D02*
X0392104Y0294296D01*
X0390002Y0294296D01*
X0390702Y0295697D01*
X0390702Y0296398D01*
X0390002Y0297098D01*
X0388601Y0297098D01*
X0387900Y0296398D01*
X0387900Y0294997D01*
X0388601Y0294296D01*
X0388601Y0292495D02*
X0392104Y0292495D01*
X0392104Y0289692D02*
X0388601Y0289692D01*
X0387900Y0290393D01*
X0387900Y0291794D01*
X0388601Y0292495D01*
X0339600Y0282403D02*
X0339600Y0279601D01*
X0338899Y0278900D01*
X0337498Y0278900D01*
X0336798Y0279601D01*
X0334996Y0279601D02*
X0334295Y0278900D01*
X0332894Y0278900D01*
X0332194Y0279601D01*
X0332194Y0282403D01*
X0332894Y0283104D01*
X0334295Y0283104D01*
X0334996Y0282403D01*
X0334996Y0279601D01*
X0336798Y0282403D02*
X0337498Y0283104D01*
X0338899Y0283104D01*
X0339600Y0282403D01*
X0330392Y0283104D02*
X0327590Y0278900D01*
X0327590Y0283104D01*
X0325788Y0283104D02*
X0322986Y0278900D01*
X0322986Y0283104D01*
X0321184Y0281702D02*
X0319783Y0283104D01*
X0319783Y0278900D01*
X0321184Y0278900D02*
X0318382Y0278900D01*
X0325788Y0278900D02*
X0325788Y0283104D01*
X0330392Y0283104D02*
X0330392Y0278900D01*
X0377900Y0259898D02*
X0377900Y0258497D01*
X0378601Y0257796D01*
X0381403Y0260598D01*
X0378601Y0260598D01*
X0377900Y0259898D01*
X0378601Y0257796D02*
X0381403Y0257796D01*
X0382104Y0258497D01*
X0382104Y0259898D01*
X0381403Y0260598D01*
X0377900Y0255995D02*
X0377900Y0253192D01*
X0377900Y0254593D02*
X0382104Y0254593D01*
X0380702Y0253192D01*
X0381403Y0251391D02*
X0382104Y0250690D01*
X0382104Y0249289D01*
X0381403Y0248588D01*
X0378601Y0248588D01*
X0377900Y0249289D01*
X0377900Y0250690D01*
X0378601Y0251391D01*
X0424400Y0234106D02*
X0424400Y0232705D01*
X0425101Y0232004D01*
X0424400Y0230202D02*
X0425801Y0228801D01*
X0425801Y0229502D02*
X0425801Y0227400D01*
X0424400Y0227400D02*
X0428604Y0227400D01*
X0428604Y0229502D01*
X0427903Y0230202D01*
X0426502Y0230202D01*
X0425801Y0229502D01*
X0427903Y0232004D02*
X0428604Y0232705D01*
X0428604Y0234106D01*
X0427903Y0234806D01*
X0427202Y0234806D01*
X0426502Y0234106D01*
X0425801Y0234806D01*
X0425101Y0234806D01*
X0424400Y0234106D01*
X0426502Y0234106D02*
X0426502Y0233405D01*
X0492902Y0239601D02*
X0492902Y0240301D01*
X0493602Y0241002D01*
X0495704Y0241002D01*
X0495704Y0239601D01*
X0495003Y0238900D01*
X0493602Y0238900D01*
X0492902Y0239601D01*
X0494303Y0242403D02*
X0495704Y0241002D01*
X0494303Y0242403D02*
X0492902Y0243104D01*
X0497505Y0242403D02*
X0498206Y0243104D01*
X0499607Y0243104D01*
X0500308Y0242403D01*
X0500308Y0239601D01*
X0499607Y0238900D01*
X0498206Y0238900D01*
X0497505Y0239601D01*
X0532323Y0250400D02*
X0532323Y0254604D01*
X0530221Y0254604D01*
X0529520Y0253903D01*
X0529520Y0252502D01*
X0530221Y0251801D01*
X0532323Y0251801D01*
X0534124Y0251801D02*
X0534124Y0251101D01*
X0534825Y0250400D01*
X0536226Y0250400D01*
X0536927Y0251101D01*
X0536226Y0252502D02*
X0534825Y0252502D01*
X0534124Y0251801D01*
X0534124Y0253903D02*
X0534825Y0254604D01*
X0536226Y0254604D01*
X0536927Y0253903D01*
X0536927Y0253202D01*
X0536226Y0252502D01*
X0538728Y0253903D02*
X0539429Y0254604D01*
X0540830Y0254604D01*
X0541531Y0253903D01*
X0541531Y0251101D01*
X0540830Y0250400D01*
X0539429Y0250400D01*
X0538728Y0251101D01*
X0543199Y0250400D02*
X0544600Y0250400D01*
X0543899Y0250400D02*
X0543899Y0254604D01*
X0543199Y0254604D02*
X0544600Y0254604D01*
X0525604Y0257601D02*
X0525604Y0259002D01*
X0524903Y0259702D01*
X0524903Y0261504D02*
X0522101Y0261504D01*
X0521400Y0262205D01*
X0521400Y0263606D01*
X0522101Y0264306D01*
X0524903Y0264306D01*
X0525604Y0263606D01*
X0525604Y0262205D01*
X0524903Y0261504D01*
X0522101Y0259702D02*
X0521400Y0259002D01*
X0521400Y0257601D01*
X0522101Y0256900D01*
X0524903Y0256900D01*
X0525604Y0257601D01*
X0502000Y0263000D02*
X0502000Y0290000D01*
X0501997Y0290219D01*
X0501989Y0290438D01*
X0501976Y0290657D01*
X0501957Y0290875D01*
X0501933Y0291093D01*
X0501904Y0291310D01*
X0501870Y0291527D01*
X0501830Y0291742D01*
X0501785Y0291957D01*
X0501734Y0292170D01*
X0501679Y0292382D01*
X0501618Y0292593D01*
X0501553Y0292802D01*
X0501482Y0293009D01*
X0501406Y0293215D01*
X0501325Y0293419D01*
X0501240Y0293621D01*
X0501149Y0293820D01*
X0501054Y0294017D01*
X0500953Y0294212D01*
X0500848Y0294405D01*
X0500739Y0294595D01*
X0500625Y0294782D01*
X0500506Y0294966D01*
X0500383Y0295147D01*
X0500255Y0295325D01*
X0500123Y0295501D01*
X0499987Y0295672D01*
X0499847Y0295841D01*
X0499703Y0296006D01*
X0499555Y0296167D01*
X0499403Y0296325D01*
X0499247Y0296479D01*
X0499087Y0296629D01*
X0498924Y0296776D01*
X0498757Y0296918D01*
X0498587Y0297056D01*
X0498413Y0297190D01*
X0498237Y0297320D01*
X0498057Y0297445D01*
X0497874Y0297566D01*
X0497688Y0297682D01*
X0497500Y0297794D01*
X0497309Y0297901D01*
X0497115Y0298004D01*
X0496919Y0298102D01*
X0496721Y0298195D01*
X0496520Y0298283D01*
X0496317Y0298366D01*
X0496112Y0298445D01*
X0495906Y0298518D01*
X0495698Y0298586D01*
X0495488Y0298649D01*
X0495276Y0298707D01*
X0495064Y0298760D01*
X0494850Y0298808D01*
X0494635Y0298850D01*
X0494419Y0298887D01*
X0494202Y0298919D01*
X0493984Y0298946D01*
X0493766Y0298967D01*
X0493548Y0298983D01*
X0493329Y0298994D01*
X0493110Y0298999D01*
X0492890Y0298999D01*
X0492671Y0298994D01*
X0492452Y0298983D01*
X0492234Y0298967D01*
X0492016Y0298946D01*
X0491798Y0298919D01*
X0491581Y0298887D01*
X0491365Y0298850D01*
X0491150Y0298808D01*
X0490936Y0298760D01*
X0490724Y0298707D01*
X0490512Y0298649D01*
X0490302Y0298586D01*
X0490094Y0298518D01*
X0489888Y0298445D01*
X0489683Y0298366D01*
X0489480Y0298283D01*
X0489279Y0298195D01*
X0489081Y0298102D01*
X0488885Y0298004D01*
X0488691Y0297901D01*
X0488500Y0297794D01*
X0488312Y0297682D01*
X0488126Y0297566D01*
X0487943Y0297445D01*
X0487763Y0297320D01*
X0487587Y0297190D01*
X0487413Y0297056D01*
X0487243Y0296918D01*
X0487076Y0296776D01*
X0486913Y0296629D01*
X0486753Y0296479D01*
X0486597Y0296325D01*
X0486445Y0296167D01*
X0486297Y0296006D01*
X0486153Y0295841D01*
X0486013Y0295672D01*
X0485877Y0295501D01*
X0485745Y0295325D01*
X0485617Y0295147D01*
X0485494Y0294966D01*
X0485375Y0294782D01*
X0485261Y0294595D01*
X0485152Y0294405D01*
X0485047Y0294212D01*
X0484946Y0294017D01*
X0484851Y0293820D01*
X0484760Y0293621D01*
X0484675Y0293419D01*
X0484594Y0293215D01*
X0484518Y0293009D01*
X0484447Y0292802D01*
X0484382Y0292593D01*
X0484321Y0292382D01*
X0484266Y0292170D01*
X0484215Y0291957D01*
X0484170Y0291742D01*
X0484130Y0291527D01*
X0484096Y0291310D01*
X0484067Y0291093D01*
X0484043Y0290875D01*
X0484024Y0290657D01*
X0484011Y0290438D01*
X0484003Y0290219D01*
X0484000Y0290000D01*
X0484000Y0263000D01*
X0482604Y0260905D02*
X0478400Y0260905D01*
X0478400Y0259504D02*
X0478400Y0262306D01*
X0481202Y0259504D02*
X0482604Y0260905D01*
X0482604Y0257702D02*
X0481903Y0257702D01*
X0480502Y0256301D01*
X0478400Y0256301D01*
X0480502Y0256301D02*
X0481903Y0254900D01*
X0482604Y0254900D01*
X0484000Y0263000D02*
X0484003Y0262781D01*
X0484011Y0262562D01*
X0484024Y0262343D01*
X0484043Y0262125D01*
X0484067Y0261907D01*
X0484096Y0261690D01*
X0484130Y0261473D01*
X0484170Y0261258D01*
X0484215Y0261043D01*
X0484266Y0260830D01*
X0484321Y0260618D01*
X0484382Y0260407D01*
X0484447Y0260198D01*
X0484518Y0259991D01*
X0484594Y0259785D01*
X0484675Y0259581D01*
X0484760Y0259379D01*
X0484851Y0259180D01*
X0484946Y0258983D01*
X0485047Y0258788D01*
X0485152Y0258595D01*
X0485261Y0258405D01*
X0485375Y0258218D01*
X0485494Y0258034D01*
X0485617Y0257853D01*
X0485745Y0257675D01*
X0485877Y0257499D01*
X0486013Y0257328D01*
X0486153Y0257159D01*
X0486297Y0256994D01*
X0486445Y0256833D01*
X0486597Y0256675D01*
X0486753Y0256521D01*
X0486913Y0256371D01*
X0487076Y0256224D01*
X0487243Y0256082D01*
X0487413Y0255944D01*
X0487587Y0255810D01*
X0487763Y0255680D01*
X0487943Y0255555D01*
X0488126Y0255434D01*
X0488312Y0255318D01*
X0488500Y0255206D01*
X0488691Y0255099D01*
X0488885Y0254996D01*
X0489081Y0254898D01*
X0489279Y0254805D01*
X0489480Y0254717D01*
X0489683Y0254634D01*
X0489888Y0254555D01*
X0490094Y0254482D01*
X0490302Y0254414D01*
X0490512Y0254351D01*
X0490724Y0254293D01*
X0490936Y0254240D01*
X0491150Y0254192D01*
X0491365Y0254150D01*
X0491581Y0254113D01*
X0491798Y0254081D01*
X0492016Y0254054D01*
X0492234Y0254033D01*
X0492452Y0254017D01*
X0492671Y0254006D01*
X0492890Y0254001D01*
X0493110Y0254001D01*
X0493329Y0254006D01*
X0493548Y0254017D01*
X0493766Y0254033D01*
X0493984Y0254054D01*
X0494202Y0254081D01*
X0494419Y0254113D01*
X0494635Y0254150D01*
X0494850Y0254192D01*
X0495064Y0254240D01*
X0495276Y0254293D01*
X0495488Y0254351D01*
X0495698Y0254414D01*
X0495906Y0254482D01*
X0496112Y0254555D01*
X0496317Y0254634D01*
X0496520Y0254717D01*
X0496721Y0254805D01*
X0496919Y0254898D01*
X0497115Y0254996D01*
X0497309Y0255099D01*
X0497500Y0255206D01*
X0497688Y0255318D01*
X0497874Y0255434D01*
X0498057Y0255555D01*
X0498237Y0255680D01*
X0498413Y0255810D01*
X0498587Y0255944D01*
X0498757Y0256082D01*
X0498924Y0256224D01*
X0499087Y0256371D01*
X0499247Y0256521D01*
X0499403Y0256675D01*
X0499555Y0256833D01*
X0499703Y0256994D01*
X0499847Y0257159D01*
X0499987Y0257328D01*
X0500123Y0257499D01*
X0500255Y0257675D01*
X0500383Y0257853D01*
X0500506Y0258034D01*
X0500625Y0258218D01*
X0500739Y0258405D01*
X0500848Y0258595D01*
X0500953Y0258788D01*
X0501054Y0258983D01*
X0501149Y0259180D01*
X0501240Y0259379D01*
X0501325Y0259581D01*
X0501406Y0259785D01*
X0501482Y0259991D01*
X0501553Y0260198D01*
X0501618Y0260407D01*
X0501679Y0260618D01*
X0501734Y0260830D01*
X0501785Y0261043D01*
X0501830Y0261258D01*
X0501870Y0261473D01*
X0501904Y0261690D01*
X0501933Y0261907D01*
X0501957Y0262125D01*
X0501976Y0262343D01*
X0501989Y0262562D01*
X0501997Y0262781D01*
X0502000Y0263000D01*
X0521400Y0266108D02*
X0525604Y0266108D01*
X0521400Y0268910D01*
X0525604Y0268910D01*
X0525604Y0270712D02*
X0521400Y0273514D01*
X0525604Y0273514D01*
X0524903Y0275316D02*
X0525604Y0276016D01*
X0525604Y0277417D01*
X0524903Y0278118D01*
X0524202Y0278118D01*
X0523502Y0277417D01*
X0522801Y0278118D01*
X0522101Y0278118D01*
X0521400Y0277417D01*
X0521400Y0276016D01*
X0522101Y0275316D01*
X0523502Y0276717D02*
X0523502Y0277417D01*
X0521400Y0270712D02*
X0525604Y0270712D01*
X0476308Y0278601D02*
X0475607Y0277900D01*
X0474206Y0277900D01*
X0473505Y0278601D01*
X0471704Y0278601D02*
X0471704Y0279301D01*
X0471003Y0280002D01*
X0469602Y0280002D01*
X0468902Y0279301D01*
X0468902Y0278601D01*
X0469602Y0277900D01*
X0471003Y0277900D01*
X0471704Y0278601D01*
X0471003Y0280002D02*
X0471704Y0280702D01*
X0471704Y0281403D01*
X0471003Y0282104D01*
X0469602Y0282104D01*
X0468902Y0281403D01*
X0468902Y0280702D01*
X0469602Y0280002D01*
X0473505Y0281403D02*
X0474206Y0282104D01*
X0475607Y0282104D01*
X0476308Y0281403D01*
X0476308Y0278601D01*
X0474100Y0300900D02*
X0474100Y0305104D01*
X0471998Y0305104D01*
X0471298Y0304403D01*
X0471298Y0303002D01*
X0471998Y0302301D01*
X0474100Y0302301D01*
X0472699Y0302301D02*
X0471298Y0300900D01*
X0469496Y0300900D02*
X0466694Y0300900D01*
X0468095Y0300900D02*
X0468095Y0305104D01*
X0469496Y0303702D01*
X0465403Y0311400D02*
X0462601Y0311400D01*
X0461900Y0312101D01*
X0461900Y0313502D01*
X0462601Y0314202D01*
X0461900Y0316004D02*
X0461900Y0318806D01*
X0461900Y0317405D02*
X0466104Y0317405D01*
X0464702Y0316004D01*
X0465403Y0314202D02*
X0466104Y0313502D01*
X0466104Y0312101D01*
X0465403Y0311400D01*
X0460104Y0312101D02*
X0459403Y0311400D01*
X0456601Y0311400D01*
X0455900Y0312101D01*
X0455900Y0313502D01*
X0456601Y0314202D01*
X0456601Y0316004D02*
X0455900Y0316705D01*
X0455900Y0318106D01*
X0456601Y0318806D01*
X0457301Y0318806D01*
X0458002Y0318106D01*
X0458002Y0317405D01*
X0458002Y0318106D02*
X0458702Y0318806D01*
X0459403Y0318806D01*
X0460104Y0318106D01*
X0460104Y0316705D01*
X0459403Y0316004D01*
X0459403Y0314202D02*
X0460104Y0313502D01*
X0460104Y0312101D01*
X0454104Y0311400D02*
X0454104Y0313502D01*
X0453403Y0314202D01*
X0452002Y0314202D01*
X0451301Y0313502D01*
X0451301Y0311400D01*
X0449900Y0311400D02*
X0454104Y0311400D01*
X0451301Y0312801D02*
X0449900Y0314202D01*
X0448104Y0313502D02*
X0447403Y0314202D01*
X0446002Y0314202D01*
X0445301Y0313502D01*
X0445301Y0311400D01*
X0443900Y0311400D02*
X0448104Y0311400D01*
X0448104Y0313502D01*
X0448104Y0316004D02*
X0446002Y0316004D01*
X0446702Y0317405D01*
X0446702Y0318106D01*
X0446002Y0318806D01*
X0444601Y0318806D01*
X0443900Y0318106D01*
X0443900Y0316705D01*
X0444601Y0316004D01*
X0443900Y0314202D02*
X0445301Y0312801D01*
X0442104Y0312101D02*
X0441403Y0311400D01*
X0438601Y0311400D01*
X0437900Y0312101D01*
X0437900Y0313502D01*
X0438601Y0314202D01*
X0437900Y0316004D02*
X0437900Y0318806D01*
X0437900Y0317405D02*
X0442104Y0317405D01*
X0440702Y0316004D01*
X0441403Y0314202D02*
X0442104Y0313502D01*
X0442104Y0312101D01*
X0448104Y0316004D02*
X0448104Y0318806D01*
X0449900Y0318106D02*
X0454104Y0318106D01*
X0452002Y0316004D01*
X0452002Y0318806D01*
X0461900Y0321308D02*
X0462601Y0320608D01*
X0461900Y0321308D02*
X0461900Y0322710D01*
X0462601Y0323410D01*
X0464002Y0323410D01*
X0464702Y0322710D01*
X0464702Y0322009D01*
X0464002Y0320608D01*
X0466104Y0320608D01*
X0466104Y0323410D01*
X0442104Y0322710D02*
X0441403Y0323410D01*
X0440702Y0323410D01*
X0440002Y0322710D01*
X0439301Y0323410D01*
X0438601Y0323410D01*
X0437900Y0322710D01*
X0437900Y0321308D01*
X0438601Y0320608D01*
X0440002Y0322009D02*
X0440002Y0322710D01*
X0442104Y0322710D02*
X0442104Y0321308D01*
X0441403Y0320608D01*
X0492402Y0313604D02*
X0492402Y0312903D01*
X0495204Y0310101D01*
X0495204Y0309400D01*
X0497005Y0310101D02*
X0497706Y0309400D01*
X0499107Y0309400D01*
X0499808Y0310101D01*
X0499808Y0312903D01*
X0499107Y0313604D01*
X0497706Y0313604D01*
X0497005Y0312903D01*
X0495204Y0313604D02*
X0492402Y0313604D01*
X0357600Y0322900D02*
X0355498Y0322900D01*
X0354798Y0323601D01*
X0354798Y0326403D01*
X0355498Y0327104D01*
X0357600Y0327104D01*
X0357600Y0322900D01*
X0352996Y0322900D02*
X0352996Y0323601D01*
X0350194Y0326403D01*
X0350194Y0327104D01*
X0352996Y0327104D01*
X0171104Y0327009D02*
X0166900Y0327009D01*
X0166900Y0325608D02*
X0166900Y0328410D01*
X0169702Y0325608D02*
X0171104Y0327009D01*
X0171104Y0323806D02*
X0166900Y0323806D01*
X0168301Y0322405D01*
X0166900Y0321004D01*
X0171104Y0321004D01*
X0170403Y0319202D02*
X0171104Y0318502D01*
X0171104Y0317101D01*
X0170403Y0316400D01*
X0169702Y0316400D01*
X0169002Y0317101D01*
X0169002Y0318502D01*
X0168301Y0319202D01*
X0167601Y0319202D01*
X0166900Y0318502D01*
X0166900Y0317101D01*
X0167601Y0316400D01*
X0405000Y0055000D02*
X0507000Y0055000D01*
X0507000Y0017000D01*
X0405000Y0017000D01*
X0405000Y0055000D01*
X0503740Y0020323D02*
X0505315Y0020323D01*
X0504528Y0018748D01*
X0503740Y0020323D01*
X0504118Y0019567D02*
X0504937Y0019567D01*
X0504538Y0018769D02*
X0504517Y0018769D01*
X0505498Y0015604D02*
X0506899Y0015604D01*
X0507600Y0014903D01*
X0507600Y0012101D01*
X0506899Y0011400D01*
X0505498Y0011400D01*
X0504798Y0012101D01*
X0502996Y0012101D02*
X0502295Y0011400D01*
X0500894Y0011400D01*
X0500194Y0012101D01*
X0500194Y0014903D01*
X0500894Y0015604D01*
X0502295Y0015604D01*
X0502996Y0014903D01*
X0502996Y0012101D01*
X0504798Y0014903D02*
X0505498Y0015604D01*
X0498392Y0015604D02*
X0495590Y0011400D01*
X0495590Y0015604D01*
X0493788Y0015604D02*
X0490986Y0011400D01*
X0490986Y0015604D01*
X0489184Y0013502D02*
X0487083Y0015604D01*
X0487083Y0011400D01*
X0486382Y0013502D02*
X0489184Y0013502D01*
X0493788Y0011400D02*
X0493788Y0015604D01*
X0498392Y0015604D02*
X0498392Y0011400D01*
D13*
X0214250Y0203700D02*
X0213800Y0203250D01*
X0212899Y0203250D01*
X0212448Y0203700D01*
X0212448Y0204601D01*
X0212899Y0205052D01*
X0213349Y0205052D01*
X0214250Y0204601D01*
X0214250Y0205952D01*
X0212448Y0205952D01*
X0211303Y0205952D02*
X0211303Y0204151D01*
X0210403Y0203250D01*
X0209502Y0204151D01*
X0209502Y0205952D01*
X0206567Y0209750D02*
X0207017Y0210200D01*
X0206567Y0209750D02*
X0205666Y0209750D01*
X0205216Y0210200D01*
X0205216Y0210651D01*
X0205666Y0211101D01*
X0206567Y0211101D01*
X0207017Y0211552D01*
X0207017Y0212002D01*
X0206567Y0212452D01*
X0205666Y0212452D01*
X0205216Y0212002D01*
X0204071Y0212452D02*
X0204071Y0209750D01*
X0202269Y0209750D01*
X0201124Y0209750D02*
X0199323Y0209750D01*
X0198178Y0209750D02*
X0196376Y0209750D01*
X0195231Y0210200D02*
X0194781Y0209750D01*
X0193880Y0209750D01*
X0193430Y0210200D01*
X0195231Y0210200D02*
X0195231Y0212002D01*
X0194781Y0212452D01*
X0193880Y0212452D01*
X0193430Y0212002D01*
X0192285Y0212452D02*
X0190483Y0212452D01*
X0191384Y0212452D02*
X0191384Y0209750D01*
X0196555Y0208002D02*
X0196555Y0207552D01*
X0197006Y0207101D01*
X0196555Y0206651D01*
X0196555Y0206200D01*
X0197006Y0205750D01*
X0197907Y0205750D01*
X0198357Y0206200D01*
X0199502Y0206651D02*
X0199502Y0208452D01*
X0198357Y0208002D02*
X0197907Y0208452D01*
X0197006Y0208452D01*
X0196555Y0208002D01*
X0197006Y0207101D02*
X0197456Y0207101D01*
X0199502Y0206651D02*
X0200403Y0205750D01*
X0201303Y0206651D01*
X0201303Y0208452D01*
X0202448Y0208002D02*
X0202448Y0207552D01*
X0202899Y0207101D01*
X0202448Y0206651D01*
X0202448Y0206200D01*
X0202899Y0205750D01*
X0203800Y0205750D01*
X0204250Y0206200D01*
X0203349Y0207101D02*
X0202899Y0207101D01*
X0202448Y0208002D02*
X0202899Y0208452D01*
X0203800Y0208452D01*
X0204250Y0208002D01*
X0204071Y0211101D02*
X0203170Y0211101D01*
X0202269Y0212452D02*
X0204071Y0212452D01*
X0201124Y0212452D02*
X0201124Y0209750D01*
X0198178Y0209750D02*
X0198178Y0212452D01*
X0196376Y0212452D01*
X0197277Y0211101D02*
X0198178Y0211101D01*
X0211109Y0212452D02*
X0212910Y0212452D01*
X0212910Y0209750D01*
X0214055Y0209750D02*
X0215857Y0209750D01*
X0215857Y0212452D01*
X0214055Y0212452D01*
X0214956Y0211101D02*
X0215857Y0211101D01*
X0217002Y0211101D02*
X0217452Y0210651D01*
X0218803Y0210651D01*
X0217903Y0210651D02*
X0217002Y0209750D01*
X0217002Y0211101D02*
X0217002Y0212002D01*
X0217452Y0212452D01*
X0218803Y0212452D01*
X0218803Y0209750D01*
X0219948Y0209750D02*
X0219948Y0211552D01*
X0220849Y0212452D01*
X0221750Y0211552D01*
X0221750Y0209750D01*
X0221750Y0211101D02*
X0219948Y0211101D01*
X0212910Y0211101D02*
X0212010Y0211101D01*
X0363000Y0316500D02*
X0363000Y0322500D01*
D14*
X0224000Y0216000D02*
X0189000Y0216000D01*
X0189000Y0178500D01*
X0224000Y0178500D01*
X0224000Y0216000D01*
X0206500Y0204000D02*
X0206500Y0201500D01*
X0216500Y0201500D01*
X0216500Y0198000D01*
X0206500Y0197500D02*
X0206500Y0201500D01*
X0206500Y0204000D02*
X0196000Y0204000D01*
X0196000Y0197500D01*
D15*
X0405306Y0271650D02*
X0407424Y0271650D01*
X0407424Y0273768D01*
X0405306Y0273768D01*
X0405306Y0271650D01*
X0421236Y0271650D02*
X0421236Y0284361D01*
X0414881Y0284361D01*
X0412762Y0282242D01*
X0412762Y0278005D01*
X0414881Y0275887D01*
X0421236Y0275887D01*
X0426024Y0273768D02*
X0426024Y0271650D01*
X0428142Y0271650D01*
X0428142Y0273768D01*
X0426024Y0273768D01*
X0433113Y0271650D02*
X0437350Y0271650D01*
X0435232Y0271650D02*
X0435232Y0284361D01*
X0437350Y0284361D02*
X0433113Y0284361D01*
D16*
X0324600Y0263215D02*
X0324869Y0262747D01*
X0324718Y0262657D01*
X0324569Y0262564D01*
X0324423Y0262466D01*
X0324280Y0262366D01*
X0324139Y0262261D01*
X0324000Y0262154D01*
X0323864Y0262043D01*
X0323731Y0261929D01*
X0323600Y0261811D01*
X0323473Y0261691D01*
X0323348Y0261567D01*
X0323227Y0261440D01*
X0323108Y0261311D01*
X0322993Y0261179D01*
X0322881Y0261043D01*
X0322772Y0260906D01*
X0322667Y0260765D01*
X0322565Y0260622D01*
X0322467Y0260477D01*
X0322372Y0260329D01*
X0322281Y0260180D01*
X0322193Y0260027D01*
X0322110Y0259873D01*
X0322030Y0259717D01*
X0321953Y0259559D01*
X0321881Y0259399D01*
X0321813Y0259238D01*
X0321748Y0259074D01*
X0321688Y0258910D01*
X0321631Y0258744D01*
X0321579Y0258576D01*
X0321530Y0258407D01*
X0321486Y0258238D01*
X0321446Y0258067D01*
X0321410Y0257895D01*
X0321378Y0257722D01*
X0321351Y0257549D01*
X0321327Y0257375D01*
X0321308Y0257201D01*
X0321293Y0257026D01*
X0321283Y0256851D01*
X0321276Y0256675D01*
X0321274Y0256500D01*
X0321276Y0256325D01*
X0321283Y0256149D01*
X0321293Y0255974D01*
X0321308Y0255799D01*
X0321327Y0255625D01*
X0321351Y0255451D01*
X0321378Y0255278D01*
X0321410Y0255105D01*
X0321446Y0254933D01*
X0321486Y0254762D01*
X0321530Y0254593D01*
X0321579Y0254424D01*
X0321631Y0254256D01*
X0321688Y0254090D01*
X0321748Y0253926D01*
X0321813Y0253762D01*
X0321881Y0253601D01*
X0321953Y0253441D01*
X0322030Y0253283D01*
X0322110Y0253127D01*
X0322193Y0252973D01*
X0322281Y0252820D01*
X0322372Y0252671D01*
X0322467Y0252523D01*
X0322565Y0252378D01*
X0322667Y0252235D01*
X0322772Y0252094D01*
X0322881Y0251957D01*
X0322993Y0251821D01*
X0323108Y0251689D01*
X0323227Y0251560D01*
X0323348Y0251433D01*
X0323473Y0251309D01*
X0323600Y0251189D01*
X0323731Y0251071D01*
X0323864Y0250957D01*
X0324000Y0250846D01*
X0324139Y0250739D01*
X0324280Y0250634D01*
X0324423Y0250534D01*
X0324569Y0250436D01*
X0324718Y0250343D01*
X0324869Y0250253D01*
X0324600Y0249785D01*
X0324599Y0249785D01*
X0324437Y0249882D01*
X0324278Y0249982D01*
X0324120Y0250087D01*
X0323966Y0250195D01*
X0323814Y0250307D01*
X0323665Y0250423D01*
X0323519Y0250542D01*
X0323376Y0250665D01*
X0323236Y0250791D01*
X0323098Y0250920D01*
X0322964Y0251053D01*
X0322834Y0251189D01*
X0322706Y0251328D01*
X0322583Y0251471D01*
X0322462Y0251616D01*
X0322345Y0251764D01*
X0322232Y0251915D01*
X0322123Y0252068D01*
X0322017Y0252225D01*
X0321915Y0252383D01*
X0321817Y0252545D01*
X0321723Y0252708D01*
X0321633Y0252874D01*
X0321547Y0253042D01*
X0321465Y0253212D01*
X0321387Y0253383D01*
X0321313Y0253557D01*
X0321244Y0253732D01*
X0321179Y0253910D01*
X0321118Y0254088D01*
X0321062Y0254268D01*
X0321010Y0254449D01*
X0320962Y0254632D01*
X0320919Y0254816D01*
X0320880Y0255000D01*
X0320846Y0255186D01*
X0320816Y0255372D01*
X0320791Y0255559D01*
X0320771Y0255747D01*
X0320755Y0255935D01*
X0320743Y0256123D01*
X0320736Y0256311D01*
X0320734Y0256500D01*
X0320736Y0256689D01*
X0320743Y0256877D01*
X0320755Y0257065D01*
X0320771Y0257253D01*
X0320791Y0257441D01*
X0320816Y0257628D01*
X0320846Y0257814D01*
X0320880Y0258000D01*
X0320919Y0258184D01*
X0320962Y0258368D01*
X0321010Y0258551D01*
X0321062Y0258732D01*
X0321118Y0258912D01*
X0321179Y0259090D01*
X0321244Y0259268D01*
X0321313Y0259443D01*
X0321387Y0259617D01*
X0321465Y0259788D01*
X0321547Y0259958D01*
X0321633Y0260126D01*
X0321723Y0260292D01*
X0321817Y0260455D01*
X0321915Y0260617D01*
X0322017Y0260775D01*
X0322123Y0260932D01*
X0322232Y0261085D01*
X0322345Y0261236D01*
X0322462Y0261384D01*
X0322583Y0261529D01*
X0322706Y0261672D01*
X0322834Y0261811D01*
X0322964Y0261947D01*
X0323098Y0262080D01*
X0323236Y0262209D01*
X0323376Y0262335D01*
X0323519Y0262458D01*
X0323665Y0262577D01*
X0323814Y0262693D01*
X0323966Y0262805D01*
X0324120Y0262913D01*
X0324278Y0263018D01*
X0324437Y0263118D01*
X0324599Y0263215D01*
X0324627Y0263167D01*
X0324466Y0263071D01*
X0324308Y0262971D01*
X0324152Y0262867D01*
X0323999Y0262759D01*
X0323848Y0262648D01*
X0323700Y0262533D01*
X0323555Y0262415D01*
X0323413Y0262293D01*
X0323273Y0262168D01*
X0323137Y0262039D01*
X0323004Y0261907D01*
X0322875Y0261772D01*
X0322748Y0261634D01*
X0322625Y0261493D01*
X0322506Y0261349D01*
X0322390Y0261202D01*
X0322277Y0261052D01*
X0322168Y0260900D01*
X0322063Y0260744D01*
X0321962Y0260587D01*
X0321865Y0260427D01*
X0321772Y0260265D01*
X0321682Y0260100D01*
X0321597Y0259933D01*
X0321515Y0259765D01*
X0321438Y0259594D01*
X0321365Y0259422D01*
X0321296Y0259247D01*
X0321232Y0259072D01*
X0321171Y0258894D01*
X0321115Y0258716D01*
X0321064Y0258536D01*
X0321016Y0258354D01*
X0320974Y0258172D01*
X0320935Y0257989D01*
X0320901Y0257805D01*
X0320872Y0257620D01*
X0320847Y0257434D01*
X0320826Y0257248D01*
X0320810Y0257061D01*
X0320799Y0256874D01*
X0320792Y0256687D01*
X0320790Y0256500D01*
X0320792Y0256313D01*
X0320799Y0256126D01*
X0320810Y0255939D01*
X0320826Y0255752D01*
X0320847Y0255566D01*
X0320872Y0255380D01*
X0320901Y0255195D01*
X0320935Y0255011D01*
X0320974Y0254828D01*
X0321016Y0254646D01*
X0321064Y0254464D01*
X0321115Y0254284D01*
X0321171Y0254106D01*
X0321232Y0253928D01*
X0321296Y0253753D01*
X0321365Y0253578D01*
X0321438Y0253406D01*
X0321515Y0253235D01*
X0321597Y0253067D01*
X0321682Y0252900D01*
X0321772Y0252735D01*
X0321865Y0252573D01*
X0321962Y0252413D01*
X0322063Y0252256D01*
X0322168Y0252100D01*
X0322277Y0251948D01*
X0322390Y0251798D01*
X0322506Y0251651D01*
X0322625Y0251507D01*
X0322748Y0251366D01*
X0322875Y0251228D01*
X0323004Y0251093D01*
X0323137Y0250961D01*
X0323273Y0250832D01*
X0323413Y0250707D01*
X0323555Y0250585D01*
X0323700Y0250467D01*
X0323848Y0250352D01*
X0323999Y0250241D01*
X0324152Y0250133D01*
X0324308Y0250029D01*
X0324466Y0249929D01*
X0324627Y0249833D01*
X0324655Y0249882D01*
X0324495Y0249977D01*
X0324338Y0250076D01*
X0324183Y0250179D01*
X0324031Y0250286D01*
X0323881Y0250396D01*
X0323735Y0250510D01*
X0323591Y0250628D01*
X0323449Y0250749D01*
X0323311Y0250873D01*
X0323176Y0251001D01*
X0323044Y0251132D01*
X0322915Y0251266D01*
X0322790Y0251403D01*
X0322668Y0251543D01*
X0322549Y0251686D01*
X0322434Y0251832D01*
X0322322Y0251981D01*
X0322214Y0252133D01*
X0322110Y0252286D01*
X0322010Y0252443D01*
X0321913Y0252602D01*
X0321820Y0252763D01*
X0321732Y0252926D01*
X0321647Y0253092D01*
X0321566Y0253259D01*
X0321489Y0253428D01*
X0321417Y0253600D01*
X0321348Y0253773D01*
X0321284Y0253947D01*
X0321224Y0254123D01*
X0321169Y0254300D01*
X0321118Y0254479D01*
X0321071Y0254659D01*
X0321028Y0254840D01*
X0320990Y0255022D01*
X0320956Y0255205D01*
X0320927Y0255388D01*
X0320902Y0255573D01*
X0320882Y0255758D01*
X0320866Y0255943D01*
X0320855Y0256128D01*
X0320848Y0256314D01*
X0320846Y0256500D01*
X0320848Y0256686D01*
X0320855Y0256872D01*
X0320866Y0257057D01*
X0320882Y0257242D01*
X0320902Y0257427D01*
X0320927Y0257612D01*
X0320956Y0257795D01*
X0320990Y0257978D01*
X0321028Y0258160D01*
X0321071Y0258341D01*
X0321118Y0258521D01*
X0321169Y0258700D01*
X0321224Y0258877D01*
X0321284Y0259053D01*
X0321348Y0259227D01*
X0321417Y0259400D01*
X0321489Y0259572D01*
X0321566Y0259741D01*
X0321647Y0259908D01*
X0321732Y0260074D01*
X0321820Y0260237D01*
X0321913Y0260398D01*
X0322010Y0260557D01*
X0322110Y0260714D01*
X0322214Y0260867D01*
X0322322Y0261019D01*
X0322434Y0261168D01*
X0322549Y0261314D01*
X0322668Y0261457D01*
X0322790Y0261597D01*
X0322915Y0261734D01*
X0323044Y0261868D01*
X0323176Y0261999D01*
X0323311Y0262127D01*
X0323449Y0262251D01*
X0323591Y0262372D01*
X0323735Y0262490D01*
X0323881Y0262604D01*
X0324031Y0262714D01*
X0324183Y0262821D01*
X0324338Y0262924D01*
X0324495Y0263023D01*
X0324655Y0263118D01*
X0324683Y0263070D01*
X0324524Y0262975D01*
X0324368Y0262876D01*
X0324215Y0262774D01*
X0324064Y0262668D01*
X0323915Y0262559D01*
X0323769Y0262446D01*
X0323626Y0262329D01*
X0323486Y0262209D01*
X0323349Y0262085D01*
X0323215Y0261959D01*
X0323084Y0261829D01*
X0322956Y0261696D01*
X0322831Y0261559D01*
X0322710Y0261420D01*
X0322592Y0261278D01*
X0322478Y0261133D01*
X0322367Y0260986D01*
X0322260Y0260835D01*
X0322157Y0260683D01*
X0322057Y0260527D01*
X0321961Y0260370D01*
X0321869Y0260210D01*
X0321781Y0260048D01*
X0321697Y0259883D01*
X0321617Y0259717D01*
X0321541Y0259549D01*
X0321469Y0259379D01*
X0321401Y0259207D01*
X0321337Y0259034D01*
X0321278Y0258859D01*
X0321222Y0258683D01*
X0321172Y0258506D01*
X0321125Y0258327D01*
X0321083Y0258148D01*
X0321045Y0257967D01*
X0321012Y0257786D01*
X0320983Y0257603D01*
X0320958Y0257420D01*
X0320938Y0257237D01*
X0320922Y0257053D01*
X0320911Y0256869D01*
X0320904Y0256685D01*
X0320902Y0256500D01*
X0320904Y0256315D01*
X0320911Y0256131D01*
X0320922Y0255947D01*
X0320938Y0255763D01*
X0320958Y0255580D01*
X0320983Y0255397D01*
X0321012Y0255214D01*
X0321045Y0255033D01*
X0321083Y0254852D01*
X0321125Y0254673D01*
X0321172Y0254494D01*
X0321222Y0254317D01*
X0321278Y0254141D01*
X0321337Y0253966D01*
X0321401Y0253793D01*
X0321469Y0253621D01*
X0321541Y0253451D01*
X0321617Y0253283D01*
X0321697Y0253117D01*
X0321781Y0252952D01*
X0321869Y0252790D01*
X0321961Y0252630D01*
X0322057Y0252473D01*
X0322157Y0252317D01*
X0322260Y0252165D01*
X0322367Y0252014D01*
X0322478Y0251867D01*
X0322592Y0251722D01*
X0322710Y0251580D01*
X0322831Y0251441D01*
X0322956Y0251304D01*
X0323084Y0251171D01*
X0323215Y0251041D01*
X0323349Y0250915D01*
X0323486Y0250791D01*
X0323626Y0250671D01*
X0323769Y0250554D01*
X0323915Y0250441D01*
X0324064Y0250332D01*
X0324215Y0250226D01*
X0324368Y0250124D01*
X0324524Y0250025D01*
X0324683Y0249930D01*
X0324711Y0249979D01*
X0324554Y0250073D01*
X0324399Y0250171D01*
X0324246Y0250272D01*
X0324096Y0250377D01*
X0323949Y0250486D01*
X0323804Y0250598D01*
X0323662Y0250714D01*
X0323523Y0250833D01*
X0323387Y0250956D01*
X0323254Y0251082D01*
X0323124Y0251211D01*
X0322997Y0251343D01*
X0322873Y0251478D01*
X0322753Y0251616D01*
X0322636Y0251757D01*
X0322522Y0251901D01*
X0322413Y0252047D01*
X0322306Y0252197D01*
X0322204Y0252348D01*
X0322105Y0252502D01*
X0322009Y0252659D01*
X0321918Y0252818D01*
X0321831Y0252979D01*
X0321747Y0253142D01*
X0321667Y0253307D01*
X0321592Y0253474D01*
X0321520Y0253642D01*
X0321453Y0253813D01*
X0321390Y0253985D01*
X0321331Y0254158D01*
X0321276Y0254333D01*
X0321226Y0254509D01*
X0321179Y0254686D01*
X0321137Y0254864D01*
X0321100Y0255044D01*
X0321067Y0255224D01*
X0321038Y0255405D01*
X0321014Y0255586D01*
X0320994Y0255768D01*
X0320978Y0255951D01*
X0320967Y0256134D01*
X0320960Y0256317D01*
X0320958Y0256500D01*
X0320960Y0256683D01*
X0320967Y0256866D01*
X0320978Y0257049D01*
X0320994Y0257232D01*
X0321014Y0257414D01*
X0321038Y0257595D01*
X0321067Y0257776D01*
X0321100Y0257956D01*
X0321137Y0258136D01*
X0321179Y0258314D01*
X0321226Y0258491D01*
X0321276Y0258667D01*
X0321331Y0258842D01*
X0321390Y0259015D01*
X0321453Y0259187D01*
X0321520Y0259358D01*
X0321592Y0259526D01*
X0321667Y0259693D01*
X0321747Y0259858D01*
X0321831Y0260021D01*
X0321918Y0260182D01*
X0322009Y0260341D01*
X0322105Y0260498D01*
X0322204Y0260652D01*
X0322306Y0260803D01*
X0322413Y0260953D01*
X0322522Y0261099D01*
X0322636Y0261243D01*
X0322753Y0261384D01*
X0322873Y0261522D01*
X0322997Y0261657D01*
X0323124Y0261789D01*
X0323254Y0261918D01*
X0323387Y0262044D01*
X0323523Y0262167D01*
X0323662Y0262286D01*
X0323804Y0262402D01*
X0323949Y0262514D01*
X0324096Y0262623D01*
X0324246Y0262728D01*
X0324399Y0262829D01*
X0324554Y0262927D01*
X0324711Y0263021D01*
X0324739Y0262973D01*
X0324583Y0262879D01*
X0324429Y0262782D01*
X0324278Y0262682D01*
X0324129Y0262577D01*
X0323982Y0262469D01*
X0323839Y0262358D01*
X0323698Y0262243D01*
X0323560Y0262124D01*
X0323425Y0262003D01*
X0323293Y0261878D01*
X0323163Y0261750D01*
X0323038Y0261619D01*
X0322915Y0261485D01*
X0322795Y0261347D01*
X0322679Y0261208D01*
X0322567Y0261065D01*
X0322458Y0260919D01*
X0322352Y0260771D01*
X0322250Y0260621D01*
X0322152Y0260468D01*
X0322057Y0260312D01*
X0321967Y0260155D01*
X0321880Y0259995D01*
X0321797Y0259833D01*
X0321718Y0259670D01*
X0321643Y0259504D01*
X0321572Y0259336D01*
X0321505Y0259167D01*
X0321443Y0258997D01*
X0321384Y0258825D01*
X0321330Y0258651D01*
X0321280Y0258476D01*
X0321234Y0258300D01*
X0321192Y0258123D01*
X0321155Y0257945D01*
X0321122Y0257767D01*
X0321093Y0257587D01*
X0321069Y0257407D01*
X0321049Y0257226D01*
X0321034Y0257045D01*
X0321023Y0256863D01*
X0321016Y0256682D01*
X0321014Y0256500D01*
X0321016Y0256318D01*
X0321023Y0256137D01*
X0321034Y0255955D01*
X0321049Y0255774D01*
X0321069Y0255593D01*
X0321093Y0255413D01*
X0321122Y0255233D01*
X0321155Y0255055D01*
X0321192Y0254877D01*
X0321234Y0254700D01*
X0321280Y0254524D01*
X0321330Y0254349D01*
X0321384Y0254175D01*
X0321443Y0254003D01*
X0321505Y0253833D01*
X0321572Y0253664D01*
X0321643Y0253496D01*
X0321718Y0253330D01*
X0321797Y0253167D01*
X0321880Y0253005D01*
X0321967Y0252845D01*
X0322057Y0252688D01*
X0322152Y0252532D01*
X0322250Y0252379D01*
X0322352Y0252229D01*
X0322458Y0252081D01*
X0322567Y0251935D01*
X0322679Y0251792D01*
X0322795Y0251653D01*
X0322915Y0251515D01*
X0323038Y0251381D01*
X0323163Y0251250D01*
X0323293Y0251122D01*
X0323425Y0250997D01*
X0323560Y0250876D01*
X0323698Y0250757D01*
X0323839Y0250642D01*
X0323982Y0250531D01*
X0324129Y0250423D01*
X0324278Y0250318D01*
X0324429Y0250218D01*
X0324583Y0250121D01*
X0324739Y0250027D01*
X0324767Y0250076D01*
X0324612Y0250169D01*
X0324459Y0250265D01*
X0324309Y0250365D01*
X0324161Y0250468D01*
X0324016Y0250576D01*
X0323873Y0250686D01*
X0323734Y0250800D01*
X0323597Y0250918D01*
X0323463Y0251038D01*
X0323331Y0251162D01*
X0323203Y0251289D01*
X0323078Y0251420D01*
X0322957Y0251553D01*
X0322838Y0251689D01*
X0322723Y0251828D01*
X0322611Y0251969D01*
X0322503Y0252114D01*
X0322398Y0252261D01*
X0322297Y0252410D01*
X0322199Y0252562D01*
X0322106Y0252716D01*
X0322016Y0252873D01*
X0321929Y0253031D01*
X0321847Y0253192D01*
X0321769Y0253354D01*
X0321694Y0253519D01*
X0321624Y0253685D01*
X0321558Y0253853D01*
X0321495Y0254022D01*
X0321437Y0254193D01*
X0321383Y0254365D01*
X0321334Y0254539D01*
X0321288Y0254713D01*
X0321247Y0254889D01*
X0321210Y0255065D01*
X0321177Y0255243D01*
X0321149Y0255421D01*
X0321125Y0255600D01*
X0321105Y0255779D01*
X0321090Y0255959D01*
X0321079Y0256139D01*
X0321072Y0256320D01*
X0321070Y0256500D01*
X0321072Y0256680D01*
X0321079Y0256861D01*
X0321090Y0257041D01*
X0321105Y0257221D01*
X0321125Y0257400D01*
X0321149Y0257579D01*
X0321177Y0257757D01*
X0321210Y0257935D01*
X0321247Y0258111D01*
X0321288Y0258287D01*
X0321334Y0258461D01*
X0321383Y0258635D01*
X0321437Y0258807D01*
X0321495Y0258978D01*
X0321558Y0259147D01*
X0321624Y0259315D01*
X0321694Y0259481D01*
X0321769Y0259646D01*
X0321847Y0259808D01*
X0321929Y0259969D01*
X0322016Y0260127D01*
X0322106Y0260284D01*
X0322199Y0260438D01*
X0322297Y0260590D01*
X0322398Y0260739D01*
X0322503Y0260886D01*
X0322611Y0261031D01*
X0322723Y0261172D01*
X0322838Y0261311D01*
X0322957Y0261447D01*
X0323078Y0261580D01*
X0323203Y0261711D01*
X0323331Y0261838D01*
X0323463Y0261962D01*
X0323597Y0262082D01*
X0323734Y0262200D01*
X0323873Y0262314D01*
X0324016Y0262424D01*
X0324161Y0262532D01*
X0324309Y0262635D01*
X0324459Y0262735D01*
X0324612Y0262831D01*
X0324767Y0262924D01*
X0324795Y0262875D01*
X0324641Y0262784D01*
X0324489Y0262688D01*
X0324340Y0262589D01*
X0324194Y0262486D01*
X0324050Y0262380D01*
X0323908Y0262270D01*
X0323769Y0262157D01*
X0323633Y0262040D01*
X0323500Y0261920D01*
X0323370Y0261797D01*
X0323243Y0261671D01*
X0323119Y0261542D01*
X0322998Y0261410D01*
X0322881Y0261275D01*
X0322766Y0261137D01*
X0322655Y0260996D01*
X0322548Y0260853D01*
X0322444Y0260707D01*
X0322344Y0260559D01*
X0322247Y0260408D01*
X0322154Y0260255D01*
X0322064Y0260100D01*
X0321979Y0259943D01*
X0321897Y0259783D01*
X0321819Y0259622D01*
X0321746Y0259459D01*
X0321676Y0259294D01*
X0321610Y0259127D01*
X0321548Y0258959D01*
X0321490Y0258790D01*
X0321437Y0258619D01*
X0321388Y0258447D01*
X0321342Y0258273D01*
X0321301Y0258099D01*
X0321265Y0257924D01*
X0321232Y0257748D01*
X0321204Y0257571D01*
X0321180Y0257393D01*
X0321161Y0257215D01*
X0321146Y0257037D01*
X0321135Y0256858D01*
X0321128Y0256679D01*
X0321126Y0256500D01*
X0321128Y0256321D01*
X0321135Y0256142D01*
X0321146Y0255963D01*
X0321161Y0255785D01*
X0321180Y0255607D01*
X0321204Y0255429D01*
X0321232Y0255252D01*
X0321265Y0255076D01*
X0321301Y0254901D01*
X0321342Y0254727D01*
X0321388Y0254553D01*
X0321437Y0254381D01*
X0321490Y0254210D01*
X0321548Y0254041D01*
X0321610Y0253873D01*
X0321676Y0253706D01*
X0321746Y0253541D01*
X0321819Y0253378D01*
X0321897Y0253217D01*
X0321979Y0253057D01*
X0322064Y0252900D01*
X0322154Y0252745D01*
X0322247Y0252592D01*
X0322344Y0252441D01*
X0322444Y0252293D01*
X0322548Y0252147D01*
X0322655Y0252004D01*
X0322766Y0251863D01*
X0322881Y0251725D01*
X0322998Y0251590D01*
X0323119Y0251458D01*
X0323243Y0251329D01*
X0323370Y0251203D01*
X0323500Y0251080D01*
X0323633Y0250960D01*
X0323769Y0250843D01*
X0323908Y0250730D01*
X0324050Y0250620D01*
X0324194Y0250514D01*
X0324340Y0250411D01*
X0324489Y0250312D01*
X0324641Y0250216D01*
X0324795Y0250125D01*
X0324823Y0250173D01*
X0324670Y0250264D01*
X0324520Y0250359D01*
X0324372Y0250458D01*
X0324226Y0250560D01*
X0324083Y0250665D01*
X0323943Y0250774D01*
X0323805Y0250886D01*
X0323670Y0251002D01*
X0323538Y0251121D01*
X0323409Y0251243D01*
X0323283Y0251368D01*
X0323160Y0251496D01*
X0323040Y0251628D01*
X0322923Y0251762D01*
X0322810Y0251898D01*
X0322700Y0252038D01*
X0322593Y0252180D01*
X0322490Y0252325D01*
X0322390Y0252472D01*
X0322294Y0252622D01*
X0322202Y0252773D01*
X0322113Y0252927D01*
X0322028Y0253084D01*
X0321947Y0253242D01*
X0321870Y0253402D01*
X0321797Y0253564D01*
X0321728Y0253727D01*
X0321662Y0253893D01*
X0321601Y0254060D01*
X0321544Y0254228D01*
X0321491Y0254397D01*
X0321442Y0254568D01*
X0321397Y0254740D01*
X0321356Y0254913D01*
X0321320Y0255087D01*
X0321287Y0255262D01*
X0321260Y0255437D01*
X0321236Y0255614D01*
X0321217Y0255790D01*
X0321201Y0255967D01*
X0321191Y0256145D01*
X0321184Y0256322D01*
X0321182Y0256500D01*
X0321184Y0256678D01*
X0321191Y0256855D01*
X0321201Y0257033D01*
X0321217Y0257210D01*
X0321236Y0257386D01*
X0321260Y0257563D01*
X0321287Y0257738D01*
X0321320Y0257913D01*
X0321356Y0258087D01*
X0321397Y0258260D01*
X0321442Y0258432D01*
X0321491Y0258603D01*
X0321544Y0258772D01*
X0321601Y0258940D01*
X0321662Y0259107D01*
X0321728Y0259273D01*
X0321797Y0259436D01*
X0321870Y0259598D01*
X0321947Y0259758D01*
X0322028Y0259916D01*
X0322113Y0260073D01*
X0322202Y0260227D01*
X0322294Y0260378D01*
X0322390Y0260528D01*
X0322490Y0260675D01*
X0322593Y0260820D01*
X0322700Y0260962D01*
X0322810Y0261102D01*
X0322923Y0261238D01*
X0323040Y0261372D01*
X0323160Y0261504D01*
X0323283Y0261632D01*
X0323409Y0261757D01*
X0323538Y0261879D01*
X0323670Y0261998D01*
X0323805Y0262114D01*
X0323943Y0262226D01*
X0324083Y0262335D01*
X0324226Y0262440D01*
X0324372Y0262542D01*
X0324520Y0262641D01*
X0324670Y0262736D01*
X0324823Y0262827D01*
X0324851Y0262778D01*
X0324699Y0262688D01*
X0324550Y0262594D01*
X0324403Y0262496D01*
X0324259Y0262395D01*
X0324117Y0262290D01*
X0323978Y0262182D01*
X0323841Y0262070D01*
X0323707Y0261956D01*
X0323576Y0261838D01*
X0323448Y0261717D01*
X0323323Y0261592D01*
X0323201Y0261465D01*
X0323082Y0261335D01*
X0322966Y0261202D01*
X0322853Y0261066D01*
X0322744Y0260928D01*
X0322638Y0260787D01*
X0322536Y0260643D01*
X0322437Y0260497D01*
X0322342Y0260349D01*
X0322250Y0260198D01*
X0322162Y0260045D01*
X0322078Y0259890D01*
X0321997Y0259733D01*
X0321921Y0259574D01*
X0321848Y0259414D01*
X0321779Y0259251D01*
X0321715Y0259087D01*
X0321654Y0258922D01*
X0321597Y0258755D01*
X0321544Y0258586D01*
X0321496Y0258417D01*
X0321451Y0258246D01*
X0321411Y0258075D01*
X0321375Y0257902D01*
X0321343Y0257729D01*
X0321315Y0257554D01*
X0321291Y0257380D01*
X0321272Y0257204D01*
X0321257Y0257029D01*
X0321247Y0256853D01*
X0321240Y0256676D01*
X0321238Y0256500D01*
X0321240Y0256324D01*
X0321247Y0256147D01*
X0321257Y0255971D01*
X0321272Y0255796D01*
X0321291Y0255620D01*
X0321315Y0255446D01*
X0321343Y0255271D01*
X0321375Y0255098D01*
X0321411Y0254925D01*
X0321451Y0254754D01*
X0321496Y0254583D01*
X0321544Y0254414D01*
X0321597Y0254245D01*
X0321654Y0254078D01*
X0321715Y0253913D01*
X0321779Y0253749D01*
X0321848Y0253586D01*
X0321921Y0253426D01*
X0321997Y0253267D01*
X0322078Y0253110D01*
X0322162Y0252955D01*
X0322250Y0252802D01*
X0322342Y0252651D01*
X0322437Y0252503D01*
X0322536Y0252357D01*
X0322638Y0252213D01*
X0322744Y0252072D01*
X0322853Y0251934D01*
X0322966Y0251798D01*
X0323082Y0251665D01*
X0323201Y0251535D01*
X0323323Y0251408D01*
X0323448Y0251283D01*
X0323576Y0251162D01*
X0323707Y0251044D01*
X0323841Y0250930D01*
X0323978Y0250818D01*
X0324117Y0250710D01*
X0324259Y0250605D01*
X0324403Y0250504D01*
X0324550Y0250406D01*
X0324699Y0250312D01*
X0324851Y0250222D01*
X0332400Y0249785D02*
X0332131Y0250253D01*
X0332282Y0250343D01*
X0332431Y0250436D01*
X0332577Y0250534D01*
X0332720Y0250634D01*
X0332861Y0250739D01*
X0333000Y0250846D01*
X0333136Y0250957D01*
X0333269Y0251071D01*
X0333400Y0251189D01*
X0333527Y0251309D01*
X0333652Y0251433D01*
X0333773Y0251560D01*
X0333892Y0251689D01*
X0334007Y0251821D01*
X0334119Y0251957D01*
X0334228Y0252094D01*
X0334333Y0252235D01*
X0334435Y0252378D01*
X0334533Y0252523D01*
X0334628Y0252671D01*
X0334719Y0252820D01*
X0334807Y0252973D01*
X0334890Y0253127D01*
X0334970Y0253283D01*
X0335047Y0253441D01*
X0335119Y0253601D01*
X0335187Y0253762D01*
X0335252Y0253926D01*
X0335312Y0254090D01*
X0335369Y0254256D01*
X0335421Y0254424D01*
X0335470Y0254593D01*
X0335514Y0254762D01*
X0335554Y0254933D01*
X0335590Y0255105D01*
X0335622Y0255278D01*
X0335649Y0255451D01*
X0335673Y0255625D01*
X0335692Y0255799D01*
X0335707Y0255974D01*
X0335717Y0256149D01*
X0335724Y0256325D01*
X0335726Y0256500D01*
X0335724Y0256675D01*
X0335717Y0256851D01*
X0335707Y0257026D01*
X0335692Y0257201D01*
X0335673Y0257375D01*
X0335649Y0257549D01*
X0335622Y0257722D01*
X0335590Y0257895D01*
X0335554Y0258067D01*
X0335514Y0258238D01*
X0335470Y0258407D01*
X0335421Y0258576D01*
X0335369Y0258744D01*
X0335312Y0258910D01*
X0335252Y0259074D01*
X0335187Y0259238D01*
X0335119Y0259399D01*
X0335047Y0259559D01*
X0334970Y0259717D01*
X0334890Y0259873D01*
X0334807Y0260027D01*
X0334719Y0260180D01*
X0334628Y0260329D01*
X0334533Y0260477D01*
X0334435Y0260622D01*
X0334333Y0260765D01*
X0334228Y0260906D01*
X0334119Y0261043D01*
X0334007Y0261179D01*
X0333892Y0261311D01*
X0333773Y0261440D01*
X0333652Y0261567D01*
X0333527Y0261691D01*
X0333400Y0261811D01*
X0333269Y0261929D01*
X0333136Y0262043D01*
X0333000Y0262154D01*
X0332861Y0262261D01*
X0332720Y0262366D01*
X0332577Y0262466D01*
X0332431Y0262564D01*
X0332282Y0262657D01*
X0332131Y0262747D01*
X0332400Y0263215D01*
X0332401Y0263215D01*
X0332563Y0263118D01*
X0332722Y0263018D01*
X0332880Y0262913D01*
X0333034Y0262805D01*
X0333186Y0262693D01*
X0333335Y0262577D01*
X0333481Y0262458D01*
X0333624Y0262335D01*
X0333764Y0262209D01*
X0333902Y0262080D01*
X0334036Y0261947D01*
X0334166Y0261811D01*
X0334294Y0261672D01*
X0334417Y0261529D01*
X0334538Y0261384D01*
X0334655Y0261236D01*
X0334768Y0261085D01*
X0334877Y0260932D01*
X0334983Y0260775D01*
X0335085Y0260617D01*
X0335183Y0260455D01*
X0335277Y0260292D01*
X0335367Y0260126D01*
X0335453Y0259958D01*
X0335535Y0259788D01*
X0335613Y0259617D01*
X0335687Y0259443D01*
X0335756Y0259268D01*
X0335821Y0259090D01*
X0335882Y0258912D01*
X0335938Y0258732D01*
X0335990Y0258551D01*
X0336038Y0258368D01*
X0336081Y0258184D01*
X0336120Y0258000D01*
X0336154Y0257814D01*
X0336184Y0257628D01*
X0336209Y0257441D01*
X0336229Y0257253D01*
X0336245Y0257065D01*
X0336257Y0256877D01*
X0336264Y0256689D01*
X0336266Y0256500D01*
X0336264Y0256311D01*
X0336257Y0256123D01*
X0336245Y0255935D01*
X0336229Y0255747D01*
X0336209Y0255559D01*
X0336184Y0255372D01*
X0336154Y0255186D01*
X0336120Y0255000D01*
X0336081Y0254816D01*
X0336038Y0254632D01*
X0335990Y0254449D01*
X0335938Y0254268D01*
X0335882Y0254088D01*
X0335821Y0253910D01*
X0335756Y0253732D01*
X0335687Y0253557D01*
X0335613Y0253383D01*
X0335535Y0253212D01*
X0335453Y0253042D01*
X0335367Y0252874D01*
X0335277Y0252708D01*
X0335183Y0252545D01*
X0335085Y0252383D01*
X0334983Y0252225D01*
X0334877Y0252068D01*
X0334768Y0251915D01*
X0334655Y0251764D01*
X0334538Y0251616D01*
X0334417Y0251471D01*
X0334294Y0251328D01*
X0334166Y0251189D01*
X0334036Y0251053D01*
X0333902Y0250920D01*
X0333764Y0250791D01*
X0333624Y0250665D01*
X0333481Y0250542D01*
X0333335Y0250423D01*
X0333186Y0250307D01*
X0333034Y0250195D01*
X0332880Y0250087D01*
X0332722Y0249982D01*
X0332563Y0249882D01*
X0332401Y0249785D01*
X0332373Y0249833D01*
X0332534Y0249929D01*
X0332692Y0250029D01*
X0332848Y0250133D01*
X0333001Y0250241D01*
X0333152Y0250352D01*
X0333300Y0250467D01*
X0333445Y0250585D01*
X0333587Y0250707D01*
X0333727Y0250832D01*
X0333863Y0250961D01*
X0333996Y0251093D01*
X0334125Y0251228D01*
X0334252Y0251366D01*
X0334375Y0251507D01*
X0334494Y0251651D01*
X0334610Y0251798D01*
X0334723Y0251948D01*
X0334832Y0252100D01*
X0334937Y0252256D01*
X0335038Y0252413D01*
X0335135Y0252573D01*
X0335228Y0252735D01*
X0335318Y0252900D01*
X0335403Y0253067D01*
X0335485Y0253235D01*
X0335562Y0253406D01*
X0335635Y0253578D01*
X0335704Y0253753D01*
X0335768Y0253928D01*
X0335829Y0254106D01*
X0335885Y0254284D01*
X0335936Y0254464D01*
X0335984Y0254646D01*
X0336026Y0254828D01*
X0336065Y0255011D01*
X0336099Y0255195D01*
X0336128Y0255380D01*
X0336153Y0255566D01*
X0336174Y0255752D01*
X0336190Y0255939D01*
X0336201Y0256126D01*
X0336208Y0256313D01*
X0336210Y0256500D01*
X0336208Y0256687D01*
X0336201Y0256874D01*
X0336190Y0257061D01*
X0336174Y0257248D01*
X0336153Y0257434D01*
X0336128Y0257620D01*
X0336099Y0257805D01*
X0336065Y0257989D01*
X0336026Y0258172D01*
X0335984Y0258354D01*
X0335936Y0258536D01*
X0335885Y0258716D01*
X0335829Y0258894D01*
X0335768Y0259072D01*
X0335704Y0259247D01*
X0335635Y0259422D01*
X0335562Y0259594D01*
X0335485Y0259765D01*
X0335403Y0259933D01*
X0335318Y0260100D01*
X0335228Y0260265D01*
X0335135Y0260427D01*
X0335038Y0260587D01*
X0334937Y0260744D01*
X0334832Y0260900D01*
X0334723Y0261052D01*
X0334610Y0261202D01*
X0334494Y0261349D01*
X0334375Y0261493D01*
X0334252Y0261634D01*
X0334125Y0261772D01*
X0333996Y0261907D01*
X0333863Y0262039D01*
X0333727Y0262168D01*
X0333587Y0262293D01*
X0333445Y0262415D01*
X0333300Y0262533D01*
X0333152Y0262648D01*
X0333001Y0262759D01*
X0332848Y0262867D01*
X0332692Y0262971D01*
X0332534Y0263071D01*
X0332373Y0263167D01*
X0332345Y0263118D01*
X0332505Y0263023D01*
X0332662Y0262924D01*
X0332817Y0262821D01*
X0332969Y0262714D01*
X0333119Y0262604D01*
X0333265Y0262490D01*
X0333409Y0262372D01*
X0333551Y0262251D01*
X0333689Y0262127D01*
X0333824Y0261999D01*
X0333956Y0261868D01*
X0334085Y0261734D01*
X0334210Y0261597D01*
X0334332Y0261457D01*
X0334451Y0261314D01*
X0334566Y0261168D01*
X0334678Y0261019D01*
X0334786Y0260867D01*
X0334890Y0260714D01*
X0334990Y0260557D01*
X0335087Y0260398D01*
X0335180Y0260237D01*
X0335268Y0260074D01*
X0335353Y0259908D01*
X0335434Y0259741D01*
X0335511Y0259572D01*
X0335583Y0259400D01*
X0335652Y0259227D01*
X0335716Y0259053D01*
X0335776Y0258877D01*
X0335831Y0258700D01*
X0335882Y0258521D01*
X0335929Y0258341D01*
X0335972Y0258160D01*
X0336010Y0257978D01*
X0336044Y0257795D01*
X0336073Y0257612D01*
X0336098Y0257427D01*
X0336118Y0257242D01*
X0336134Y0257057D01*
X0336145Y0256872D01*
X0336152Y0256686D01*
X0336154Y0256500D01*
X0336152Y0256314D01*
X0336145Y0256128D01*
X0336134Y0255943D01*
X0336118Y0255758D01*
X0336098Y0255573D01*
X0336073Y0255388D01*
X0336044Y0255205D01*
X0336010Y0255022D01*
X0335972Y0254840D01*
X0335929Y0254659D01*
X0335882Y0254479D01*
X0335831Y0254300D01*
X0335776Y0254123D01*
X0335716Y0253947D01*
X0335652Y0253773D01*
X0335583Y0253600D01*
X0335511Y0253428D01*
X0335434Y0253259D01*
X0335353Y0253092D01*
X0335268Y0252926D01*
X0335180Y0252763D01*
X0335087Y0252602D01*
X0334990Y0252443D01*
X0334890Y0252286D01*
X0334786Y0252133D01*
X0334678Y0251981D01*
X0334566Y0251832D01*
X0334451Y0251686D01*
X0334332Y0251543D01*
X0334210Y0251403D01*
X0334085Y0251266D01*
X0333956Y0251132D01*
X0333824Y0251001D01*
X0333689Y0250873D01*
X0333551Y0250749D01*
X0333409Y0250628D01*
X0333265Y0250510D01*
X0333119Y0250396D01*
X0332969Y0250286D01*
X0332817Y0250179D01*
X0332662Y0250076D01*
X0332505Y0249977D01*
X0332345Y0249882D01*
X0332317Y0249930D01*
X0332476Y0250025D01*
X0332632Y0250124D01*
X0332785Y0250226D01*
X0332936Y0250332D01*
X0333085Y0250441D01*
X0333231Y0250554D01*
X0333374Y0250671D01*
X0333514Y0250791D01*
X0333651Y0250915D01*
X0333785Y0251041D01*
X0333916Y0251171D01*
X0334044Y0251304D01*
X0334169Y0251441D01*
X0334290Y0251580D01*
X0334408Y0251722D01*
X0334522Y0251867D01*
X0334633Y0252014D01*
X0334740Y0252165D01*
X0334843Y0252317D01*
X0334943Y0252473D01*
X0335039Y0252630D01*
X0335131Y0252790D01*
X0335219Y0252952D01*
X0335303Y0253117D01*
X0335383Y0253283D01*
X0335459Y0253451D01*
X0335531Y0253621D01*
X0335599Y0253793D01*
X0335663Y0253966D01*
X0335722Y0254141D01*
X0335778Y0254317D01*
X0335828Y0254494D01*
X0335875Y0254673D01*
X0335917Y0254852D01*
X0335955Y0255033D01*
X0335988Y0255214D01*
X0336017Y0255397D01*
X0336042Y0255580D01*
X0336062Y0255763D01*
X0336078Y0255947D01*
X0336089Y0256131D01*
X0336096Y0256315D01*
X0336098Y0256500D01*
X0336096Y0256685D01*
X0336089Y0256869D01*
X0336078Y0257053D01*
X0336062Y0257237D01*
X0336042Y0257420D01*
X0336017Y0257603D01*
X0335988Y0257786D01*
X0335955Y0257967D01*
X0335917Y0258148D01*
X0335875Y0258327D01*
X0335828Y0258506D01*
X0335778Y0258683D01*
X0335722Y0258859D01*
X0335663Y0259034D01*
X0335599Y0259207D01*
X0335531Y0259379D01*
X0335459Y0259549D01*
X0335383Y0259717D01*
X0335303Y0259883D01*
X0335219Y0260048D01*
X0335131Y0260210D01*
X0335039Y0260370D01*
X0334943Y0260527D01*
X0334843Y0260683D01*
X0334740Y0260835D01*
X0334633Y0260986D01*
X0334522Y0261133D01*
X0334408Y0261278D01*
X0334290Y0261420D01*
X0334169Y0261559D01*
X0334044Y0261696D01*
X0333916Y0261829D01*
X0333785Y0261959D01*
X0333651Y0262085D01*
X0333514Y0262209D01*
X0333374Y0262329D01*
X0333231Y0262446D01*
X0333085Y0262559D01*
X0332936Y0262668D01*
X0332785Y0262774D01*
X0332632Y0262876D01*
X0332476Y0262975D01*
X0332317Y0263070D01*
X0332289Y0263021D01*
X0332446Y0262927D01*
X0332601Y0262829D01*
X0332754Y0262728D01*
X0332904Y0262623D01*
X0333051Y0262514D01*
X0333196Y0262402D01*
X0333338Y0262286D01*
X0333477Y0262167D01*
X0333613Y0262044D01*
X0333746Y0261918D01*
X0333876Y0261789D01*
X0334003Y0261657D01*
X0334127Y0261522D01*
X0334247Y0261384D01*
X0334364Y0261243D01*
X0334478Y0261099D01*
X0334587Y0260953D01*
X0334694Y0260803D01*
X0334796Y0260652D01*
X0334895Y0260498D01*
X0334991Y0260341D01*
X0335082Y0260182D01*
X0335169Y0260021D01*
X0335253Y0259858D01*
X0335333Y0259693D01*
X0335408Y0259526D01*
X0335480Y0259358D01*
X0335547Y0259187D01*
X0335610Y0259015D01*
X0335669Y0258842D01*
X0335724Y0258667D01*
X0335774Y0258491D01*
X0335821Y0258314D01*
X0335863Y0258136D01*
X0335900Y0257956D01*
X0335933Y0257776D01*
X0335962Y0257595D01*
X0335986Y0257414D01*
X0336006Y0257232D01*
X0336022Y0257049D01*
X0336033Y0256866D01*
X0336040Y0256683D01*
X0336042Y0256500D01*
X0336040Y0256317D01*
X0336033Y0256134D01*
X0336022Y0255951D01*
X0336006Y0255768D01*
X0335986Y0255586D01*
X0335962Y0255405D01*
X0335933Y0255224D01*
X0335900Y0255044D01*
X0335863Y0254864D01*
X0335821Y0254686D01*
X0335774Y0254509D01*
X0335724Y0254333D01*
X0335669Y0254158D01*
X0335610Y0253985D01*
X0335547Y0253813D01*
X0335480Y0253642D01*
X0335408Y0253474D01*
X0335333Y0253307D01*
X0335253Y0253142D01*
X0335169Y0252979D01*
X0335082Y0252818D01*
X0334991Y0252659D01*
X0334895Y0252502D01*
X0334796Y0252348D01*
X0334694Y0252197D01*
X0334587Y0252047D01*
X0334478Y0251901D01*
X0334364Y0251757D01*
X0334247Y0251616D01*
X0334127Y0251478D01*
X0334003Y0251343D01*
X0333876Y0251211D01*
X0333746Y0251082D01*
X0333613Y0250956D01*
X0333477Y0250833D01*
X0333338Y0250714D01*
X0333196Y0250598D01*
X0333051Y0250486D01*
X0332904Y0250377D01*
X0332754Y0250272D01*
X0332601Y0250171D01*
X0332446Y0250073D01*
X0332289Y0249979D01*
X0332261Y0250027D01*
X0332417Y0250121D01*
X0332571Y0250218D01*
X0332722Y0250318D01*
X0332871Y0250423D01*
X0333018Y0250531D01*
X0333161Y0250642D01*
X0333302Y0250757D01*
X0333440Y0250876D01*
X0333575Y0250997D01*
X0333707Y0251122D01*
X0333837Y0251250D01*
X0333962Y0251381D01*
X0334085Y0251515D01*
X0334205Y0251653D01*
X0334321Y0251792D01*
X0334433Y0251935D01*
X0334542Y0252081D01*
X0334648Y0252229D01*
X0334750Y0252379D01*
X0334848Y0252532D01*
X0334943Y0252688D01*
X0335033Y0252845D01*
X0335120Y0253005D01*
X0335203Y0253167D01*
X0335282Y0253330D01*
X0335357Y0253496D01*
X0335428Y0253664D01*
X0335495Y0253833D01*
X0335557Y0254003D01*
X0335616Y0254175D01*
X0335670Y0254349D01*
X0335720Y0254524D01*
X0335766Y0254700D01*
X0335808Y0254877D01*
X0335845Y0255055D01*
X0335878Y0255233D01*
X0335907Y0255413D01*
X0335931Y0255593D01*
X0335951Y0255774D01*
X0335966Y0255955D01*
X0335977Y0256137D01*
X0335984Y0256318D01*
X0335986Y0256500D01*
X0335984Y0256682D01*
X0335977Y0256863D01*
X0335966Y0257045D01*
X0335951Y0257226D01*
X0335931Y0257407D01*
X0335907Y0257587D01*
X0335878Y0257767D01*
X0335845Y0257945D01*
X0335808Y0258123D01*
X0335766Y0258300D01*
X0335720Y0258476D01*
X0335670Y0258651D01*
X0335616Y0258825D01*
X0335557Y0258997D01*
X0335495Y0259167D01*
X0335428Y0259336D01*
X0335357Y0259504D01*
X0335282Y0259670D01*
X0335203Y0259833D01*
X0335120Y0259995D01*
X0335033Y0260155D01*
X0334943Y0260312D01*
X0334848Y0260468D01*
X0334750Y0260621D01*
X0334648Y0260771D01*
X0334542Y0260919D01*
X0334433Y0261065D01*
X0334321Y0261208D01*
X0334205Y0261347D01*
X0334085Y0261485D01*
X0333962Y0261619D01*
X0333837Y0261750D01*
X0333707Y0261878D01*
X0333575Y0262003D01*
X0333440Y0262124D01*
X0333302Y0262243D01*
X0333161Y0262358D01*
X0333018Y0262469D01*
X0332871Y0262577D01*
X0332722Y0262682D01*
X0332571Y0262782D01*
X0332417Y0262879D01*
X0332261Y0262973D01*
X0332233Y0262924D01*
X0332388Y0262831D01*
X0332541Y0262735D01*
X0332691Y0262635D01*
X0332839Y0262532D01*
X0332984Y0262424D01*
X0333127Y0262314D01*
X0333266Y0262200D01*
X0333403Y0262082D01*
X0333537Y0261962D01*
X0333669Y0261838D01*
X0333797Y0261711D01*
X0333922Y0261580D01*
X0334043Y0261447D01*
X0334162Y0261311D01*
X0334277Y0261172D01*
X0334389Y0261031D01*
X0334497Y0260886D01*
X0334602Y0260739D01*
X0334703Y0260590D01*
X0334801Y0260438D01*
X0334894Y0260284D01*
X0334984Y0260127D01*
X0335071Y0259969D01*
X0335153Y0259808D01*
X0335231Y0259646D01*
X0335306Y0259481D01*
X0335376Y0259315D01*
X0335442Y0259147D01*
X0335505Y0258978D01*
X0335563Y0258807D01*
X0335617Y0258635D01*
X0335666Y0258461D01*
X0335712Y0258287D01*
X0335753Y0258111D01*
X0335790Y0257935D01*
X0335823Y0257757D01*
X0335851Y0257579D01*
X0335875Y0257400D01*
X0335895Y0257221D01*
X0335910Y0257041D01*
X0335921Y0256861D01*
X0335928Y0256680D01*
X0335930Y0256500D01*
X0335928Y0256320D01*
X0335921Y0256139D01*
X0335910Y0255959D01*
X0335895Y0255779D01*
X0335875Y0255600D01*
X0335851Y0255421D01*
X0335823Y0255243D01*
X0335790Y0255065D01*
X0335753Y0254889D01*
X0335712Y0254713D01*
X0335666Y0254539D01*
X0335617Y0254365D01*
X0335563Y0254193D01*
X0335505Y0254022D01*
X0335442Y0253853D01*
X0335376Y0253685D01*
X0335306Y0253519D01*
X0335231Y0253354D01*
X0335153Y0253192D01*
X0335071Y0253031D01*
X0334984Y0252873D01*
X0334894Y0252716D01*
X0334801Y0252562D01*
X0334703Y0252410D01*
X0334602Y0252261D01*
X0334497Y0252114D01*
X0334389Y0251969D01*
X0334277Y0251828D01*
X0334162Y0251689D01*
X0334043Y0251553D01*
X0333922Y0251420D01*
X0333797Y0251289D01*
X0333669Y0251162D01*
X0333537Y0251038D01*
X0333403Y0250918D01*
X0333266Y0250800D01*
X0333127Y0250686D01*
X0332984Y0250576D01*
X0332839Y0250468D01*
X0332691Y0250365D01*
X0332541Y0250265D01*
X0332388Y0250169D01*
X0332233Y0250076D01*
X0332205Y0250125D01*
X0332359Y0250216D01*
X0332511Y0250312D01*
X0332660Y0250411D01*
X0332806Y0250514D01*
X0332950Y0250620D01*
X0333092Y0250730D01*
X0333231Y0250843D01*
X0333367Y0250960D01*
X0333500Y0251080D01*
X0333630Y0251203D01*
X0333757Y0251329D01*
X0333881Y0251458D01*
X0334002Y0251590D01*
X0334119Y0251725D01*
X0334234Y0251863D01*
X0334345Y0252004D01*
X0334452Y0252147D01*
X0334556Y0252293D01*
X0334656Y0252441D01*
X0334753Y0252592D01*
X0334846Y0252745D01*
X0334936Y0252900D01*
X0335021Y0253057D01*
X0335103Y0253217D01*
X0335181Y0253378D01*
X0335254Y0253541D01*
X0335324Y0253706D01*
X0335390Y0253873D01*
X0335452Y0254041D01*
X0335510Y0254210D01*
X0335563Y0254381D01*
X0335612Y0254553D01*
X0335658Y0254727D01*
X0335699Y0254901D01*
X0335735Y0255076D01*
X0335768Y0255252D01*
X0335796Y0255429D01*
X0335820Y0255607D01*
X0335839Y0255785D01*
X0335854Y0255963D01*
X0335865Y0256142D01*
X0335872Y0256321D01*
X0335874Y0256500D01*
X0335872Y0256679D01*
X0335865Y0256858D01*
X0335854Y0257037D01*
X0335839Y0257215D01*
X0335820Y0257393D01*
X0335796Y0257571D01*
X0335768Y0257748D01*
X0335735Y0257924D01*
X0335699Y0258099D01*
X0335658Y0258273D01*
X0335612Y0258447D01*
X0335563Y0258619D01*
X0335510Y0258790D01*
X0335452Y0258959D01*
X0335390Y0259127D01*
X0335324Y0259294D01*
X0335254Y0259459D01*
X0335181Y0259622D01*
X0335103Y0259783D01*
X0335021Y0259943D01*
X0334936Y0260100D01*
X0334846Y0260255D01*
X0334753Y0260408D01*
X0334656Y0260559D01*
X0334556Y0260707D01*
X0334452Y0260853D01*
X0334345Y0260996D01*
X0334234Y0261137D01*
X0334119Y0261275D01*
X0334002Y0261410D01*
X0333881Y0261542D01*
X0333757Y0261671D01*
X0333630Y0261797D01*
X0333500Y0261920D01*
X0333367Y0262040D01*
X0333231Y0262157D01*
X0333092Y0262270D01*
X0332950Y0262380D01*
X0332806Y0262486D01*
X0332660Y0262589D01*
X0332511Y0262688D01*
X0332359Y0262784D01*
X0332205Y0262875D01*
X0332177Y0262827D01*
X0332330Y0262736D01*
X0332480Y0262641D01*
X0332628Y0262542D01*
X0332774Y0262440D01*
X0332917Y0262335D01*
X0333057Y0262226D01*
X0333195Y0262114D01*
X0333330Y0261998D01*
X0333462Y0261879D01*
X0333591Y0261757D01*
X0333717Y0261632D01*
X0333840Y0261504D01*
X0333960Y0261372D01*
X0334077Y0261238D01*
X0334190Y0261102D01*
X0334300Y0260962D01*
X0334407Y0260820D01*
X0334510Y0260675D01*
X0334610Y0260528D01*
X0334706Y0260378D01*
X0334798Y0260227D01*
X0334887Y0260073D01*
X0334972Y0259916D01*
X0335053Y0259758D01*
X0335130Y0259598D01*
X0335203Y0259436D01*
X0335272Y0259273D01*
X0335338Y0259107D01*
X0335399Y0258940D01*
X0335456Y0258772D01*
X0335509Y0258603D01*
X0335558Y0258432D01*
X0335603Y0258260D01*
X0335644Y0258087D01*
X0335680Y0257913D01*
X0335713Y0257738D01*
X0335740Y0257563D01*
X0335764Y0257386D01*
X0335783Y0257210D01*
X0335799Y0257033D01*
X0335809Y0256855D01*
X0335816Y0256678D01*
X0335818Y0256500D01*
X0335816Y0256322D01*
X0335809Y0256145D01*
X0335799Y0255967D01*
X0335783Y0255790D01*
X0335764Y0255614D01*
X0335740Y0255437D01*
X0335713Y0255262D01*
X0335680Y0255087D01*
X0335644Y0254913D01*
X0335603Y0254740D01*
X0335558Y0254568D01*
X0335509Y0254397D01*
X0335456Y0254228D01*
X0335399Y0254060D01*
X0335338Y0253893D01*
X0335272Y0253727D01*
X0335203Y0253564D01*
X0335130Y0253402D01*
X0335053Y0253242D01*
X0334972Y0253084D01*
X0334887Y0252927D01*
X0334798Y0252773D01*
X0334706Y0252622D01*
X0334610Y0252472D01*
X0334510Y0252325D01*
X0334407Y0252180D01*
X0334300Y0252038D01*
X0334190Y0251898D01*
X0334077Y0251762D01*
X0333960Y0251628D01*
X0333840Y0251496D01*
X0333717Y0251368D01*
X0333591Y0251243D01*
X0333462Y0251121D01*
X0333330Y0251002D01*
X0333195Y0250886D01*
X0333057Y0250774D01*
X0332917Y0250665D01*
X0332774Y0250560D01*
X0332628Y0250458D01*
X0332480Y0250359D01*
X0332330Y0250264D01*
X0332177Y0250173D01*
X0332149Y0250222D01*
X0332301Y0250312D01*
X0332450Y0250406D01*
X0332597Y0250504D01*
X0332741Y0250605D01*
X0332883Y0250710D01*
X0333022Y0250818D01*
X0333159Y0250930D01*
X0333293Y0251044D01*
X0333424Y0251162D01*
X0333552Y0251283D01*
X0333677Y0251408D01*
X0333799Y0251535D01*
X0333918Y0251665D01*
X0334034Y0251798D01*
X0334147Y0251934D01*
X0334256Y0252072D01*
X0334362Y0252213D01*
X0334464Y0252357D01*
X0334563Y0252503D01*
X0334658Y0252651D01*
X0334750Y0252802D01*
X0334838Y0252955D01*
X0334922Y0253110D01*
X0335003Y0253267D01*
X0335079Y0253426D01*
X0335152Y0253586D01*
X0335221Y0253749D01*
X0335285Y0253913D01*
X0335346Y0254078D01*
X0335403Y0254245D01*
X0335456Y0254414D01*
X0335504Y0254583D01*
X0335549Y0254754D01*
X0335589Y0254925D01*
X0335625Y0255098D01*
X0335657Y0255271D01*
X0335685Y0255446D01*
X0335709Y0255620D01*
X0335728Y0255796D01*
X0335743Y0255971D01*
X0335753Y0256147D01*
X0335760Y0256324D01*
X0335762Y0256500D01*
X0335760Y0256676D01*
X0335753Y0256853D01*
X0335743Y0257029D01*
X0335728Y0257204D01*
X0335709Y0257380D01*
X0335685Y0257554D01*
X0335657Y0257729D01*
X0335625Y0257902D01*
X0335589Y0258075D01*
X0335549Y0258246D01*
X0335504Y0258417D01*
X0335456Y0258586D01*
X0335403Y0258755D01*
X0335346Y0258922D01*
X0335285Y0259087D01*
X0335221Y0259251D01*
X0335152Y0259414D01*
X0335079Y0259574D01*
X0335003Y0259733D01*
X0334922Y0259890D01*
X0334838Y0260045D01*
X0334750Y0260198D01*
X0334658Y0260349D01*
X0334563Y0260497D01*
X0334464Y0260643D01*
X0334362Y0260787D01*
X0334256Y0260928D01*
X0334147Y0261066D01*
X0334034Y0261202D01*
X0333918Y0261335D01*
X0333799Y0261465D01*
X0333677Y0261592D01*
X0333552Y0261717D01*
X0333424Y0261838D01*
X0333293Y0261956D01*
X0333159Y0262070D01*
X0333022Y0262182D01*
X0332883Y0262290D01*
X0332741Y0262395D01*
X0332597Y0262496D01*
X0332450Y0262594D01*
X0332301Y0262688D01*
X0332149Y0262778D01*
D17*
X0399799Y0245799D02*
X0399799Y0299500D01*
X0401500Y0301201D01*
X0455201Y0301201D01*
X0455201Y0245799D01*
X0399799Y0245799D01*
X0527000Y0259000D02*
X0529500Y0256500D01*
X0544500Y0256500D01*
X0547000Y0259000D01*
X0547000Y0264000D01*
X0544500Y0266500D01*
X0529500Y0266500D01*
X0527000Y0269000D01*
X0527000Y0274000D01*
X0529500Y0276500D01*
X0527000Y0279000D01*
X0527000Y0284000D01*
X0529500Y0286500D01*
X0544500Y0286500D01*
X0547000Y0284000D01*
X0547000Y0279000D01*
X0544500Y0276500D01*
X0529500Y0276500D01*
X0544500Y0276500D02*
X0547000Y0274000D01*
X0547000Y0269000D01*
X0544500Y0266500D01*
X0529500Y0266500D02*
X0527000Y0264000D01*
X0527000Y0259000D01*
X0402150Y0296650D02*
X0402152Y0296743D01*
X0402158Y0296837D01*
X0402168Y0296929D01*
X0402182Y0297022D01*
X0402199Y0297113D01*
X0402221Y0297204D01*
X0402246Y0297294D01*
X0402276Y0297383D01*
X0402309Y0297470D01*
X0402345Y0297556D01*
X0402386Y0297640D01*
X0402429Y0297723D01*
X0402477Y0297803D01*
X0402527Y0297882D01*
X0402581Y0297958D01*
X0402638Y0298032D01*
X0402699Y0298103D01*
X0402762Y0298172D01*
X0402828Y0298238D01*
X0402897Y0298301D01*
X0402968Y0298362D01*
X0403042Y0298419D01*
X0403118Y0298473D01*
X0403197Y0298523D01*
X0403277Y0298571D01*
X0403360Y0298614D01*
X0403444Y0298655D01*
X0403530Y0298691D01*
X0403617Y0298724D01*
X0403706Y0298754D01*
X0403796Y0298779D01*
X0403887Y0298801D01*
X0403978Y0298818D01*
X0404071Y0298832D01*
X0404163Y0298842D01*
X0404257Y0298848D01*
X0404350Y0298850D01*
X0404443Y0298848D01*
X0404537Y0298842D01*
X0404629Y0298832D01*
X0404722Y0298818D01*
X0404813Y0298801D01*
X0404904Y0298779D01*
X0404994Y0298754D01*
X0405083Y0298724D01*
X0405170Y0298691D01*
X0405256Y0298655D01*
X0405340Y0298614D01*
X0405423Y0298571D01*
X0405503Y0298523D01*
X0405582Y0298473D01*
X0405658Y0298419D01*
X0405732Y0298362D01*
X0405803Y0298301D01*
X0405872Y0298238D01*
X0405938Y0298172D01*
X0406001Y0298103D01*
X0406062Y0298032D01*
X0406119Y0297958D01*
X0406173Y0297882D01*
X0406223Y0297803D01*
X0406271Y0297723D01*
X0406314Y0297640D01*
X0406355Y0297556D01*
X0406391Y0297470D01*
X0406424Y0297383D01*
X0406454Y0297294D01*
X0406479Y0297204D01*
X0406501Y0297113D01*
X0406518Y0297022D01*
X0406532Y0296929D01*
X0406542Y0296837D01*
X0406548Y0296743D01*
X0406550Y0296650D01*
X0406548Y0296557D01*
X0406542Y0296463D01*
X0406532Y0296371D01*
X0406518Y0296278D01*
X0406501Y0296187D01*
X0406479Y0296096D01*
X0406454Y0296006D01*
X0406424Y0295917D01*
X0406391Y0295830D01*
X0406355Y0295744D01*
X0406314Y0295660D01*
X0406271Y0295577D01*
X0406223Y0295497D01*
X0406173Y0295418D01*
X0406119Y0295342D01*
X0406062Y0295268D01*
X0406001Y0295197D01*
X0405938Y0295128D01*
X0405872Y0295062D01*
X0405803Y0294999D01*
X0405732Y0294938D01*
X0405658Y0294881D01*
X0405582Y0294827D01*
X0405503Y0294777D01*
X0405423Y0294729D01*
X0405340Y0294686D01*
X0405256Y0294645D01*
X0405170Y0294609D01*
X0405083Y0294576D01*
X0404994Y0294546D01*
X0404904Y0294521D01*
X0404813Y0294499D01*
X0404722Y0294482D01*
X0404629Y0294468D01*
X0404537Y0294458D01*
X0404443Y0294452D01*
X0404350Y0294450D01*
X0404257Y0294452D01*
X0404163Y0294458D01*
X0404071Y0294468D01*
X0403978Y0294482D01*
X0403887Y0294499D01*
X0403796Y0294521D01*
X0403706Y0294546D01*
X0403617Y0294576D01*
X0403530Y0294609D01*
X0403444Y0294645D01*
X0403360Y0294686D01*
X0403277Y0294729D01*
X0403197Y0294777D01*
X0403118Y0294827D01*
X0403042Y0294881D01*
X0402968Y0294938D01*
X0402897Y0294999D01*
X0402828Y0295062D01*
X0402762Y0295128D01*
X0402699Y0295197D01*
X0402638Y0295268D01*
X0402581Y0295342D01*
X0402527Y0295418D01*
X0402477Y0295497D01*
X0402429Y0295577D01*
X0402386Y0295660D01*
X0402345Y0295744D01*
X0402309Y0295830D01*
X0402276Y0295917D01*
X0402246Y0296006D01*
X0402221Y0296096D01*
X0402199Y0296187D01*
X0402182Y0296278D01*
X0402168Y0296371D01*
X0402158Y0296463D01*
X0402152Y0296557D01*
X0402150Y0296650D01*
X0270303Y0291154D02*
X0270303Y0334461D01*
X0263217Y0334461D02*
X0227783Y0334461D01*
X0220697Y0334461D02*
X0220697Y0291154D01*
X0270303Y0291154D01*
X0197500Y0317000D02*
X0197500Y0318000D01*
X0193500Y0318000D01*
X0193500Y0319000D01*
X0187500Y0319000D01*
X0187500Y0318000D01*
X0183000Y0318000D01*
X0183000Y0317000D01*
X0177000Y0326000D02*
X0177000Y0331000D01*
X0188000Y0331000D01*
X0193000Y0331000D01*
X0204000Y0331000D01*
X0204000Y0326000D01*
X0193000Y0327000D02*
X0193000Y0331000D01*
X0195500Y0333000D02*
X0185500Y0333000D01*
X0185500Y0334500D01*
X0195500Y0334500D01*
X0195500Y0333000D01*
X0200500Y0333000D01*
X0200500Y0332000D01*
X0176000Y0332000D01*
X0180500Y0332000D02*
X0180500Y0333000D01*
X0185500Y0333000D01*
X0188000Y0331000D02*
X0188000Y0327000D01*
X0193000Y0327000D01*
X0200500Y0332000D02*
X0205000Y0332000D01*
X0204000Y0196000D02*
X0201500Y0193500D01*
X0199000Y0196000D01*
X0194000Y0196000D01*
X0191500Y0193500D01*
X0191500Y0188500D01*
X0194000Y0186000D01*
X0199000Y0186000D01*
X0201500Y0188500D01*
X0204000Y0186000D01*
X0209000Y0186000D01*
X0211500Y0188500D01*
X0211500Y0193500D01*
X0209000Y0196000D01*
X0204000Y0196000D01*
X0201500Y0193500D02*
X0201500Y0188500D01*
X0211500Y0188500D02*
X0214000Y0186000D01*
X0219000Y0186000D01*
X0221500Y0188500D01*
X0221500Y0193500D01*
X0219000Y0196000D01*
X0214000Y0196000D01*
X0211500Y0193500D01*
X0253500Y0191000D02*
X0253500Y0186000D01*
X0256000Y0183500D01*
X0271000Y0183500D01*
X0273500Y0181000D01*
X0273500Y0176000D01*
X0271000Y0173500D01*
X0273500Y0171000D01*
X0273500Y0166000D01*
X0271000Y0163500D01*
X0273500Y0161000D01*
X0273500Y0156000D01*
X0271000Y0153500D01*
X0273500Y0151000D01*
X0273500Y0146000D01*
X0271000Y0143500D01*
X0256000Y0143500D01*
X0253500Y0146000D01*
X0253500Y0151000D01*
X0256000Y0153500D01*
X0271000Y0153500D01*
X0256000Y0153500D02*
X0253500Y0156000D01*
X0253500Y0161000D01*
X0256000Y0163500D01*
X0271000Y0163500D01*
X0256000Y0163500D02*
X0253500Y0166000D01*
X0253500Y0171000D01*
X0256000Y0173500D01*
X0271000Y0173500D01*
X0256000Y0173500D02*
X0253500Y0176000D01*
X0253500Y0181000D01*
X0256000Y0183500D01*
X0271000Y0183500D02*
X0273500Y0186000D01*
X0273500Y0191000D01*
X0271000Y0193500D01*
X0256000Y0193500D01*
X0253500Y0191000D01*
M02*
