G75*
%MOIN*%
%OFA0B0*%
%FSLAX25Y25*%
%IPPOS*%
%LPD*%
%AMOC8*
5,1,8,0,0,1.08239X$1,22.5*
%
%ADD10C,0.00000*%
%ADD11C,0.00800*%
%ADD12C,0.00500*%
%ADD13C,0.00600*%
%ADD14C,0.01414*%
D10*
X0001500Y0002000D02*
X0001500Y0335000D01*
X1301000Y0335000D01*
X1301000Y0002000D01*
X0001500Y0002000D01*
X0130749Y0117346D02*
X0130751Y0117504D01*
X0130757Y0117662D01*
X0130767Y0117820D01*
X0130781Y0117978D01*
X0130799Y0118135D01*
X0130820Y0118292D01*
X0130846Y0118448D01*
X0130876Y0118604D01*
X0130909Y0118759D01*
X0130947Y0118912D01*
X0130988Y0119065D01*
X0131033Y0119217D01*
X0131082Y0119368D01*
X0131135Y0119517D01*
X0131191Y0119665D01*
X0131251Y0119811D01*
X0131315Y0119956D01*
X0131383Y0120099D01*
X0131454Y0120241D01*
X0131528Y0120381D01*
X0131606Y0120518D01*
X0131688Y0120654D01*
X0131772Y0120788D01*
X0131861Y0120919D01*
X0131952Y0121048D01*
X0132047Y0121175D01*
X0132144Y0121300D01*
X0132245Y0121422D01*
X0132349Y0121541D01*
X0132456Y0121658D01*
X0132566Y0121772D01*
X0132679Y0121883D01*
X0132794Y0121992D01*
X0132912Y0122097D01*
X0133033Y0122199D01*
X0133156Y0122299D01*
X0133282Y0122395D01*
X0133410Y0122488D01*
X0133540Y0122578D01*
X0133673Y0122664D01*
X0133808Y0122748D01*
X0133944Y0122827D01*
X0134083Y0122904D01*
X0134224Y0122976D01*
X0134366Y0123046D01*
X0134510Y0123111D01*
X0134656Y0123173D01*
X0134803Y0123231D01*
X0134952Y0123286D01*
X0135102Y0123337D01*
X0135253Y0123384D01*
X0135405Y0123427D01*
X0135558Y0123466D01*
X0135713Y0123502D01*
X0135868Y0123533D01*
X0136024Y0123561D01*
X0136180Y0123585D01*
X0136337Y0123605D01*
X0136495Y0123621D01*
X0136652Y0123633D01*
X0136811Y0123641D01*
X0136969Y0123645D01*
X0137127Y0123645D01*
X0137285Y0123641D01*
X0137444Y0123633D01*
X0137601Y0123621D01*
X0137759Y0123605D01*
X0137916Y0123585D01*
X0138072Y0123561D01*
X0138228Y0123533D01*
X0138383Y0123502D01*
X0138538Y0123466D01*
X0138691Y0123427D01*
X0138843Y0123384D01*
X0138994Y0123337D01*
X0139144Y0123286D01*
X0139293Y0123231D01*
X0139440Y0123173D01*
X0139586Y0123111D01*
X0139730Y0123046D01*
X0139872Y0122976D01*
X0140013Y0122904D01*
X0140152Y0122827D01*
X0140288Y0122748D01*
X0140423Y0122664D01*
X0140556Y0122578D01*
X0140686Y0122488D01*
X0140814Y0122395D01*
X0140940Y0122299D01*
X0141063Y0122199D01*
X0141184Y0122097D01*
X0141302Y0121992D01*
X0141417Y0121883D01*
X0141530Y0121772D01*
X0141640Y0121658D01*
X0141747Y0121541D01*
X0141851Y0121422D01*
X0141952Y0121300D01*
X0142049Y0121175D01*
X0142144Y0121048D01*
X0142235Y0120919D01*
X0142324Y0120788D01*
X0142408Y0120654D01*
X0142490Y0120518D01*
X0142568Y0120381D01*
X0142642Y0120241D01*
X0142713Y0120099D01*
X0142781Y0119956D01*
X0142845Y0119811D01*
X0142905Y0119665D01*
X0142961Y0119517D01*
X0143014Y0119368D01*
X0143063Y0119217D01*
X0143108Y0119065D01*
X0143149Y0118912D01*
X0143187Y0118759D01*
X0143220Y0118604D01*
X0143250Y0118448D01*
X0143276Y0118292D01*
X0143297Y0118135D01*
X0143315Y0117978D01*
X0143329Y0117820D01*
X0143339Y0117662D01*
X0143345Y0117504D01*
X0143347Y0117346D01*
X0143345Y0117188D01*
X0143339Y0117030D01*
X0143329Y0116872D01*
X0143315Y0116714D01*
X0143297Y0116557D01*
X0143276Y0116400D01*
X0143250Y0116244D01*
X0143220Y0116088D01*
X0143187Y0115933D01*
X0143149Y0115780D01*
X0143108Y0115627D01*
X0143063Y0115475D01*
X0143014Y0115324D01*
X0142961Y0115175D01*
X0142905Y0115027D01*
X0142845Y0114881D01*
X0142781Y0114736D01*
X0142713Y0114593D01*
X0142642Y0114451D01*
X0142568Y0114311D01*
X0142490Y0114174D01*
X0142408Y0114038D01*
X0142324Y0113904D01*
X0142235Y0113773D01*
X0142144Y0113644D01*
X0142049Y0113517D01*
X0141952Y0113392D01*
X0141851Y0113270D01*
X0141747Y0113151D01*
X0141640Y0113034D01*
X0141530Y0112920D01*
X0141417Y0112809D01*
X0141302Y0112700D01*
X0141184Y0112595D01*
X0141063Y0112493D01*
X0140940Y0112393D01*
X0140814Y0112297D01*
X0140686Y0112204D01*
X0140556Y0112114D01*
X0140423Y0112028D01*
X0140288Y0111944D01*
X0140152Y0111865D01*
X0140013Y0111788D01*
X0139872Y0111716D01*
X0139730Y0111646D01*
X0139586Y0111581D01*
X0139440Y0111519D01*
X0139293Y0111461D01*
X0139144Y0111406D01*
X0138994Y0111355D01*
X0138843Y0111308D01*
X0138691Y0111265D01*
X0138538Y0111226D01*
X0138383Y0111190D01*
X0138228Y0111159D01*
X0138072Y0111131D01*
X0137916Y0111107D01*
X0137759Y0111087D01*
X0137601Y0111071D01*
X0137444Y0111059D01*
X0137285Y0111051D01*
X0137127Y0111047D01*
X0136969Y0111047D01*
X0136811Y0111051D01*
X0136652Y0111059D01*
X0136495Y0111071D01*
X0136337Y0111087D01*
X0136180Y0111107D01*
X0136024Y0111131D01*
X0135868Y0111159D01*
X0135713Y0111190D01*
X0135558Y0111226D01*
X0135405Y0111265D01*
X0135253Y0111308D01*
X0135102Y0111355D01*
X0134952Y0111406D01*
X0134803Y0111461D01*
X0134656Y0111519D01*
X0134510Y0111581D01*
X0134366Y0111646D01*
X0134224Y0111716D01*
X0134083Y0111788D01*
X0133944Y0111865D01*
X0133808Y0111944D01*
X0133673Y0112028D01*
X0133540Y0112114D01*
X0133410Y0112204D01*
X0133282Y0112297D01*
X0133156Y0112393D01*
X0133033Y0112493D01*
X0132912Y0112595D01*
X0132794Y0112700D01*
X0132679Y0112809D01*
X0132566Y0112920D01*
X0132456Y0113034D01*
X0132349Y0113151D01*
X0132245Y0113270D01*
X0132144Y0113392D01*
X0132047Y0113517D01*
X0131952Y0113644D01*
X0131861Y0113773D01*
X0131772Y0113904D01*
X0131688Y0114038D01*
X0131606Y0114174D01*
X0131528Y0114311D01*
X0131454Y0114451D01*
X0131383Y0114593D01*
X0131315Y0114736D01*
X0131251Y0114881D01*
X0131191Y0115027D01*
X0131135Y0115175D01*
X0131082Y0115324D01*
X0131033Y0115475D01*
X0130988Y0115627D01*
X0130947Y0115780D01*
X0130909Y0115933D01*
X0130876Y0116088D01*
X0130846Y0116244D01*
X0130820Y0116400D01*
X0130799Y0116557D01*
X0130781Y0116714D01*
X0130767Y0116872D01*
X0130757Y0117030D01*
X0130751Y0117188D01*
X0130749Y0117346D01*
X0504578Y0117346D02*
X0504580Y0117504D01*
X0504586Y0117662D01*
X0504596Y0117820D01*
X0504610Y0117978D01*
X0504628Y0118135D01*
X0504649Y0118292D01*
X0504675Y0118448D01*
X0504705Y0118604D01*
X0504738Y0118759D01*
X0504776Y0118912D01*
X0504817Y0119065D01*
X0504862Y0119217D01*
X0504911Y0119368D01*
X0504964Y0119517D01*
X0505020Y0119665D01*
X0505080Y0119811D01*
X0505144Y0119956D01*
X0505212Y0120099D01*
X0505283Y0120241D01*
X0505357Y0120381D01*
X0505435Y0120518D01*
X0505517Y0120654D01*
X0505601Y0120788D01*
X0505690Y0120919D01*
X0505781Y0121048D01*
X0505876Y0121175D01*
X0505973Y0121300D01*
X0506074Y0121422D01*
X0506178Y0121541D01*
X0506285Y0121658D01*
X0506395Y0121772D01*
X0506508Y0121883D01*
X0506623Y0121992D01*
X0506741Y0122097D01*
X0506862Y0122199D01*
X0506985Y0122299D01*
X0507111Y0122395D01*
X0507239Y0122488D01*
X0507369Y0122578D01*
X0507502Y0122664D01*
X0507637Y0122748D01*
X0507773Y0122827D01*
X0507912Y0122904D01*
X0508053Y0122976D01*
X0508195Y0123046D01*
X0508339Y0123111D01*
X0508485Y0123173D01*
X0508632Y0123231D01*
X0508781Y0123286D01*
X0508931Y0123337D01*
X0509082Y0123384D01*
X0509234Y0123427D01*
X0509387Y0123466D01*
X0509542Y0123502D01*
X0509697Y0123533D01*
X0509853Y0123561D01*
X0510009Y0123585D01*
X0510166Y0123605D01*
X0510324Y0123621D01*
X0510481Y0123633D01*
X0510640Y0123641D01*
X0510798Y0123645D01*
X0510956Y0123645D01*
X0511114Y0123641D01*
X0511273Y0123633D01*
X0511430Y0123621D01*
X0511588Y0123605D01*
X0511745Y0123585D01*
X0511901Y0123561D01*
X0512057Y0123533D01*
X0512212Y0123502D01*
X0512367Y0123466D01*
X0512520Y0123427D01*
X0512672Y0123384D01*
X0512823Y0123337D01*
X0512973Y0123286D01*
X0513122Y0123231D01*
X0513269Y0123173D01*
X0513415Y0123111D01*
X0513559Y0123046D01*
X0513701Y0122976D01*
X0513842Y0122904D01*
X0513981Y0122827D01*
X0514117Y0122748D01*
X0514252Y0122664D01*
X0514385Y0122578D01*
X0514515Y0122488D01*
X0514643Y0122395D01*
X0514769Y0122299D01*
X0514892Y0122199D01*
X0515013Y0122097D01*
X0515131Y0121992D01*
X0515246Y0121883D01*
X0515359Y0121772D01*
X0515469Y0121658D01*
X0515576Y0121541D01*
X0515680Y0121422D01*
X0515781Y0121300D01*
X0515878Y0121175D01*
X0515973Y0121048D01*
X0516064Y0120919D01*
X0516153Y0120788D01*
X0516237Y0120654D01*
X0516319Y0120518D01*
X0516397Y0120381D01*
X0516471Y0120241D01*
X0516542Y0120099D01*
X0516610Y0119956D01*
X0516674Y0119811D01*
X0516734Y0119665D01*
X0516790Y0119517D01*
X0516843Y0119368D01*
X0516892Y0119217D01*
X0516937Y0119065D01*
X0516978Y0118912D01*
X0517016Y0118759D01*
X0517049Y0118604D01*
X0517079Y0118448D01*
X0517105Y0118292D01*
X0517126Y0118135D01*
X0517144Y0117978D01*
X0517158Y0117820D01*
X0517168Y0117662D01*
X0517174Y0117504D01*
X0517176Y0117346D01*
X0517174Y0117188D01*
X0517168Y0117030D01*
X0517158Y0116872D01*
X0517144Y0116714D01*
X0517126Y0116557D01*
X0517105Y0116400D01*
X0517079Y0116244D01*
X0517049Y0116088D01*
X0517016Y0115933D01*
X0516978Y0115780D01*
X0516937Y0115627D01*
X0516892Y0115475D01*
X0516843Y0115324D01*
X0516790Y0115175D01*
X0516734Y0115027D01*
X0516674Y0114881D01*
X0516610Y0114736D01*
X0516542Y0114593D01*
X0516471Y0114451D01*
X0516397Y0114311D01*
X0516319Y0114174D01*
X0516237Y0114038D01*
X0516153Y0113904D01*
X0516064Y0113773D01*
X0515973Y0113644D01*
X0515878Y0113517D01*
X0515781Y0113392D01*
X0515680Y0113270D01*
X0515576Y0113151D01*
X0515469Y0113034D01*
X0515359Y0112920D01*
X0515246Y0112809D01*
X0515131Y0112700D01*
X0515013Y0112595D01*
X0514892Y0112493D01*
X0514769Y0112393D01*
X0514643Y0112297D01*
X0514515Y0112204D01*
X0514385Y0112114D01*
X0514252Y0112028D01*
X0514117Y0111944D01*
X0513981Y0111865D01*
X0513842Y0111788D01*
X0513701Y0111716D01*
X0513559Y0111646D01*
X0513415Y0111581D01*
X0513269Y0111519D01*
X0513122Y0111461D01*
X0512973Y0111406D01*
X0512823Y0111355D01*
X0512672Y0111308D01*
X0512520Y0111265D01*
X0512367Y0111226D01*
X0512212Y0111190D01*
X0512057Y0111159D01*
X0511901Y0111131D01*
X0511745Y0111107D01*
X0511588Y0111087D01*
X0511430Y0111071D01*
X0511273Y0111059D01*
X0511114Y0111051D01*
X0510956Y0111047D01*
X0510798Y0111047D01*
X0510640Y0111051D01*
X0510481Y0111059D01*
X0510324Y0111071D01*
X0510166Y0111087D01*
X0510009Y0111107D01*
X0509853Y0111131D01*
X0509697Y0111159D01*
X0509542Y0111190D01*
X0509387Y0111226D01*
X0509234Y0111265D01*
X0509082Y0111308D01*
X0508931Y0111355D01*
X0508781Y0111406D01*
X0508632Y0111461D01*
X0508485Y0111519D01*
X0508339Y0111581D01*
X0508195Y0111646D01*
X0508053Y0111716D01*
X0507912Y0111788D01*
X0507773Y0111865D01*
X0507637Y0111944D01*
X0507502Y0112028D01*
X0507369Y0112114D01*
X0507239Y0112204D01*
X0507111Y0112297D01*
X0506985Y0112393D01*
X0506862Y0112493D01*
X0506741Y0112595D01*
X0506623Y0112700D01*
X0506508Y0112809D01*
X0506395Y0112920D01*
X0506285Y0113034D01*
X0506178Y0113151D01*
X0506074Y0113270D01*
X0505973Y0113392D01*
X0505876Y0113517D01*
X0505781Y0113644D01*
X0505690Y0113773D01*
X0505601Y0113904D01*
X0505517Y0114038D01*
X0505435Y0114174D01*
X0505357Y0114311D01*
X0505283Y0114451D01*
X0505212Y0114593D01*
X0505144Y0114736D01*
X0505080Y0114881D01*
X0505020Y0115027D01*
X0504964Y0115175D01*
X0504911Y0115324D01*
X0504862Y0115475D01*
X0504817Y0115627D01*
X0504776Y0115780D01*
X0504738Y0115933D01*
X0504705Y0116088D01*
X0504675Y0116244D01*
X0504649Y0116400D01*
X0504628Y0116557D01*
X0504610Y0116714D01*
X0504596Y0116872D01*
X0504586Y0117030D01*
X0504580Y0117188D01*
X0504578Y0117346D01*
X0504578Y0229551D02*
X0504580Y0229709D01*
X0504586Y0229867D01*
X0504596Y0230025D01*
X0504610Y0230183D01*
X0504628Y0230340D01*
X0504649Y0230497D01*
X0504675Y0230653D01*
X0504705Y0230809D01*
X0504738Y0230964D01*
X0504776Y0231117D01*
X0504817Y0231270D01*
X0504862Y0231422D01*
X0504911Y0231573D01*
X0504964Y0231722D01*
X0505020Y0231870D01*
X0505080Y0232016D01*
X0505144Y0232161D01*
X0505212Y0232304D01*
X0505283Y0232446D01*
X0505357Y0232586D01*
X0505435Y0232723D01*
X0505517Y0232859D01*
X0505601Y0232993D01*
X0505690Y0233124D01*
X0505781Y0233253D01*
X0505876Y0233380D01*
X0505973Y0233505D01*
X0506074Y0233627D01*
X0506178Y0233746D01*
X0506285Y0233863D01*
X0506395Y0233977D01*
X0506508Y0234088D01*
X0506623Y0234197D01*
X0506741Y0234302D01*
X0506862Y0234404D01*
X0506985Y0234504D01*
X0507111Y0234600D01*
X0507239Y0234693D01*
X0507369Y0234783D01*
X0507502Y0234869D01*
X0507637Y0234953D01*
X0507773Y0235032D01*
X0507912Y0235109D01*
X0508053Y0235181D01*
X0508195Y0235251D01*
X0508339Y0235316D01*
X0508485Y0235378D01*
X0508632Y0235436D01*
X0508781Y0235491D01*
X0508931Y0235542D01*
X0509082Y0235589D01*
X0509234Y0235632D01*
X0509387Y0235671D01*
X0509542Y0235707D01*
X0509697Y0235738D01*
X0509853Y0235766D01*
X0510009Y0235790D01*
X0510166Y0235810D01*
X0510324Y0235826D01*
X0510481Y0235838D01*
X0510640Y0235846D01*
X0510798Y0235850D01*
X0510956Y0235850D01*
X0511114Y0235846D01*
X0511273Y0235838D01*
X0511430Y0235826D01*
X0511588Y0235810D01*
X0511745Y0235790D01*
X0511901Y0235766D01*
X0512057Y0235738D01*
X0512212Y0235707D01*
X0512367Y0235671D01*
X0512520Y0235632D01*
X0512672Y0235589D01*
X0512823Y0235542D01*
X0512973Y0235491D01*
X0513122Y0235436D01*
X0513269Y0235378D01*
X0513415Y0235316D01*
X0513559Y0235251D01*
X0513701Y0235181D01*
X0513842Y0235109D01*
X0513981Y0235032D01*
X0514117Y0234953D01*
X0514252Y0234869D01*
X0514385Y0234783D01*
X0514515Y0234693D01*
X0514643Y0234600D01*
X0514769Y0234504D01*
X0514892Y0234404D01*
X0515013Y0234302D01*
X0515131Y0234197D01*
X0515246Y0234088D01*
X0515359Y0233977D01*
X0515469Y0233863D01*
X0515576Y0233746D01*
X0515680Y0233627D01*
X0515781Y0233505D01*
X0515878Y0233380D01*
X0515973Y0233253D01*
X0516064Y0233124D01*
X0516153Y0232993D01*
X0516237Y0232859D01*
X0516319Y0232723D01*
X0516397Y0232586D01*
X0516471Y0232446D01*
X0516542Y0232304D01*
X0516610Y0232161D01*
X0516674Y0232016D01*
X0516734Y0231870D01*
X0516790Y0231722D01*
X0516843Y0231573D01*
X0516892Y0231422D01*
X0516937Y0231270D01*
X0516978Y0231117D01*
X0517016Y0230964D01*
X0517049Y0230809D01*
X0517079Y0230653D01*
X0517105Y0230497D01*
X0517126Y0230340D01*
X0517144Y0230183D01*
X0517158Y0230025D01*
X0517168Y0229867D01*
X0517174Y0229709D01*
X0517176Y0229551D01*
X0517174Y0229393D01*
X0517168Y0229235D01*
X0517158Y0229077D01*
X0517144Y0228919D01*
X0517126Y0228762D01*
X0517105Y0228605D01*
X0517079Y0228449D01*
X0517049Y0228293D01*
X0517016Y0228138D01*
X0516978Y0227985D01*
X0516937Y0227832D01*
X0516892Y0227680D01*
X0516843Y0227529D01*
X0516790Y0227380D01*
X0516734Y0227232D01*
X0516674Y0227086D01*
X0516610Y0226941D01*
X0516542Y0226798D01*
X0516471Y0226656D01*
X0516397Y0226516D01*
X0516319Y0226379D01*
X0516237Y0226243D01*
X0516153Y0226109D01*
X0516064Y0225978D01*
X0515973Y0225849D01*
X0515878Y0225722D01*
X0515781Y0225597D01*
X0515680Y0225475D01*
X0515576Y0225356D01*
X0515469Y0225239D01*
X0515359Y0225125D01*
X0515246Y0225014D01*
X0515131Y0224905D01*
X0515013Y0224800D01*
X0514892Y0224698D01*
X0514769Y0224598D01*
X0514643Y0224502D01*
X0514515Y0224409D01*
X0514385Y0224319D01*
X0514252Y0224233D01*
X0514117Y0224149D01*
X0513981Y0224070D01*
X0513842Y0223993D01*
X0513701Y0223921D01*
X0513559Y0223851D01*
X0513415Y0223786D01*
X0513269Y0223724D01*
X0513122Y0223666D01*
X0512973Y0223611D01*
X0512823Y0223560D01*
X0512672Y0223513D01*
X0512520Y0223470D01*
X0512367Y0223431D01*
X0512212Y0223395D01*
X0512057Y0223364D01*
X0511901Y0223336D01*
X0511745Y0223312D01*
X0511588Y0223292D01*
X0511430Y0223276D01*
X0511273Y0223264D01*
X0511114Y0223256D01*
X0510956Y0223252D01*
X0510798Y0223252D01*
X0510640Y0223256D01*
X0510481Y0223264D01*
X0510324Y0223276D01*
X0510166Y0223292D01*
X0510009Y0223312D01*
X0509853Y0223336D01*
X0509697Y0223364D01*
X0509542Y0223395D01*
X0509387Y0223431D01*
X0509234Y0223470D01*
X0509082Y0223513D01*
X0508931Y0223560D01*
X0508781Y0223611D01*
X0508632Y0223666D01*
X0508485Y0223724D01*
X0508339Y0223786D01*
X0508195Y0223851D01*
X0508053Y0223921D01*
X0507912Y0223993D01*
X0507773Y0224070D01*
X0507637Y0224149D01*
X0507502Y0224233D01*
X0507369Y0224319D01*
X0507239Y0224409D01*
X0507111Y0224502D01*
X0506985Y0224598D01*
X0506862Y0224698D01*
X0506741Y0224800D01*
X0506623Y0224905D01*
X0506508Y0225014D01*
X0506395Y0225125D01*
X0506285Y0225239D01*
X0506178Y0225356D01*
X0506074Y0225475D01*
X0505973Y0225597D01*
X0505876Y0225722D01*
X0505781Y0225849D01*
X0505690Y0225978D01*
X0505601Y0226109D01*
X0505517Y0226243D01*
X0505435Y0226379D01*
X0505357Y0226516D01*
X0505283Y0226656D01*
X0505212Y0226798D01*
X0505144Y0226941D01*
X0505080Y0227086D01*
X0505020Y0227232D01*
X0504964Y0227380D01*
X0504911Y0227529D01*
X0504862Y0227680D01*
X0504817Y0227832D01*
X0504776Y0227985D01*
X0504738Y0228138D01*
X0504705Y0228293D01*
X0504675Y0228449D01*
X0504649Y0228605D01*
X0504628Y0228762D01*
X0504610Y0228919D01*
X0504596Y0229077D01*
X0504586Y0229235D01*
X0504580Y0229393D01*
X0504578Y0229551D01*
X0242941Y0301783D02*
X0242943Y0301884D01*
X0242949Y0301985D01*
X0242959Y0302086D01*
X0242973Y0302186D01*
X0242991Y0302285D01*
X0243013Y0302384D01*
X0243038Y0302482D01*
X0243068Y0302579D01*
X0243101Y0302674D01*
X0243138Y0302768D01*
X0243179Y0302861D01*
X0243223Y0302952D01*
X0243271Y0303041D01*
X0243323Y0303128D01*
X0243378Y0303213D01*
X0243436Y0303295D01*
X0243497Y0303376D01*
X0243562Y0303454D01*
X0243629Y0303529D01*
X0243699Y0303601D01*
X0243773Y0303671D01*
X0243849Y0303738D01*
X0243927Y0303802D01*
X0244008Y0303862D01*
X0244091Y0303919D01*
X0244177Y0303973D01*
X0244265Y0304024D01*
X0244354Y0304071D01*
X0244445Y0304115D01*
X0244538Y0304154D01*
X0244633Y0304191D01*
X0244728Y0304223D01*
X0244825Y0304252D01*
X0244924Y0304276D01*
X0245022Y0304297D01*
X0245122Y0304314D01*
X0245222Y0304327D01*
X0245323Y0304336D01*
X0245424Y0304341D01*
X0245525Y0304342D01*
X0245626Y0304339D01*
X0245727Y0304332D01*
X0245828Y0304321D01*
X0245928Y0304306D01*
X0246027Y0304287D01*
X0246126Y0304264D01*
X0246223Y0304238D01*
X0246320Y0304207D01*
X0246415Y0304173D01*
X0246508Y0304135D01*
X0246601Y0304093D01*
X0246691Y0304048D01*
X0246780Y0303999D01*
X0246866Y0303947D01*
X0246950Y0303891D01*
X0247033Y0303832D01*
X0247112Y0303770D01*
X0247190Y0303705D01*
X0247264Y0303637D01*
X0247336Y0303565D01*
X0247405Y0303492D01*
X0247471Y0303415D01*
X0247534Y0303336D01*
X0247594Y0303254D01*
X0247650Y0303170D01*
X0247703Y0303084D01*
X0247753Y0302996D01*
X0247799Y0302906D01*
X0247842Y0302815D01*
X0247881Y0302721D01*
X0247916Y0302626D01*
X0247947Y0302530D01*
X0247975Y0302433D01*
X0247999Y0302335D01*
X0248019Y0302236D01*
X0248035Y0302136D01*
X0248047Y0302035D01*
X0248055Y0301935D01*
X0248059Y0301834D01*
X0248059Y0301732D01*
X0248055Y0301631D01*
X0248047Y0301531D01*
X0248035Y0301430D01*
X0248019Y0301330D01*
X0247999Y0301231D01*
X0247975Y0301133D01*
X0247947Y0301036D01*
X0247916Y0300940D01*
X0247881Y0300845D01*
X0247842Y0300751D01*
X0247799Y0300660D01*
X0247753Y0300570D01*
X0247703Y0300482D01*
X0247650Y0300396D01*
X0247594Y0300312D01*
X0247534Y0300230D01*
X0247471Y0300151D01*
X0247405Y0300074D01*
X0247336Y0300001D01*
X0247264Y0299929D01*
X0247190Y0299861D01*
X0247112Y0299796D01*
X0247033Y0299734D01*
X0246950Y0299675D01*
X0246866Y0299619D01*
X0246779Y0299567D01*
X0246691Y0299518D01*
X0246601Y0299473D01*
X0246508Y0299431D01*
X0246415Y0299393D01*
X0246320Y0299359D01*
X0246223Y0299328D01*
X0246126Y0299302D01*
X0246027Y0299279D01*
X0245928Y0299260D01*
X0245828Y0299245D01*
X0245727Y0299234D01*
X0245626Y0299227D01*
X0245525Y0299224D01*
X0245424Y0299225D01*
X0245323Y0299230D01*
X0245222Y0299239D01*
X0245122Y0299252D01*
X0245022Y0299269D01*
X0244924Y0299290D01*
X0244825Y0299314D01*
X0244728Y0299343D01*
X0244633Y0299375D01*
X0244538Y0299412D01*
X0244445Y0299451D01*
X0244354Y0299495D01*
X0244265Y0299542D01*
X0244177Y0299593D01*
X0244091Y0299647D01*
X0244008Y0299704D01*
X0243927Y0299764D01*
X0243849Y0299828D01*
X0243773Y0299895D01*
X0243699Y0299965D01*
X0243629Y0300037D01*
X0243562Y0300112D01*
X0243497Y0300190D01*
X0243436Y0300271D01*
X0243378Y0300353D01*
X0243323Y0300438D01*
X0243271Y0300525D01*
X0243223Y0300614D01*
X0243179Y0300705D01*
X0243138Y0300798D01*
X0243101Y0300892D01*
X0243068Y0300987D01*
X0243038Y0301084D01*
X0243013Y0301182D01*
X0242991Y0301281D01*
X0242973Y0301380D01*
X0242959Y0301480D01*
X0242949Y0301581D01*
X0242943Y0301682D01*
X0242941Y0301783D01*
X0223256Y0321469D02*
X0223258Y0321570D01*
X0223264Y0321671D01*
X0223274Y0321772D01*
X0223288Y0321872D01*
X0223306Y0321971D01*
X0223328Y0322070D01*
X0223353Y0322168D01*
X0223383Y0322265D01*
X0223416Y0322360D01*
X0223453Y0322454D01*
X0223494Y0322547D01*
X0223538Y0322638D01*
X0223586Y0322727D01*
X0223638Y0322814D01*
X0223693Y0322899D01*
X0223751Y0322981D01*
X0223812Y0323062D01*
X0223877Y0323140D01*
X0223944Y0323215D01*
X0224014Y0323287D01*
X0224088Y0323357D01*
X0224164Y0323424D01*
X0224242Y0323488D01*
X0224323Y0323548D01*
X0224406Y0323605D01*
X0224492Y0323659D01*
X0224580Y0323710D01*
X0224669Y0323757D01*
X0224760Y0323801D01*
X0224853Y0323840D01*
X0224948Y0323877D01*
X0225043Y0323909D01*
X0225140Y0323938D01*
X0225239Y0323962D01*
X0225337Y0323983D01*
X0225437Y0324000D01*
X0225537Y0324013D01*
X0225638Y0324022D01*
X0225739Y0324027D01*
X0225840Y0324028D01*
X0225941Y0324025D01*
X0226042Y0324018D01*
X0226143Y0324007D01*
X0226243Y0323992D01*
X0226342Y0323973D01*
X0226441Y0323950D01*
X0226538Y0323924D01*
X0226635Y0323893D01*
X0226730Y0323859D01*
X0226823Y0323821D01*
X0226916Y0323779D01*
X0227006Y0323734D01*
X0227095Y0323685D01*
X0227181Y0323633D01*
X0227265Y0323577D01*
X0227348Y0323518D01*
X0227427Y0323456D01*
X0227505Y0323391D01*
X0227579Y0323323D01*
X0227651Y0323251D01*
X0227720Y0323178D01*
X0227786Y0323101D01*
X0227849Y0323022D01*
X0227909Y0322940D01*
X0227965Y0322856D01*
X0228018Y0322770D01*
X0228068Y0322682D01*
X0228114Y0322592D01*
X0228157Y0322501D01*
X0228196Y0322407D01*
X0228231Y0322312D01*
X0228262Y0322216D01*
X0228290Y0322119D01*
X0228314Y0322021D01*
X0228334Y0321922D01*
X0228350Y0321822D01*
X0228362Y0321721D01*
X0228370Y0321621D01*
X0228374Y0321520D01*
X0228374Y0321418D01*
X0228370Y0321317D01*
X0228362Y0321217D01*
X0228350Y0321116D01*
X0228334Y0321016D01*
X0228314Y0320917D01*
X0228290Y0320819D01*
X0228262Y0320722D01*
X0228231Y0320626D01*
X0228196Y0320531D01*
X0228157Y0320437D01*
X0228114Y0320346D01*
X0228068Y0320256D01*
X0228018Y0320168D01*
X0227965Y0320082D01*
X0227909Y0319998D01*
X0227849Y0319916D01*
X0227786Y0319837D01*
X0227720Y0319760D01*
X0227651Y0319687D01*
X0227579Y0319615D01*
X0227505Y0319547D01*
X0227427Y0319482D01*
X0227348Y0319420D01*
X0227265Y0319361D01*
X0227181Y0319305D01*
X0227094Y0319253D01*
X0227006Y0319204D01*
X0226916Y0319159D01*
X0226823Y0319117D01*
X0226730Y0319079D01*
X0226635Y0319045D01*
X0226538Y0319014D01*
X0226441Y0318988D01*
X0226342Y0318965D01*
X0226243Y0318946D01*
X0226143Y0318931D01*
X0226042Y0318920D01*
X0225941Y0318913D01*
X0225840Y0318910D01*
X0225739Y0318911D01*
X0225638Y0318916D01*
X0225537Y0318925D01*
X0225437Y0318938D01*
X0225337Y0318955D01*
X0225239Y0318976D01*
X0225140Y0319000D01*
X0225043Y0319029D01*
X0224948Y0319061D01*
X0224853Y0319098D01*
X0224760Y0319137D01*
X0224669Y0319181D01*
X0224580Y0319228D01*
X0224492Y0319279D01*
X0224406Y0319333D01*
X0224323Y0319390D01*
X0224242Y0319450D01*
X0224164Y0319514D01*
X0224088Y0319581D01*
X0224014Y0319651D01*
X0223944Y0319723D01*
X0223877Y0319798D01*
X0223812Y0319876D01*
X0223751Y0319957D01*
X0223693Y0320039D01*
X0223638Y0320124D01*
X0223586Y0320211D01*
X0223538Y0320300D01*
X0223494Y0320391D01*
X0223453Y0320484D01*
X0223416Y0320578D01*
X0223383Y0320673D01*
X0223353Y0320770D01*
X0223328Y0320868D01*
X0223306Y0320967D01*
X0223288Y0321066D01*
X0223274Y0321166D01*
X0223264Y0321267D01*
X0223258Y0321368D01*
X0223256Y0321469D01*
X0223256Y0331311D02*
X0223258Y0331412D01*
X0223264Y0331513D01*
X0223274Y0331614D01*
X0223288Y0331714D01*
X0223306Y0331813D01*
X0223328Y0331912D01*
X0223353Y0332010D01*
X0223383Y0332107D01*
X0223416Y0332202D01*
X0223453Y0332296D01*
X0223494Y0332389D01*
X0223538Y0332480D01*
X0223586Y0332569D01*
X0223638Y0332656D01*
X0223693Y0332741D01*
X0223751Y0332823D01*
X0223812Y0332904D01*
X0223877Y0332982D01*
X0223944Y0333057D01*
X0224014Y0333129D01*
X0224088Y0333199D01*
X0224164Y0333266D01*
X0224242Y0333330D01*
X0224323Y0333390D01*
X0224406Y0333447D01*
X0224492Y0333501D01*
X0224580Y0333552D01*
X0224669Y0333599D01*
X0224760Y0333643D01*
X0224853Y0333682D01*
X0224948Y0333719D01*
X0225043Y0333751D01*
X0225140Y0333780D01*
X0225239Y0333804D01*
X0225337Y0333825D01*
X0225437Y0333842D01*
X0225537Y0333855D01*
X0225638Y0333864D01*
X0225739Y0333869D01*
X0225840Y0333870D01*
X0225941Y0333867D01*
X0226042Y0333860D01*
X0226143Y0333849D01*
X0226243Y0333834D01*
X0226342Y0333815D01*
X0226441Y0333792D01*
X0226538Y0333766D01*
X0226635Y0333735D01*
X0226730Y0333701D01*
X0226823Y0333663D01*
X0226916Y0333621D01*
X0227006Y0333576D01*
X0227095Y0333527D01*
X0227181Y0333475D01*
X0227265Y0333419D01*
X0227348Y0333360D01*
X0227427Y0333298D01*
X0227505Y0333233D01*
X0227579Y0333165D01*
X0227651Y0333093D01*
X0227720Y0333020D01*
X0227786Y0332943D01*
X0227849Y0332864D01*
X0227909Y0332782D01*
X0227965Y0332698D01*
X0228018Y0332612D01*
X0228068Y0332524D01*
X0228114Y0332434D01*
X0228157Y0332343D01*
X0228196Y0332249D01*
X0228231Y0332154D01*
X0228262Y0332058D01*
X0228290Y0331961D01*
X0228314Y0331863D01*
X0228334Y0331764D01*
X0228350Y0331664D01*
X0228362Y0331563D01*
X0228370Y0331463D01*
X0228374Y0331362D01*
X0228374Y0331260D01*
X0228370Y0331159D01*
X0228362Y0331059D01*
X0228350Y0330958D01*
X0228334Y0330858D01*
X0228314Y0330759D01*
X0228290Y0330661D01*
X0228262Y0330564D01*
X0228231Y0330468D01*
X0228196Y0330373D01*
X0228157Y0330279D01*
X0228114Y0330188D01*
X0228068Y0330098D01*
X0228018Y0330010D01*
X0227965Y0329924D01*
X0227909Y0329840D01*
X0227849Y0329758D01*
X0227786Y0329679D01*
X0227720Y0329602D01*
X0227651Y0329529D01*
X0227579Y0329457D01*
X0227505Y0329389D01*
X0227427Y0329324D01*
X0227348Y0329262D01*
X0227265Y0329203D01*
X0227181Y0329147D01*
X0227094Y0329095D01*
X0227006Y0329046D01*
X0226916Y0329001D01*
X0226823Y0328959D01*
X0226730Y0328921D01*
X0226635Y0328887D01*
X0226538Y0328856D01*
X0226441Y0328830D01*
X0226342Y0328807D01*
X0226243Y0328788D01*
X0226143Y0328773D01*
X0226042Y0328762D01*
X0225941Y0328755D01*
X0225840Y0328752D01*
X0225739Y0328753D01*
X0225638Y0328758D01*
X0225537Y0328767D01*
X0225437Y0328780D01*
X0225337Y0328797D01*
X0225239Y0328818D01*
X0225140Y0328842D01*
X0225043Y0328871D01*
X0224948Y0328903D01*
X0224853Y0328940D01*
X0224760Y0328979D01*
X0224669Y0329023D01*
X0224580Y0329070D01*
X0224492Y0329121D01*
X0224406Y0329175D01*
X0224323Y0329232D01*
X0224242Y0329292D01*
X0224164Y0329356D01*
X0224088Y0329423D01*
X0224014Y0329493D01*
X0223944Y0329565D01*
X0223877Y0329640D01*
X0223812Y0329718D01*
X0223751Y0329799D01*
X0223693Y0329881D01*
X0223638Y0329966D01*
X0223586Y0330053D01*
X0223538Y0330142D01*
X0223494Y0330233D01*
X0223453Y0330326D01*
X0223416Y0330420D01*
X0223383Y0330515D01*
X0223353Y0330612D01*
X0223328Y0330710D01*
X0223306Y0330809D01*
X0223288Y0330908D01*
X0223274Y0331008D01*
X0223264Y0331109D01*
X0223258Y0331210D01*
X0223256Y0331311D01*
X0262626Y0331311D02*
X0262628Y0331412D01*
X0262634Y0331513D01*
X0262644Y0331614D01*
X0262658Y0331714D01*
X0262676Y0331813D01*
X0262698Y0331912D01*
X0262723Y0332010D01*
X0262753Y0332107D01*
X0262786Y0332202D01*
X0262823Y0332296D01*
X0262864Y0332389D01*
X0262908Y0332480D01*
X0262956Y0332569D01*
X0263008Y0332656D01*
X0263063Y0332741D01*
X0263121Y0332823D01*
X0263182Y0332904D01*
X0263247Y0332982D01*
X0263314Y0333057D01*
X0263384Y0333129D01*
X0263458Y0333199D01*
X0263534Y0333266D01*
X0263612Y0333330D01*
X0263693Y0333390D01*
X0263776Y0333447D01*
X0263862Y0333501D01*
X0263950Y0333552D01*
X0264039Y0333599D01*
X0264130Y0333643D01*
X0264223Y0333682D01*
X0264318Y0333719D01*
X0264413Y0333751D01*
X0264510Y0333780D01*
X0264609Y0333804D01*
X0264707Y0333825D01*
X0264807Y0333842D01*
X0264907Y0333855D01*
X0265008Y0333864D01*
X0265109Y0333869D01*
X0265210Y0333870D01*
X0265311Y0333867D01*
X0265412Y0333860D01*
X0265513Y0333849D01*
X0265613Y0333834D01*
X0265712Y0333815D01*
X0265811Y0333792D01*
X0265908Y0333766D01*
X0266005Y0333735D01*
X0266100Y0333701D01*
X0266193Y0333663D01*
X0266286Y0333621D01*
X0266376Y0333576D01*
X0266465Y0333527D01*
X0266551Y0333475D01*
X0266635Y0333419D01*
X0266718Y0333360D01*
X0266797Y0333298D01*
X0266875Y0333233D01*
X0266949Y0333165D01*
X0267021Y0333093D01*
X0267090Y0333020D01*
X0267156Y0332943D01*
X0267219Y0332864D01*
X0267279Y0332782D01*
X0267335Y0332698D01*
X0267388Y0332612D01*
X0267438Y0332524D01*
X0267484Y0332434D01*
X0267527Y0332343D01*
X0267566Y0332249D01*
X0267601Y0332154D01*
X0267632Y0332058D01*
X0267660Y0331961D01*
X0267684Y0331863D01*
X0267704Y0331764D01*
X0267720Y0331664D01*
X0267732Y0331563D01*
X0267740Y0331463D01*
X0267744Y0331362D01*
X0267744Y0331260D01*
X0267740Y0331159D01*
X0267732Y0331059D01*
X0267720Y0330958D01*
X0267704Y0330858D01*
X0267684Y0330759D01*
X0267660Y0330661D01*
X0267632Y0330564D01*
X0267601Y0330468D01*
X0267566Y0330373D01*
X0267527Y0330279D01*
X0267484Y0330188D01*
X0267438Y0330098D01*
X0267388Y0330010D01*
X0267335Y0329924D01*
X0267279Y0329840D01*
X0267219Y0329758D01*
X0267156Y0329679D01*
X0267090Y0329602D01*
X0267021Y0329529D01*
X0266949Y0329457D01*
X0266875Y0329389D01*
X0266797Y0329324D01*
X0266718Y0329262D01*
X0266635Y0329203D01*
X0266551Y0329147D01*
X0266464Y0329095D01*
X0266376Y0329046D01*
X0266286Y0329001D01*
X0266193Y0328959D01*
X0266100Y0328921D01*
X0266005Y0328887D01*
X0265908Y0328856D01*
X0265811Y0328830D01*
X0265712Y0328807D01*
X0265613Y0328788D01*
X0265513Y0328773D01*
X0265412Y0328762D01*
X0265311Y0328755D01*
X0265210Y0328752D01*
X0265109Y0328753D01*
X0265008Y0328758D01*
X0264907Y0328767D01*
X0264807Y0328780D01*
X0264707Y0328797D01*
X0264609Y0328818D01*
X0264510Y0328842D01*
X0264413Y0328871D01*
X0264318Y0328903D01*
X0264223Y0328940D01*
X0264130Y0328979D01*
X0264039Y0329023D01*
X0263950Y0329070D01*
X0263862Y0329121D01*
X0263776Y0329175D01*
X0263693Y0329232D01*
X0263612Y0329292D01*
X0263534Y0329356D01*
X0263458Y0329423D01*
X0263384Y0329493D01*
X0263314Y0329565D01*
X0263247Y0329640D01*
X0263182Y0329718D01*
X0263121Y0329799D01*
X0263063Y0329881D01*
X0263008Y0329966D01*
X0262956Y0330053D01*
X0262908Y0330142D01*
X0262864Y0330233D01*
X0262823Y0330326D01*
X0262786Y0330420D01*
X0262753Y0330515D01*
X0262723Y0330612D01*
X0262698Y0330710D01*
X0262676Y0330809D01*
X0262658Y0330908D01*
X0262644Y0331008D01*
X0262634Y0331109D01*
X0262628Y0331210D01*
X0262626Y0331311D01*
X0262626Y0321469D02*
X0262628Y0321570D01*
X0262634Y0321671D01*
X0262644Y0321772D01*
X0262658Y0321872D01*
X0262676Y0321971D01*
X0262698Y0322070D01*
X0262723Y0322168D01*
X0262753Y0322265D01*
X0262786Y0322360D01*
X0262823Y0322454D01*
X0262864Y0322547D01*
X0262908Y0322638D01*
X0262956Y0322727D01*
X0263008Y0322814D01*
X0263063Y0322899D01*
X0263121Y0322981D01*
X0263182Y0323062D01*
X0263247Y0323140D01*
X0263314Y0323215D01*
X0263384Y0323287D01*
X0263458Y0323357D01*
X0263534Y0323424D01*
X0263612Y0323488D01*
X0263693Y0323548D01*
X0263776Y0323605D01*
X0263862Y0323659D01*
X0263950Y0323710D01*
X0264039Y0323757D01*
X0264130Y0323801D01*
X0264223Y0323840D01*
X0264318Y0323877D01*
X0264413Y0323909D01*
X0264510Y0323938D01*
X0264609Y0323962D01*
X0264707Y0323983D01*
X0264807Y0324000D01*
X0264907Y0324013D01*
X0265008Y0324022D01*
X0265109Y0324027D01*
X0265210Y0324028D01*
X0265311Y0324025D01*
X0265412Y0324018D01*
X0265513Y0324007D01*
X0265613Y0323992D01*
X0265712Y0323973D01*
X0265811Y0323950D01*
X0265908Y0323924D01*
X0266005Y0323893D01*
X0266100Y0323859D01*
X0266193Y0323821D01*
X0266286Y0323779D01*
X0266376Y0323734D01*
X0266465Y0323685D01*
X0266551Y0323633D01*
X0266635Y0323577D01*
X0266718Y0323518D01*
X0266797Y0323456D01*
X0266875Y0323391D01*
X0266949Y0323323D01*
X0267021Y0323251D01*
X0267090Y0323178D01*
X0267156Y0323101D01*
X0267219Y0323022D01*
X0267279Y0322940D01*
X0267335Y0322856D01*
X0267388Y0322770D01*
X0267438Y0322682D01*
X0267484Y0322592D01*
X0267527Y0322501D01*
X0267566Y0322407D01*
X0267601Y0322312D01*
X0267632Y0322216D01*
X0267660Y0322119D01*
X0267684Y0322021D01*
X0267704Y0321922D01*
X0267720Y0321822D01*
X0267732Y0321721D01*
X0267740Y0321621D01*
X0267744Y0321520D01*
X0267744Y0321418D01*
X0267740Y0321317D01*
X0267732Y0321217D01*
X0267720Y0321116D01*
X0267704Y0321016D01*
X0267684Y0320917D01*
X0267660Y0320819D01*
X0267632Y0320722D01*
X0267601Y0320626D01*
X0267566Y0320531D01*
X0267527Y0320437D01*
X0267484Y0320346D01*
X0267438Y0320256D01*
X0267388Y0320168D01*
X0267335Y0320082D01*
X0267279Y0319998D01*
X0267219Y0319916D01*
X0267156Y0319837D01*
X0267090Y0319760D01*
X0267021Y0319687D01*
X0266949Y0319615D01*
X0266875Y0319547D01*
X0266797Y0319482D01*
X0266718Y0319420D01*
X0266635Y0319361D01*
X0266551Y0319305D01*
X0266464Y0319253D01*
X0266376Y0319204D01*
X0266286Y0319159D01*
X0266193Y0319117D01*
X0266100Y0319079D01*
X0266005Y0319045D01*
X0265908Y0319014D01*
X0265811Y0318988D01*
X0265712Y0318965D01*
X0265613Y0318946D01*
X0265513Y0318931D01*
X0265412Y0318920D01*
X0265311Y0318913D01*
X0265210Y0318910D01*
X0265109Y0318911D01*
X0265008Y0318916D01*
X0264907Y0318925D01*
X0264807Y0318938D01*
X0264707Y0318955D01*
X0264609Y0318976D01*
X0264510Y0319000D01*
X0264413Y0319029D01*
X0264318Y0319061D01*
X0264223Y0319098D01*
X0264130Y0319137D01*
X0264039Y0319181D01*
X0263950Y0319228D01*
X0263862Y0319279D01*
X0263776Y0319333D01*
X0263693Y0319390D01*
X0263612Y0319450D01*
X0263534Y0319514D01*
X0263458Y0319581D01*
X0263384Y0319651D01*
X0263314Y0319723D01*
X0263247Y0319798D01*
X0263182Y0319876D01*
X0263121Y0319957D01*
X0263063Y0320039D01*
X0263008Y0320124D01*
X0262956Y0320211D01*
X0262908Y0320300D01*
X0262864Y0320391D01*
X0262823Y0320484D01*
X0262786Y0320578D01*
X0262753Y0320673D01*
X0262723Y0320770D01*
X0262698Y0320868D01*
X0262676Y0320967D01*
X0262658Y0321066D01*
X0262644Y0321166D01*
X0262634Y0321267D01*
X0262628Y0321368D01*
X0262626Y0321469D01*
X0130703Y0229471D02*
X0130705Y0229629D01*
X0130711Y0229787D01*
X0130721Y0229945D01*
X0130735Y0230103D01*
X0130753Y0230260D01*
X0130774Y0230417D01*
X0130800Y0230573D01*
X0130830Y0230729D01*
X0130863Y0230884D01*
X0130901Y0231037D01*
X0130942Y0231190D01*
X0130987Y0231342D01*
X0131036Y0231493D01*
X0131089Y0231642D01*
X0131145Y0231790D01*
X0131205Y0231936D01*
X0131269Y0232081D01*
X0131337Y0232224D01*
X0131408Y0232366D01*
X0131482Y0232506D01*
X0131560Y0232643D01*
X0131642Y0232779D01*
X0131726Y0232913D01*
X0131815Y0233044D01*
X0131906Y0233173D01*
X0132001Y0233300D01*
X0132098Y0233425D01*
X0132199Y0233547D01*
X0132303Y0233666D01*
X0132410Y0233783D01*
X0132520Y0233897D01*
X0132633Y0234008D01*
X0132748Y0234117D01*
X0132866Y0234222D01*
X0132987Y0234324D01*
X0133110Y0234424D01*
X0133236Y0234520D01*
X0133364Y0234613D01*
X0133494Y0234703D01*
X0133627Y0234789D01*
X0133762Y0234873D01*
X0133898Y0234952D01*
X0134037Y0235029D01*
X0134178Y0235101D01*
X0134320Y0235171D01*
X0134464Y0235236D01*
X0134610Y0235298D01*
X0134757Y0235356D01*
X0134906Y0235411D01*
X0135056Y0235462D01*
X0135207Y0235509D01*
X0135359Y0235552D01*
X0135512Y0235591D01*
X0135667Y0235627D01*
X0135822Y0235658D01*
X0135978Y0235686D01*
X0136134Y0235710D01*
X0136291Y0235730D01*
X0136449Y0235746D01*
X0136606Y0235758D01*
X0136765Y0235766D01*
X0136923Y0235770D01*
X0137081Y0235770D01*
X0137239Y0235766D01*
X0137398Y0235758D01*
X0137555Y0235746D01*
X0137713Y0235730D01*
X0137870Y0235710D01*
X0138026Y0235686D01*
X0138182Y0235658D01*
X0138337Y0235627D01*
X0138492Y0235591D01*
X0138645Y0235552D01*
X0138797Y0235509D01*
X0138948Y0235462D01*
X0139098Y0235411D01*
X0139247Y0235356D01*
X0139394Y0235298D01*
X0139540Y0235236D01*
X0139684Y0235171D01*
X0139826Y0235101D01*
X0139967Y0235029D01*
X0140106Y0234952D01*
X0140242Y0234873D01*
X0140377Y0234789D01*
X0140510Y0234703D01*
X0140640Y0234613D01*
X0140768Y0234520D01*
X0140894Y0234424D01*
X0141017Y0234324D01*
X0141138Y0234222D01*
X0141256Y0234117D01*
X0141371Y0234008D01*
X0141484Y0233897D01*
X0141594Y0233783D01*
X0141701Y0233666D01*
X0141805Y0233547D01*
X0141906Y0233425D01*
X0142003Y0233300D01*
X0142098Y0233173D01*
X0142189Y0233044D01*
X0142278Y0232913D01*
X0142362Y0232779D01*
X0142444Y0232643D01*
X0142522Y0232506D01*
X0142596Y0232366D01*
X0142667Y0232224D01*
X0142735Y0232081D01*
X0142799Y0231936D01*
X0142859Y0231790D01*
X0142915Y0231642D01*
X0142968Y0231493D01*
X0143017Y0231342D01*
X0143062Y0231190D01*
X0143103Y0231037D01*
X0143141Y0230884D01*
X0143174Y0230729D01*
X0143204Y0230573D01*
X0143230Y0230417D01*
X0143251Y0230260D01*
X0143269Y0230103D01*
X0143283Y0229945D01*
X0143293Y0229787D01*
X0143299Y0229629D01*
X0143301Y0229471D01*
X0143299Y0229313D01*
X0143293Y0229155D01*
X0143283Y0228997D01*
X0143269Y0228839D01*
X0143251Y0228682D01*
X0143230Y0228525D01*
X0143204Y0228369D01*
X0143174Y0228213D01*
X0143141Y0228058D01*
X0143103Y0227905D01*
X0143062Y0227752D01*
X0143017Y0227600D01*
X0142968Y0227449D01*
X0142915Y0227300D01*
X0142859Y0227152D01*
X0142799Y0227006D01*
X0142735Y0226861D01*
X0142667Y0226718D01*
X0142596Y0226576D01*
X0142522Y0226436D01*
X0142444Y0226299D01*
X0142362Y0226163D01*
X0142278Y0226029D01*
X0142189Y0225898D01*
X0142098Y0225769D01*
X0142003Y0225642D01*
X0141906Y0225517D01*
X0141805Y0225395D01*
X0141701Y0225276D01*
X0141594Y0225159D01*
X0141484Y0225045D01*
X0141371Y0224934D01*
X0141256Y0224825D01*
X0141138Y0224720D01*
X0141017Y0224618D01*
X0140894Y0224518D01*
X0140768Y0224422D01*
X0140640Y0224329D01*
X0140510Y0224239D01*
X0140377Y0224153D01*
X0140242Y0224069D01*
X0140106Y0223990D01*
X0139967Y0223913D01*
X0139826Y0223841D01*
X0139684Y0223771D01*
X0139540Y0223706D01*
X0139394Y0223644D01*
X0139247Y0223586D01*
X0139098Y0223531D01*
X0138948Y0223480D01*
X0138797Y0223433D01*
X0138645Y0223390D01*
X0138492Y0223351D01*
X0138337Y0223315D01*
X0138182Y0223284D01*
X0138026Y0223256D01*
X0137870Y0223232D01*
X0137713Y0223212D01*
X0137555Y0223196D01*
X0137398Y0223184D01*
X0137239Y0223176D01*
X0137081Y0223172D01*
X0136923Y0223172D01*
X0136765Y0223176D01*
X0136606Y0223184D01*
X0136449Y0223196D01*
X0136291Y0223212D01*
X0136134Y0223232D01*
X0135978Y0223256D01*
X0135822Y0223284D01*
X0135667Y0223315D01*
X0135512Y0223351D01*
X0135359Y0223390D01*
X0135207Y0223433D01*
X0135056Y0223480D01*
X0134906Y0223531D01*
X0134757Y0223586D01*
X0134610Y0223644D01*
X0134464Y0223706D01*
X0134320Y0223771D01*
X0134178Y0223841D01*
X0134037Y0223913D01*
X0133898Y0223990D01*
X0133762Y0224069D01*
X0133627Y0224153D01*
X0133494Y0224239D01*
X0133364Y0224329D01*
X0133236Y0224422D01*
X0133110Y0224518D01*
X0132987Y0224618D01*
X0132866Y0224720D01*
X0132748Y0224825D01*
X0132633Y0224934D01*
X0132520Y0225045D01*
X0132410Y0225159D01*
X0132303Y0225276D01*
X0132199Y0225395D01*
X0132098Y0225517D01*
X0132001Y0225642D01*
X0131906Y0225769D01*
X0131815Y0225898D01*
X0131726Y0226029D01*
X0131642Y0226163D01*
X0131560Y0226299D01*
X0131482Y0226436D01*
X0131408Y0226576D01*
X0131337Y0226718D01*
X0131269Y0226861D01*
X0131205Y0227006D01*
X0131145Y0227152D01*
X0131089Y0227300D01*
X0131036Y0227449D01*
X0130987Y0227600D01*
X0130942Y0227752D01*
X0130901Y0227905D01*
X0130863Y0228058D01*
X0130830Y0228213D01*
X0130800Y0228369D01*
X0130774Y0228525D01*
X0130753Y0228682D01*
X0130735Y0228839D01*
X0130721Y0228997D01*
X0130711Y0229155D01*
X0130705Y0229313D01*
X0130703Y0229471D01*
D11*
X0233396Y0203210D02*
X0235498Y0201108D01*
X0235498Y0203910D01*
X0237600Y0203210D02*
X0233396Y0203210D01*
X0234097Y0199306D02*
X0233396Y0198606D01*
X0233396Y0197205D01*
X0234097Y0196504D01*
X0234097Y0194702D02*
X0233396Y0194002D01*
X0233396Y0192601D01*
X0234097Y0191900D01*
X0236899Y0191900D01*
X0237600Y0192601D01*
X0237600Y0194002D01*
X0236899Y0194702D01*
X0237600Y0196504D02*
X0234798Y0199306D01*
X0234097Y0199306D01*
X0237600Y0199306D02*
X0237600Y0196504D01*
X0347396Y0160710D02*
X0347396Y0159308D01*
X0348097Y0158608D01*
X0347396Y0160710D02*
X0348097Y0161410D01*
X0348798Y0161410D01*
X0351600Y0158608D01*
X0351600Y0161410D01*
X0351600Y0156806D02*
X0351600Y0154004D01*
X0351600Y0155405D02*
X0347396Y0155405D01*
X0348798Y0154004D01*
X0348097Y0152202D02*
X0347396Y0151502D01*
X0347396Y0150101D01*
X0348097Y0149400D01*
X0350899Y0149400D01*
X0351600Y0150101D01*
X0351600Y0151502D01*
X0350899Y0152202D01*
X0360197Y0149311D02*
X0360197Y0120689D01*
X0358600Y0122101D02*
X0357899Y0121400D01*
X0354396Y0121400D01*
X0354396Y0124202D02*
X0357899Y0124202D01*
X0358600Y0123502D01*
X0358600Y0122101D01*
X0356498Y0126004D02*
X0356498Y0128806D01*
X0354396Y0128106D02*
X0356498Y0126004D01*
X0358600Y0128106D02*
X0354396Y0128106D01*
X0362155Y0127913D02*
X0362157Y0128013D01*
X0362163Y0128113D01*
X0362173Y0128212D01*
X0362187Y0128311D01*
X0362204Y0128410D01*
X0362226Y0128507D01*
X0362251Y0128604D01*
X0362280Y0128700D01*
X0362313Y0128794D01*
X0362350Y0128887D01*
X0362390Y0128978D01*
X0362434Y0129068D01*
X0362482Y0129156D01*
X0362532Y0129242D01*
X0362587Y0129326D01*
X0362644Y0129408D01*
X0362705Y0129488D01*
X0362768Y0129565D01*
X0362835Y0129639D01*
X0362905Y0129711D01*
X0362977Y0129780D01*
X0363052Y0129846D01*
X0363130Y0129909D01*
X0363210Y0129969D01*
X0363292Y0130025D01*
X0363377Y0130079D01*
X0363464Y0130129D01*
X0363552Y0130175D01*
X0363642Y0130218D01*
X0363734Y0130258D01*
X0363828Y0130293D01*
X0363922Y0130325D01*
X0364018Y0130354D01*
X0364115Y0130378D01*
X0364213Y0130399D01*
X0364311Y0130415D01*
X0364411Y0130428D01*
X0364510Y0130437D01*
X0364610Y0130442D01*
X0364710Y0130443D01*
X0364810Y0130440D01*
X0364910Y0130433D01*
X0365009Y0130422D01*
X0365108Y0130407D01*
X0365206Y0130389D01*
X0365304Y0130366D01*
X0365400Y0130340D01*
X0365495Y0130310D01*
X0365589Y0130276D01*
X0365682Y0130238D01*
X0365773Y0130197D01*
X0365862Y0130152D01*
X0365950Y0130104D01*
X0366036Y0130052D01*
X0366119Y0129997D01*
X0366200Y0129939D01*
X0366279Y0129878D01*
X0366355Y0129813D01*
X0366429Y0129746D01*
X0366500Y0129675D01*
X0366568Y0129602D01*
X0366634Y0129526D01*
X0366696Y0129448D01*
X0366755Y0129368D01*
X0366811Y0129285D01*
X0366863Y0129200D01*
X0366913Y0129113D01*
X0366958Y0129024D01*
X0367000Y0128933D01*
X0367039Y0128841D01*
X0367074Y0128747D01*
X0367105Y0128652D01*
X0367132Y0128556D01*
X0367155Y0128459D01*
X0367175Y0128361D01*
X0367191Y0128262D01*
X0367203Y0128163D01*
X0367211Y0128063D01*
X0367215Y0127963D01*
X0367215Y0127863D01*
X0367211Y0127763D01*
X0367203Y0127663D01*
X0367191Y0127564D01*
X0367175Y0127465D01*
X0367155Y0127367D01*
X0367132Y0127270D01*
X0367105Y0127174D01*
X0367074Y0127079D01*
X0367039Y0126985D01*
X0367000Y0126893D01*
X0366958Y0126802D01*
X0366913Y0126713D01*
X0366863Y0126626D01*
X0366811Y0126541D01*
X0366755Y0126458D01*
X0366696Y0126378D01*
X0366634Y0126300D01*
X0366568Y0126224D01*
X0366500Y0126151D01*
X0366429Y0126080D01*
X0366355Y0126013D01*
X0366279Y0125948D01*
X0366200Y0125887D01*
X0366119Y0125829D01*
X0366036Y0125774D01*
X0365950Y0125722D01*
X0365862Y0125674D01*
X0365773Y0125629D01*
X0365682Y0125588D01*
X0365589Y0125550D01*
X0365495Y0125516D01*
X0365400Y0125486D01*
X0365304Y0125460D01*
X0365206Y0125437D01*
X0365108Y0125419D01*
X0365009Y0125404D01*
X0364910Y0125393D01*
X0364810Y0125386D01*
X0364710Y0125383D01*
X0364610Y0125384D01*
X0364510Y0125389D01*
X0364411Y0125398D01*
X0364311Y0125411D01*
X0364213Y0125427D01*
X0364115Y0125448D01*
X0364018Y0125472D01*
X0363922Y0125501D01*
X0363828Y0125533D01*
X0363734Y0125568D01*
X0363642Y0125608D01*
X0363552Y0125651D01*
X0363464Y0125697D01*
X0363377Y0125747D01*
X0363292Y0125801D01*
X0363210Y0125857D01*
X0363130Y0125917D01*
X0363052Y0125980D01*
X0362977Y0126046D01*
X0362905Y0126115D01*
X0362835Y0126187D01*
X0362768Y0126261D01*
X0362705Y0126338D01*
X0362644Y0126418D01*
X0362587Y0126500D01*
X0362532Y0126584D01*
X0362482Y0126670D01*
X0362434Y0126758D01*
X0362390Y0126848D01*
X0362350Y0126939D01*
X0362313Y0127032D01*
X0362280Y0127126D01*
X0362251Y0127222D01*
X0362226Y0127319D01*
X0362204Y0127416D01*
X0362187Y0127515D01*
X0362173Y0127614D01*
X0362163Y0127713D01*
X0362157Y0127813D01*
X0362155Y0127913D01*
X0419902Y0120689D02*
X0419902Y0149311D01*
X0421396Y0150601D02*
X0422097Y0149900D01*
X0424899Y0149900D01*
X0425600Y0150601D01*
X0425600Y0152002D01*
X0424899Y0152702D01*
X0425600Y0154504D02*
X0425600Y0157306D01*
X0425600Y0155905D02*
X0421396Y0155905D01*
X0422798Y0154504D01*
X0422097Y0152702D02*
X0421396Y0152002D01*
X0421396Y0150601D01*
X0433197Y0149311D02*
X0433197Y0120689D01*
X0431600Y0122101D02*
X0430899Y0121400D01*
X0427396Y0121400D01*
X0427396Y0124202D02*
X0430899Y0124202D01*
X0431600Y0123502D01*
X0431600Y0122101D01*
X0430899Y0126004D02*
X0431600Y0126705D01*
X0431600Y0128106D01*
X0430899Y0128806D01*
X0430199Y0128806D01*
X0429498Y0128106D01*
X0429498Y0127405D01*
X0429498Y0128106D02*
X0428798Y0128806D01*
X0428097Y0128806D01*
X0427396Y0128106D01*
X0427396Y0126705D01*
X0428097Y0126004D01*
X0435155Y0127913D02*
X0435157Y0128013D01*
X0435163Y0128113D01*
X0435173Y0128212D01*
X0435187Y0128311D01*
X0435204Y0128410D01*
X0435226Y0128507D01*
X0435251Y0128604D01*
X0435280Y0128700D01*
X0435313Y0128794D01*
X0435350Y0128887D01*
X0435390Y0128978D01*
X0435434Y0129068D01*
X0435482Y0129156D01*
X0435532Y0129242D01*
X0435587Y0129326D01*
X0435644Y0129408D01*
X0435705Y0129488D01*
X0435768Y0129565D01*
X0435835Y0129639D01*
X0435905Y0129711D01*
X0435977Y0129780D01*
X0436052Y0129846D01*
X0436130Y0129909D01*
X0436210Y0129969D01*
X0436292Y0130025D01*
X0436377Y0130079D01*
X0436464Y0130129D01*
X0436552Y0130175D01*
X0436642Y0130218D01*
X0436734Y0130258D01*
X0436828Y0130293D01*
X0436922Y0130325D01*
X0437018Y0130354D01*
X0437115Y0130378D01*
X0437213Y0130399D01*
X0437311Y0130415D01*
X0437411Y0130428D01*
X0437510Y0130437D01*
X0437610Y0130442D01*
X0437710Y0130443D01*
X0437810Y0130440D01*
X0437910Y0130433D01*
X0438009Y0130422D01*
X0438108Y0130407D01*
X0438206Y0130389D01*
X0438304Y0130366D01*
X0438400Y0130340D01*
X0438495Y0130310D01*
X0438589Y0130276D01*
X0438682Y0130238D01*
X0438773Y0130197D01*
X0438862Y0130152D01*
X0438950Y0130104D01*
X0439036Y0130052D01*
X0439119Y0129997D01*
X0439200Y0129939D01*
X0439279Y0129878D01*
X0439355Y0129813D01*
X0439429Y0129746D01*
X0439500Y0129675D01*
X0439568Y0129602D01*
X0439634Y0129526D01*
X0439696Y0129448D01*
X0439755Y0129368D01*
X0439811Y0129285D01*
X0439863Y0129200D01*
X0439913Y0129113D01*
X0439958Y0129024D01*
X0440000Y0128933D01*
X0440039Y0128841D01*
X0440074Y0128747D01*
X0440105Y0128652D01*
X0440132Y0128556D01*
X0440155Y0128459D01*
X0440175Y0128361D01*
X0440191Y0128262D01*
X0440203Y0128163D01*
X0440211Y0128063D01*
X0440215Y0127963D01*
X0440215Y0127863D01*
X0440211Y0127763D01*
X0440203Y0127663D01*
X0440191Y0127564D01*
X0440175Y0127465D01*
X0440155Y0127367D01*
X0440132Y0127270D01*
X0440105Y0127174D01*
X0440074Y0127079D01*
X0440039Y0126985D01*
X0440000Y0126893D01*
X0439958Y0126802D01*
X0439913Y0126713D01*
X0439863Y0126626D01*
X0439811Y0126541D01*
X0439755Y0126458D01*
X0439696Y0126378D01*
X0439634Y0126300D01*
X0439568Y0126224D01*
X0439500Y0126151D01*
X0439429Y0126080D01*
X0439355Y0126013D01*
X0439279Y0125948D01*
X0439200Y0125887D01*
X0439119Y0125829D01*
X0439036Y0125774D01*
X0438950Y0125722D01*
X0438862Y0125674D01*
X0438773Y0125629D01*
X0438682Y0125588D01*
X0438589Y0125550D01*
X0438495Y0125516D01*
X0438400Y0125486D01*
X0438304Y0125460D01*
X0438206Y0125437D01*
X0438108Y0125419D01*
X0438009Y0125404D01*
X0437910Y0125393D01*
X0437810Y0125386D01*
X0437710Y0125383D01*
X0437610Y0125384D01*
X0437510Y0125389D01*
X0437411Y0125398D01*
X0437311Y0125411D01*
X0437213Y0125427D01*
X0437115Y0125448D01*
X0437018Y0125472D01*
X0436922Y0125501D01*
X0436828Y0125533D01*
X0436734Y0125568D01*
X0436642Y0125608D01*
X0436552Y0125651D01*
X0436464Y0125697D01*
X0436377Y0125747D01*
X0436292Y0125801D01*
X0436210Y0125857D01*
X0436130Y0125917D01*
X0436052Y0125980D01*
X0435977Y0126046D01*
X0435905Y0126115D01*
X0435835Y0126187D01*
X0435768Y0126261D01*
X0435705Y0126338D01*
X0435644Y0126418D01*
X0435587Y0126500D01*
X0435532Y0126584D01*
X0435482Y0126670D01*
X0435434Y0126758D01*
X0435390Y0126848D01*
X0435350Y0126939D01*
X0435313Y0127032D01*
X0435280Y0127126D01*
X0435251Y0127222D01*
X0435226Y0127319D01*
X0435204Y0127416D01*
X0435187Y0127515D01*
X0435173Y0127614D01*
X0435163Y0127713D01*
X0435157Y0127813D01*
X0435155Y0127913D01*
X0492902Y0120689D02*
X0492902Y0149311D01*
X0524900Y0147403D02*
X0524900Y0144601D01*
X0525601Y0143900D01*
X0527002Y0143900D01*
X0527702Y0144601D01*
X0529504Y0143900D02*
X0532306Y0143900D01*
X0530905Y0143900D02*
X0530905Y0148104D01*
X0529504Y0146702D01*
X0527702Y0147403D02*
X0527002Y0148104D01*
X0525601Y0148104D01*
X0524900Y0147403D01*
X0534108Y0147403D02*
X0534108Y0146702D01*
X0534808Y0146002D01*
X0536210Y0146002D01*
X0536910Y0145301D01*
X0536910Y0144601D01*
X0536210Y0143900D01*
X0534808Y0143900D01*
X0534108Y0144601D01*
X0534108Y0145301D01*
X0534808Y0146002D01*
X0536210Y0146002D02*
X0536910Y0146702D01*
X0536910Y0147403D01*
X0536210Y0148104D01*
X0534808Y0148104D01*
X0534108Y0147403D01*
X0529265Y0124518D02*
X0529265Y0121716D01*
X0529265Y0123117D02*
X0525062Y0123117D01*
X0526463Y0121716D01*
X0525762Y0119914D02*
X0525062Y0119214D01*
X0525062Y0117112D01*
X0529265Y0117112D01*
X0529265Y0119214D01*
X0528565Y0119914D01*
X0525762Y0119914D01*
X0525762Y0115310D02*
X0525062Y0114610D01*
X0525062Y0113208D01*
X0525762Y0112508D01*
X0528565Y0112508D01*
X0529265Y0113208D01*
X0529265Y0114610D01*
X0528565Y0115310D01*
X0529265Y0110706D02*
X0529265Y0107904D01*
X0525062Y0107904D01*
X0571400Y0111900D02*
X0571400Y0116104D01*
X0573502Y0116104D01*
X0574202Y0115403D01*
X0574202Y0112601D01*
X0573502Y0111900D01*
X0571400Y0111900D01*
X0576004Y0114002D02*
X0578106Y0116104D01*
X0578106Y0111900D01*
X0578806Y0114002D02*
X0576004Y0114002D01*
X0576004Y0117900D02*
X0577405Y0119301D01*
X0578806Y0117900D01*
X0578806Y0122104D01*
X0580608Y0120702D02*
X0582009Y0122104D01*
X0582009Y0117900D01*
X0580608Y0117900D02*
X0583410Y0117900D01*
X0583410Y0116104D02*
X0582009Y0115403D01*
X0580608Y0114002D01*
X0582710Y0114002D01*
X0583410Y0113301D01*
X0583410Y0112601D01*
X0582710Y0111900D01*
X0581308Y0111900D01*
X0580608Y0112601D01*
X0580608Y0114002D01*
X0585212Y0117900D02*
X0585212Y0118601D01*
X0588014Y0121403D01*
X0588014Y0122104D01*
X0585212Y0122104D01*
X0576004Y0122104D02*
X0576004Y0117900D01*
X0574202Y0118601D02*
X0573502Y0117900D01*
X0572101Y0117900D01*
X0571400Y0118601D01*
X0572101Y0120002D02*
X0573502Y0120002D01*
X0574202Y0119301D01*
X0574202Y0118601D01*
X0572101Y0120002D02*
X0571400Y0120702D01*
X0571400Y0121403D01*
X0572101Y0122104D01*
X0573502Y0122104D01*
X0574202Y0121403D01*
X0630400Y0121403D02*
X0630400Y0120702D01*
X0631101Y0120002D01*
X0632502Y0120002D01*
X0633202Y0119301D01*
X0633202Y0118601D01*
X0632502Y0117900D01*
X0631101Y0117900D01*
X0630400Y0118601D01*
X0630400Y0116104D02*
X0632502Y0116104D01*
X0633202Y0115403D01*
X0633202Y0112601D01*
X0632502Y0111900D01*
X0630400Y0111900D01*
X0630400Y0116104D01*
X0635004Y0117900D02*
X0636405Y0119301D01*
X0637806Y0117900D01*
X0637806Y0122104D01*
X0639608Y0120702D02*
X0641009Y0122104D01*
X0641009Y0117900D01*
X0639608Y0117900D02*
X0642410Y0117900D01*
X0641710Y0116104D02*
X0642410Y0115403D01*
X0642410Y0114702D01*
X0641710Y0114002D01*
X0642410Y0113301D01*
X0642410Y0112601D01*
X0641710Y0111900D01*
X0640308Y0111900D01*
X0639608Y0112601D01*
X0641009Y0114002D02*
X0641710Y0114002D01*
X0641710Y0116104D02*
X0640308Y0116104D01*
X0639608Y0115403D01*
X0637806Y0114002D02*
X0635004Y0114002D01*
X0637106Y0116104D01*
X0637106Y0111900D01*
X0635004Y0117900D02*
X0635004Y0122104D01*
X0633202Y0121403D02*
X0632502Y0122104D01*
X0631101Y0122104D01*
X0630400Y0121403D01*
X0644212Y0120002D02*
X0646314Y0120002D01*
X0647014Y0119301D01*
X0647014Y0118601D01*
X0646314Y0117900D01*
X0644912Y0117900D01*
X0644212Y0118601D01*
X0644212Y0120002D01*
X0645613Y0121403D01*
X0647014Y0122104D01*
X0689400Y0121403D02*
X0689400Y0120702D01*
X0690101Y0120002D01*
X0691502Y0120002D01*
X0692202Y0119301D01*
X0692202Y0118601D01*
X0691502Y0117900D01*
X0690101Y0117900D01*
X0689400Y0118601D01*
X0689400Y0116104D02*
X0691502Y0116104D01*
X0692202Y0115403D01*
X0692202Y0112601D01*
X0691502Y0111900D01*
X0689400Y0111900D01*
X0689400Y0116104D01*
X0694004Y0117900D02*
X0695405Y0119301D01*
X0696806Y0117900D01*
X0696806Y0122104D01*
X0698608Y0120702D02*
X0700009Y0122104D01*
X0700009Y0117900D01*
X0698608Y0117900D02*
X0701410Y0117900D01*
X0700710Y0116104D02*
X0701410Y0115403D01*
X0698608Y0112601D01*
X0699308Y0111900D01*
X0700710Y0111900D01*
X0701410Y0112601D01*
X0701410Y0115403D01*
X0700710Y0116104D02*
X0699308Y0116104D01*
X0698608Y0115403D01*
X0698608Y0112601D01*
X0696806Y0114002D02*
X0694004Y0114002D01*
X0696106Y0116104D01*
X0696106Y0111900D01*
X0694004Y0117900D02*
X0694004Y0122104D01*
X0692202Y0121403D02*
X0691502Y0122104D01*
X0690101Y0122104D01*
X0689400Y0121403D01*
X0703212Y0121403D02*
X0703212Y0120702D01*
X0703912Y0120002D01*
X0706014Y0120002D01*
X0706014Y0121403D02*
X0705314Y0122104D01*
X0703912Y0122104D01*
X0703212Y0121403D01*
X0706014Y0121403D02*
X0706014Y0118601D01*
X0705314Y0117900D01*
X0703912Y0117900D01*
X0703212Y0118601D01*
X0748400Y0118601D02*
X0749101Y0117900D01*
X0750502Y0117900D01*
X0751202Y0118601D01*
X0751202Y0119301D01*
X0750502Y0120002D01*
X0749101Y0120002D01*
X0748400Y0120702D01*
X0748400Y0121403D01*
X0749101Y0122104D01*
X0750502Y0122104D01*
X0751202Y0121403D01*
X0753004Y0122104D02*
X0753004Y0117900D01*
X0754405Y0119301D01*
X0755806Y0117900D01*
X0755806Y0122104D01*
X0757608Y0120702D02*
X0759009Y0122104D01*
X0759009Y0117900D01*
X0757608Y0117900D02*
X0760410Y0117900D01*
X0760410Y0116104D02*
X0760410Y0115403D01*
X0757608Y0112601D01*
X0757608Y0111900D01*
X0755806Y0112601D02*
X0755106Y0111900D01*
X0753705Y0111900D01*
X0753004Y0112601D01*
X0751202Y0112601D02*
X0751202Y0115403D01*
X0750502Y0116104D01*
X0748400Y0116104D01*
X0748400Y0111900D01*
X0750502Y0111900D01*
X0751202Y0112601D01*
X0753004Y0115403D02*
X0753705Y0116104D01*
X0755106Y0116104D01*
X0755806Y0115403D01*
X0755806Y0114702D01*
X0755106Y0114002D01*
X0755806Y0113301D01*
X0755806Y0112601D01*
X0755106Y0114002D02*
X0754405Y0114002D01*
X0757608Y0116104D02*
X0760410Y0116104D01*
X0762912Y0117900D02*
X0762212Y0118601D01*
X0762212Y0119301D01*
X0762912Y0120002D01*
X0764314Y0120002D01*
X0765014Y0119301D01*
X0765014Y0118601D01*
X0764314Y0117900D01*
X0762912Y0117900D01*
X0762912Y0120002D02*
X0762212Y0120702D01*
X0762212Y0121403D01*
X0762912Y0122104D01*
X0764314Y0122104D01*
X0765014Y0121403D01*
X0765014Y0120702D01*
X0764314Y0120002D01*
X0807400Y0120702D02*
X0808101Y0120002D01*
X0809502Y0120002D01*
X0810202Y0119301D01*
X0810202Y0118601D01*
X0809502Y0117900D01*
X0808101Y0117900D01*
X0807400Y0118601D01*
X0807400Y0120702D02*
X0807400Y0121403D01*
X0808101Y0122104D01*
X0809502Y0122104D01*
X0810202Y0121403D01*
X0812004Y0122104D02*
X0812004Y0117900D01*
X0813405Y0119301D01*
X0814806Y0117900D01*
X0814806Y0122104D01*
X0816608Y0121403D02*
X0817308Y0122104D01*
X0818710Y0122104D01*
X0819410Y0121403D01*
X0819410Y0120702D01*
X0816608Y0117900D01*
X0819410Y0117900D01*
X0821212Y0117900D02*
X0824014Y0117900D01*
X0822613Y0117900D02*
X0822613Y0122104D01*
X0821212Y0120702D01*
X0818710Y0116104D02*
X0816608Y0114002D01*
X0819410Y0114002D01*
X0818710Y0111900D02*
X0818710Y0116104D01*
X0814806Y0115403D02*
X0814806Y0114702D01*
X0814106Y0114002D01*
X0814806Y0113301D01*
X0814806Y0112601D01*
X0814106Y0111900D01*
X0812705Y0111900D01*
X0812004Y0112601D01*
X0810202Y0112601D02*
X0810202Y0115403D01*
X0809502Y0116104D01*
X0807400Y0116104D01*
X0807400Y0111900D01*
X0809502Y0111900D01*
X0810202Y0112601D01*
X0812004Y0115403D02*
X0812705Y0116104D01*
X0814106Y0116104D01*
X0814806Y0115403D01*
X0814106Y0114002D02*
X0813405Y0114002D01*
X0866400Y0116104D02*
X0866400Y0111900D01*
X0868502Y0111900D01*
X0869202Y0112601D01*
X0869202Y0115403D01*
X0868502Y0116104D01*
X0866400Y0116104D01*
X0867101Y0117900D02*
X0866400Y0118601D01*
X0867101Y0117900D02*
X0868502Y0117900D01*
X0869202Y0118601D01*
X0869202Y0119301D01*
X0868502Y0120002D01*
X0867101Y0120002D01*
X0866400Y0120702D01*
X0866400Y0121403D01*
X0867101Y0122104D01*
X0868502Y0122104D01*
X0869202Y0121403D01*
X0871004Y0122104D02*
X0871004Y0117900D01*
X0872405Y0119301D01*
X0873806Y0117900D01*
X0873806Y0122104D01*
X0875608Y0121403D02*
X0876308Y0122104D01*
X0877710Y0122104D01*
X0878410Y0121403D01*
X0878410Y0120702D01*
X0875608Y0117900D01*
X0878410Y0117900D01*
X0880212Y0118601D02*
X0880912Y0117900D01*
X0882314Y0117900D01*
X0883014Y0118601D01*
X0883014Y0121403D01*
X0880212Y0118601D01*
X0880212Y0121403D01*
X0880912Y0122104D01*
X0882314Y0122104D01*
X0883014Y0121403D01*
X0877009Y0116104D02*
X0877009Y0111900D01*
X0875608Y0111900D02*
X0878410Y0111900D01*
X0875608Y0114702D02*
X0877009Y0116104D01*
X0873806Y0115403D02*
X0873806Y0114702D01*
X0873106Y0114002D01*
X0873806Y0113301D01*
X0873806Y0112601D01*
X0873106Y0111900D01*
X0871705Y0111900D01*
X0871004Y0112601D01*
X0872405Y0114002D02*
X0873106Y0114002D01*
X0873806Y0115403D02*
X0873106Y0116104D01*
X0871705Y0116104D01*
X0871004Y0115403D01*
X0925400Y0116104D02*
X0925400Y0111900D01*
X0927502Y0111900D01*
X0928202Y0112601D01*
X0928202Y0115403D01*
X0927502Y0116104D01*
X0925400Y0116104D01*
X0926101Y0117900D02*
X0925400Y0118601D01*
X0926101Y0117900D02*
X0927502Y0117900D01*
X0928202Y0118601D01*
X0928202Y0119301D01*
X0927502Y0120002D01*
X0926101Y0120002D01*
X0925400Y0120702D01*
X0925400Y0121403D01*
X0926101Y0122104D01*
X0927502Y0122104D01*
X0928202Y0121403D01*
X0930004Y0122104D02*
X0930004Y0117900D01*
X0931405Y0119301D01*
X0932806Y0117900D01*
X0932806Y0122104D01*
X0934608Y0121403D02*
X0935308Y0122104D01*
X0936710Y0122104D01*
X0937410Y0121403D01*
X0937410Y0120702D01*
X0934608Y0117900D01*
X0937410Y0117900D01*
X0939212Y0117900D02*
X0942014Y0120702D01*
X0942014Y0121403D01*
X0941314Y0122104D01*
X0939912Y0122104D01*
X0939212Y0121403D01*
X0939212Y0117900D02*
X0942014Y0117900D01*
X0937410Y0115403D02*
X0937410Y0114702D01*
X0936710Y0114002D01*
X0935308Y0114002D01*
X0934608Y0114702D01*
X0934608Y0115403D01*
X0935308Y0116104D01*
X0936710Y0116104D01*
X0937410Y0115403D01*
X0936710Y0114002D02*
X0937410Y0113301D01*
X0937410Y0112601D01*
X0936710Y0111900D01*
X0935308Y0111900D01*
X0934608Y0112601D01*
X0934608Y0113301D01*
X0935308Y0114002D01*
X0932806Y0114702D02*
X0932806Y0115403D01*
X0932106Y0116104D01*
X0930705Y0116104D01*
X0930004Y0115403D01*
X0932806Y0114702D02*
X0930004Y0111900D01*
X0932806Y0111900D01*
X0995900Y0089604D02*
X0998002Y0089604D01*
X0998702Y0088903D01*
X0998702Y0086101D01*
X0998002Y0085400D01*
X0995900Y0085400D01*
X0995900Y0089604D01*
X1000504Y0088202D02*
X1001905Y0089604D01*
X1001905Y0085400D01*
X1000504Y0085400D02*
X1003306Y0085400D01*
X1005108Y0086101D02*
X1005808Y0085400D01*
X1007210Y0085400D01*
X1007910Y0086101D01*
X1007910Y0088903D01*
X1007210Y0089604D01*
X1005808Y0089604D01*
X1005108Y0088903D01*
X1005108Y0088202D01*
X1005808Y0087502D01*
X1007910Y0087502D01*
X1022400Y0089604D02*
X1022400Y0085400D01*
X1024502Y0085400D01*
X1025202Y0086101D01*
X1025202Y0088903D01*
X1024502Y0089604D01*
X1022400Y0089604D01*
X1027004Y0088903D02*
X1027004Y0088202D01*
X1027705Y0087502D01*
X1029806Y0087502D01*
X1029806Y0088903D02*
X1029106Y0089604D01*
X1027705Y0089604D01*
X1027004Y0088903D01*
X1029806Y0088903D02*
X1029806Y0086101D01*
X1029106Y0085400D01*
X1027705Y0085400D01*
X1027004Y0086101D01*
X1048900Y0085400D02*
X1051002Y0085400D01*
X1051702Y0086101D01*
X1051702Y0088903D01*
X1051002Y0089604D01*
X1048900Y0089604D01*
X1048900Y0085400D01*
X1053504Y0085400D02*
X1056306Y0088202D01*
X1056306Y0088903D01*
X1055606Y0089604D01*
X1054205Y0089604D01*
X1053504Y0088903D01*
X1053504Y0085400D02*
X1056306Y0085400D01*
X1058108Y0085400D02*
X1060910Y0085400D01*
X1059509Y0085400D02*
X1059509Y0089604D01*
X1058108Y0088202D01*
X1086400Y0079604D02*
X1086400Y0076101D01*
X1087101Y0075400D01*
X1088502Y0075400D01*
X1089202Y0076101D01*
X1089202Y0079604D01*
X1091004Y0077502D02*
X1093106Y0077502D01*
X1093806Y0076801D01*
X1093806Y0076101D01*
X1093106Y0075400D01*
X1091705Y0075400D01*
X1091004Y0076101D01*
X1091004Y0077502D01*
X1092405Y0078903D01*
X1093806Y0079604D01*
X1096101Y0084400D02*
X1097502Y0084400D01*
X1098202Y0085101D01*
X1100004Y0084400D02*
X1102806Y0087202D01*
X1102806Y0087903D01*
X1102106Y0088604D01*
X1100705Y0088604D01*
X1100004Y0087903D01*
X1098202Y0087903D02*
X1097502Y0088604D01*
X1096101Y0088604D01*
X1095400Y0087903D01*
X1095400Y0085101D01*
X1096101Y0084400D01*
X1100004Y0084400D02*
X1102806Y0084400D01*
X1104608Y0085101D02*
X1107410Y0087903D01*
X1107410Y0085101D01*
X1106710Y0084400D01*
X1105308Y0084400D01*
X1104608Y0085101D01*
X1104608Y0087903D01*
X1105308Y0088604D01*
X1106710Y0088604D01*
X1107410Y0087903D01*
X1111896Y0081710D02*
X1113998Y0079608D01*
X1113998Y0082410D01*
X1116100Y0081710D02*
X1111896Y0081710D01*
X1116100Y0077806D02*
X1116100Y0075004D01*
X1116100Y0076405D02*
X1111896Y0076405D01*
X1113298Y0075004D01*
X1113998Y0073202D02*
X1114699Y0072502D01*
X1114699Y0070400D01*
X1116100Y0070400D02*
X1111896Y0070400D01*
X1111896Y0072502D01*
X1112597Y0073202D01*
X1113998Y0073202D01*
X1114699Y0071801D02*
X1116100Y0073202D01*
X1126396Y0072502D02*
X1127097Y0073202D01*
X1128498Y0073202D01*
X1129199Y0072502D01*
X1129199Y0070400D01*
X1130600Y0070400D02*
X1126396Y0070400D01*
X1126396Y0072502D01*
X1127798Y0075004D02*
X1126396Y0076405D01*
X1130600Y0076405D01*
X1130600Y0075004D02*
X1130600Y0077806D01*
X1129899Y0079608D02*
X1130600Y0080308D01*
X1130600Y0081710D01*
X1129899Y0082410D01*
X1128498Y0082410D01*
X1127798Y0081710D01*
X1127798Y0081009D01*
X1128498Y0079608D01*
X1126396Y0079608D01*
X1126396Y0082410D01*
X1140896Y0081910D02*
X1141597Y0080509D01*
X1142998Y0079108D01*
X1142998Y0081210D01*
X1143699Y0081910D01*
X1144399Y0081910D01*
X1145100Y0081210D01*
X1145100Y0079808D01*
X1144399Y0079108D01*
X1142998Y0079108D01*
X1145100Y0077306D02*
X1145100Y0074504D01*
X1145100Y0075905D02*
X1140896Y0075905D01*
X1142298Y0074504D01*
X1142998Y0072702D02*
X1143699Y0072002D01*
X1143699Y0069900D01*
X1145100Y0069900D02*
X1140896Y0069900D01*
X1140896Y0072002D01*
X1141597Y0072702D01*
X1142998Y0072702D01*
X1143699Y0071301D02*
X1145100Y0072702D01*
X1155396Y0072002D02*
X1156097Y0072702D01*
X1157498Y0072702D01*
X1158199Y0072002D01*
X1158199Y0069900D01*
X1159600Y0069900D02*
X1155396Y0069900D01*
X1155396Y0072002D01*
X1156798Y0074504D02*
X1155396Y0075905D01*
X1159600Y0075905D01*
X1159600Y0074504D02*
X1159600Y0077306D01*
X1159600Y0079108D02*
X1158899Y0079108D01*
X1156097Y0081910D01*
X1155396Y0081910D01*
X1155396Y0079108D01*
X1169896Y0079808D02*
X1169896Y0081210D01*
X1170597Y0081910D01*
X1171298Y0081910D01*
X1171998Y0081210D01*
X1171998Y0079808D01*
X1171298Y0079108D01*
X1170597Y0079108D01*
X1169896Y0079808D01*
X1171998Y0079808D02*
X1172699Y0079108D01*
X1173399Y0079108D01*
X1174100Y0079808D01*
X1174100Y0081210D01*
X1173399Y0081910D01*
X1172699Y0081910D01*
X1171998Y0081210D01*
X1174100Y0077306D02*
X1174100Y0074504D01*
X1174100Y0075905D02*
X1169896Y0075905D01*
X1171298Y0074504D01*
X1171998Y0072702D02*
X1172699Y0072002D01*
X1172699Y0069900D01*
X1174100Y0069900D02*
X1169896Y0069900D01*
X1169896Y0072002D01*
X1170597Y0072702D01*
X1171998Y0072702D01*
X1172699Y0071301D02*
X1174100Y0072702D01*
X1184396Y0072002D02*
X1185097Y0072702D01*
X1186498Y0072702D01*
X1187199Y0072002D01*
X1187199Y0069900D01*
X1188600Y0069900D02*
X1184396Y0069900D01*
X1184396Y0072002D01*
X1185798Y0074504D02*
X1184396Y0075905D01*
X1188600Y0075905D01*
X1188600Y0074504D02*
X1188600Y0077306D01*
X1187899Y0079108D02*
X1188600Y0079808D01*
X1188600Y0081210D01*
X1187899Y0081910D01*
X1185097Y0081910D01*
X1184396Y0081210D01*
X1184396Y0079808D01*
X1185097Y0079108D01*
X1185798Y0079108D01*
X1186498Y0079808D01*
X1186498Y0081910D01*
X1198896Y0081210D02*
X1198896Y0079808D01*
X1199597Y0079108D01*
X1202399Y0079108D01*
X1199597Y0081910D01*
X1202399Y0081910D01*
X1203100Y0081210D01*
X1203100Y0079808D01*
X1202399Y0079108D01*
X1203100Y0077306D02*
X1203100Y0074504D01*
X1200298Y0077306D01*
X1199597Y0077306D01*
X1198896Y0076606D01*
X1198896Y0075205D01*
X1199597Y0074504D01*
X1199597Y0072702D02*
X1200998Y0072702D01*
X1201699Y0072002D01*
X1201699Y0069900D01*
X1203100Y0069900D02*
X1198896Y0069900D01*
X1198896Y0072002D01*
X1199597Y0072702D01*
X1201699Y0071301D02*
X1203100Y0072702D01*
X1213396Y0072002D02*
X1214097Y0072702D01*
X1215498Y0072702D01*
X1216199Y0072002D01*
X1216199Y0069900D01*
X1217600Y0069900D02*
X1213396Y0069900D01*
X1213396Y0072002D01*
X1214097Y0074504D02*
X1213396Y0075205D01*
X1213396Y0076606D01*
X1214097Y0077306D01*
X1214798Y0077306D01*
X1217600Y0074504D01*
X1217600Y0077306D01*
X1217600Y0079108D02*
X1217600Y0081910D01*
X1217600Y0080509D02*
X1213396Y0080509D01*
X1214798Y0079108D01*
X1199597Y0081910D02*
X1198896Y0081210D01*
X1188600Y0072702D02*
X1187199Y0071301D01*
X1216199Y0071301D02*
X1217600Y0072702D01*
X1159600Y0072702D02*
X1158199Y0071301D01*
X1130600Y0073202D02*
X1129199Y0071801D01*
X1029806Y0070604D02*
X1027004Y0070604D01*
X1027004Y0068502D01*
X1028405Y0069202D01*
X1029106Y0069202D01*
X1029806Y0068502D01*
X1029806Y0067101D01*
X1029106Y0066400D01*
X1027705Y0066400D01*
X1027004Y0067101D01*
X1025202Y0067101D02*
X1025202Y0069903D01*
X1024502Y0070604D01*
X1022400Y0070604D01*
X1022400Y0066400D01*
X1024502Y0066400D01*
X1025202Y0067101D01*
X1007910Y0069903D02*
X1005108Y0067101D01*
X1005108Y0066400D01*
X1003306Y0066400D02*
X1000504Y0066400D01*
X1001905Y0066400D02*
X1001905Y0070604D01*
X1000504Y0069202D01*
X0998702Y0069903D02*
X0998702Y0067101D01*
X0998002Y0066400D01*
X0995900Y0066400D01*
X0995900Y0070604D01*
X0998002Y0070604D01*
X0998702Y0069903D01*
X1005108Y0070604D02*
X1007910Y0070604D01*
X1007910Y0069903D01*
X1007910Y0051604D02*
X1005108Y0051604D01*
X1005108Y0049502D01*
X1006509Y0050202D01*
X1007210Y0050202D01*
X1007910Y0049502D01*
X1007910Y0048101D01*
X1007210Y0047400D01*
X1005808Y0047400D01*
X1005108Y0048101D01*
X1003306Y0047400D02*
X1000504Y0047400D01*
X1001905Y0047400D02*
X1001905Y0051604D01*
X1000504Y0050202D01*
X0998702Y0050903D02*
X0998002Y0051604D01*
X0995900Y0051604D01*
X0995900Y0047400D01*
X0998002Y0047400D01*
X0998702Y0048101D01*
X0998702Y0050903D01*
X1022400Y0051604D02*
X1022400Y0047400D01*
X1024502Y0047400D01*
X1025202Y0048101D01*
X1025202Y0050903D01*
X1024502Y0051604D01*
X1022400Y0051604D01*
X1027004Y0050903D02*
X1027705Y0051604D01*
X1029106Y0051604D01*
X1029806Y0050903D01*
X1029806Y0050202D01*
X1027004Y0047400D01*
X1029806Y0047400D01*
X0942014Y0040400D02*
X0939212Y0040400D01*
X0940613Y0040400D02*
X0940613Y0044604D01*
X0939212Y0043202D01*
X0937410Y0040400D02*
X0934608Y0040400D01*
X0936009Y0040400D02*
X0936009Y0044604D01*
X0934608Y0043202D01*
X0932806Y0044604D02*
X0932806Y0040400D01*
X0931405Y0041801D01*
X0930004Y0040400D01*
X0930004Y0044604D01*
X0928202Y0043903D02*
X0927502Y0044604D01*
X0926101Y0044604D01*
X0925400Y0043903D01*
X0925400Y0043202D01*
X0926101Y0042502D01*
X0927502Y0042502D01*
X0928202Y0041801D01*
X0928202Y0041101D01*
X0927502Y0040400D01*
X0926101Y0040400D01*
X0925400Y0041101D01*
X0924900Y0038604D02*
X0927002Y0038604D01*
X0927702Y0037903D01*
X0927702Y0035101D01*
X0927002Y0034400D01*
X0924900Y0034400D01*
X0924900Y0038604D01*
X0929504Y0037903D02*
X0930205Y0038604D01*
X0931606Y0038604D01*
X0932306Y0037903D01*
X0932306Y0037202D01*
X0929504Y0034400D01*
X0932306Y0034400D01*
X0934108Y0035101D02*
X0934808Y0034400D01*
X0936210Y0034400D01*
X0936910Y0035101D01*
X0936910Y0037903D01*
X0936210Y0038604D01*
X0934808Y0038604D01*
X0934108Y0037903D01*
X0934108Y0037202D01*
X0934808Y0036502D01*
X0936910Y0036502D01*
X0883014Y0041101D02*
X0882314Y0040400D01*
X0880912Y0040400D01*
X0880212Y0041101D01*
X0878410Y0040400D02*
X0875608Y0040400D01*
X0877009Y0040400D02*
X0877009Y0044604D01*
X0875608Y0043202D01*
X0873806Y0044604D02*
X0873806Y0040400D01*
X0872405Y0041801D01*
X0871004Y0040400D01*
X0871004Y0044604D01*
X0869202Y0043903D02*
X0868502Y0044604D01*
X0867101Y0044604D01*
X0866400Y0043903D01*
X0866400Y0043202D01*
X0867101Y0042502D01*
X0868502Y0042502D01*
X0869202Y0041801D01*
X0869202Y0041101D01*
X0868502Y0040400D01*
X0867101Y0040400D01*
X0866400Y0041101D01*
X0866900Y0038604D02*
X0869002Y0038604D01*
X0869702Y0037903D01*
X0869702Y0035101D01*
X0869002Y0034400D01*
X0866900Y0034400D01*
X0866900Y0038604D01*
X0871504Y0037903D02*
X0872205Y0038604D01*
X0873606Y0038604D01*
X0874306Y0037903D01*
X0874306Y0037202D01*
X0873606Y0036502D01*
X0874306Y0035801D01*
X0874306Y0035101D01*
X0873606Y0034400D01*
X0872205Y0034400D01*
X0871504Y0035101D01*
X0872905Y0036502D02*
X0873606Y0036502D01*
X0876108Y0037903D02*
X0876808Y0038604D01*
X0878210Y0038604D01*
X0878910Y0037903D01*
X0878910Y0037202D01*
X0876108Y0034400D01*
X0878910Y0034400D01*
X0883014Y0041101D02*
X0883014Y0041801D01*
X0882314Y0042502D01*
X0881613Y0042502D01*
X0882314Y0042502D02*
X0883014Y0043202D01*
X0883014Y0043903D01*
X0882314Y0044604D01*
X0880912Y0044604D01*
X0880212Y0043903D01*
X0819410Y0043903D02*
X0816608Y0041101D01*
X0816608Y0040400D01*
X0816608Y0038604D02*
X0816608Y0036502D01*
X0818009Y0037202D01*
X0818710Y0037202D01*
X0819410Y0036502D01*
X0819410Y0035101D01*
X0818710Y0034400D01*
X0817308Y0034400D01*
X0816608Y0035101D01*
X0814806Y0035101D02*
X0814106Y0034400D01*
X0812705Y0034400D01*
X0812004Y0035101D01*
X0810202Y0035101D02*
X0810202Y0037903D01*
X0809502Y0038604D01*
X0807400Y0038604D01*
X0807400Y0034400D01*
X0809502Y0034400D01*
X0810202Y0035101D01*
X0812004Y0037903D02*
X0812705Y0038604D01*
X0814106Y0038604D01*
X0814806Y0037903D01*
X0814806Y0037202D01*
X0814106Y0036502D01*
X0814806Y0035801D01*
X0814806Y0035101D01*
X0814106Y0036502D02*
X0813405Y0036502D01*
X0816608Y0038604D02*
X0819410Y0038604D01*
X0814806Y0040400D02*
X0814806Y0044604D01*
X0816608Y0044604D02*
X0819410Y0044604D01*
X0819410Y0043903D01*
X0814806Y0040400D02*
X0813405Y0041801D01*
X0812004Y0040400D01*
X0812004Y0044604D01*
X0810202Y0043903D02*
X0809502Y0044604D01*
X0808101Y0044604D01*
X0807400Y0043903D01*
X0807400Y0043202D01*
X0808101Y0042502D01*
X0809502Y0042502D01*
X0810202Y0041801D01*
X0810202Y0041101D01*
X0809502Y0040400D01*
X0808101Y0040400D01*
X0807400Y0041101D01*
X0760410Y0041101D02*
X0760410Y0043903D01*
X0759710Y0044604D01*
X0758308Y0044604D01*
X0757608Y0043903D01*
X0757608Y0043202D01*
X0758308Y0042502D01*
X0760410Y0042502D01*
X0760410Y0041101D02*
X0759710Y0040400D01*
X0758308Y0040400D01*
X0757608Y0041101D01*
X0755806Y0040400D02*
X0755806Y0044604D01*
X0753004Y0044604D02*
X0753004Y0040400D01*
X0754405Y0041801D01*
X0755806Y0040400D01*
X0755106Y0038604D02*
X0755806Y0037903D01*
X0755806Y0037202D01*
X0755106Y0036502D01*
X0755806Y0035801D01*
X0755806Y0035101D01*
X0755106Y0034400D01*
X0753705Y0034400D01*
X0753004Y0035101D01*
X0751202Y0035101D02*
X0751202Y0037903D01*
X0750502Y0038604D01*
X0748400Y0038604D01*
X0748400Y0034400D01*
X0750502Y0034400D01*
X0751202Y0035101D01*
X0753004Y0037903D02*
X0753705Y0038604D01*
X0755106Y0038604D01*
X0755106Y0036502D02*
X0754405Y0036502D01*
X0757608Y0037202D02*
X0757608Y0037903D01*
X0758308Y0038604D01*
X0759710Y0038604D01*
X0760410Y0037903D01*
X0760410Y0037202D01*
X0759710Y0036502D01*
X0758308Y0036502D01*
X0757608Y0037202D01*
X0758308Y0036502D02*
X0757608Y0035801D01*
X0757608Y0035101D01*
X0758308Y0034400D01*
X0759710Y0034400D01*
X0760410Y0035101D01*
X0760410Y0035801D01*
X0759710Y0036502D01*
X0751202Y0041101D02*
X0750502Y0040400D01*
X0749101Y0040400D01*
X0748400Y0041101D01*
X0749101Y0042502D02*
X0750502Y0042502D01*
X0751202Y0041801D01*
X0751202Y0041101D01*
X0749101Y0042502D02*
X0748400Y0043202D01*
X0748400Y0043903D01*
X0749101Y0044604D01*
X0750502Y0044604D01*
X0751202Y0043903D01*
X0701410Y0043903D02*
X0701410Y0043202D01*
X0700710Y0042502D01*
X0701410Y0041801D01*
X0701410Y0041101D01*
X0700710Y0040400D01*
X0699308Y0040400D01*
X0698608Y0041101D01*
X0696806Y0040400D02*
X0696806Y0044604D01*
X0698608Y0043903D02*
X0699308Y0044604D01*
X0700710Y0044604D01*
X0701410Y0043903D01*
X0700710Y0042502D02*
X0700009Y0042502D01*
X0696806Y0040400D02*
X0695405Y0041801D01*
X0694004Y0040400D01*
X0694004Y0044604D01*
X0692202Y0043903D02*
X0691502Y0044604D01*
X0690101Y0044604D01*
X0689400Y0043903D01*
X0689400Y0043202D01*
X0690101Y0042502D01*
X0691502Y0042502D01*
X0692202Y0041801D01*
X0692202Y0041101D01*
X0691502Y0040400D01*
X0690101Y0040400D01*
X0689400Y0041101D01*
X0689400Y0038604D02*
X0691502Y0038604D01*
X0692202Y0037903D01*
X0692202Y0035101D01*
X0691502Y0034400D01*
X0689400Y0034400D01*
X0689400Y0038604D01*
X0694004Y0036502D02*
X0696806Y0036502D01*
X0698608Y0037202D02*
X0700009Y0038604D01*
X0700009Y0034400D01*
X0698608Y0034400D02*
X0701410Y0034400D01*
X0696106Y0034400D02*
X0696106Y0038604D01*
X0694004Y0036502D01*
X0642410Y0041101D02*
X0641710Y0040400D01*
X0640308Y0040400D01*
X0639608Y0041101D01*
X0639608Y0042502D02*
X0641009Y0043202D01*
X0641710Y0043202D01*
X0642410Y0042502D01*
X0642410Y0041101D01*
X0641210Y0038604D02*
X0639108Y0036502D01*
X0641910Y0036502D01*
X0641210Y0034400D02*
X0641210Y0038604D01*
X0637806Y0040400D02*
X0637806Y0044604D01*
X0639608Y0044604D02*
X0639608Y0042502D01*
X0639608Y0044604D02*
X0642410Y0044604D01*
X0637806Y0040400D02*
X0636405Y0041801D01*
X0635004Y0040400D01*
X0635004Y0044604D01*
X0633202Y0043903D02*
X0632502Y0044604D01*
X0631101Y0044604D01*
X0630400Y0043903D01*
X0630400Y0043202D01*
X0631101Y0042502D01*
X0632502Y0042502D01*
X0633202Y0041801D01*
X0633202Y0041101D01*
X0632502Y0040400D01*
X0631101Y0040400D01*
X0630400Y0041101D01*
X0629900Y0038604D02*
X0632002Y0038604D01*
X0632702Y0037903D01*
X0632702Y0035101D01*
X0632002Y0034400D01*
X0629900Y0034400D01*
X0629900Y0038604D01*
X0634504Y0036502D02*
X0636606Y0038604D01*
X0636606Y0034400D01*
X0637306Y0036502D02*
X0634504Y0036502D01*
X0588014Y0041101D02*
X0587314Y0040400D01*
X0585912Y0040400D01*
X0585212Y0041101D01*
X0583410Y0040400D02*
X0580608Y0040400D01*
X0583410Y0043202D01*
X0583410Y0043903D01*
X0582710Y0044604D01*
X0581308Y0044604D01*
X0580608Y0043903D01*
X0578806Y0044604D02*
X0578806Y0040400D01*
X0577405Y0041801D01*
X0576004Y0040400D01*
X0576004Y0044604D01*
X0574202Y0043903D02*
X0573502Y0044604D01*
X0572101Y0044604D01*
X0571400Y0043903D01*
X0571400Y0043202D01*
X0572101Y0042502D01*
X0573502Y0042502D01*
X0574202Y0041801D01*
X0574202Y0041101D01*
X0573502Y0040400D01*
X0572101Y0040400D01*
X0571400Y0041101D01*
X0571400Y0038604D02*
X0573502Y0038604D01*
X0574202Y0037903D01*
X0574202Y0035101D01*
X0573502Y0034400D01*
X0571400Y0034400D01*
X0571400Y0038604D01*
X0576004Y0036502D02*
X0578806Y0036502D01*
X0578106Y0038604D02*
X0576004Y0036502D01*
X0578106Y0034400D02*
X0578106Y0038604D01*
X0580608Y0038604D02*
X0583410Y0038604D01*
X0583410Y0037903D01*
X0580608Y0035101D01*
X0580608Y0034400D01*
X0588014Y0041101D02*
X0588014Y0041801D01*
X0587314Y0042502D01*
X0586613Y0042502D01*
X0587314Y0042502D02*
X0588014Y0043202D01*
X0588014Y0043903D01*
X0587314Y0044604D01*
X0585912Y0044604D01*
X0585212Y0043903D01*
X0507000Y0055000D02*
X0405000Y0055000D01*
X0405000Y0017000D01*
X0507000Y0017000D01*
X0507000Y0055000D01*
X0408260Y0020323D02*
X0406685Y0020323D01*
X0407472Y0018748D01*
X0408260Y0020323D01*
X0407882Y0019567D02*
X0407063Y0019567D01*
X0407462Y0018769D02*
X0407483Y0018769D01*
X0406502Y0015604D02*
X0405101Y0015604D01*
X0404400Y0014903D01*
X0404400Y0012101D01*
X0405101Y0011400D01*
X0406502Y0011400D01*
X0407202Y0012101D01*
X0409004Y0012101D02*
X0409705Y0011400D01*
X0411106Y0011400D01*
X0411806Y0012101D01*
X0411806Y0014903D01*
X0411106Y0015604D01*
X0409705Y0015604D01*
X0409004Y0014903D01*
X0409004Y0012101D01*
X0407202Y0014903D02*
X0406502Y0015604D01*
X0413608Y0015604D02*
X0416410Y0011400D01*
X0416410Y0015604D01*
X0418212Y0015604D02*
X0421014Y0011400D01*
X0421014Y0015604D01*
X0422816Y0015604D02*
X0422816Y0013502D01*
X0424217Y0014202D01*
X0424917Y0014202D01*
X0425618Y0013502D01*
X0425618Y0012101D01*
X0424917Y0011400D01*
X0423516Y0011400D01*
X0422816Y0012101D01*
X0422816Y0015604D02*
X0425618Y0015604D01*
X0418212Y0015604D02*
X0418212Y0011400D01*
X0413608Y0011400D02*
X0413608Y0015604D01*
X0354410Y0034400D02*
X0351608Y0034400D01*
X0354410Y0037202D01*
X0354410Y0037903D01*
X0353710Y0038604D01*
X0352308Y0038604D01*
X0351608Y0037903D01*
X0349806Y0036502D02*
X0347004Y0036502D01*
X0349106Y0038604D01*
X0349106Y0034400D01*
X0345202Y0035101D02*
X0344502Y0034400D01*
X0342400Y0034400D01*
X0342400Y0038604D01*
X0344502Y0038604D01*
X0345202Y0037903D01*
X0345202Y0035101D01*
X0344002Y0040400D02*
X0342601Y0040400D01*
X0341900Y0041101D01*
X0342601Y0042502D02*
X0344002Y0042502D01*
X0344702Y0041801D01*
X0344702Y0041101D01*
X0344002Y0040400D01*
X0346504Y0040400D02*
X0347905Y0041801D01*
X0349306Y0040400D01*
X0349306Y0044604D01*
X0351108Y0043903D02*
X0351108Y0043202D01*
X0351808Y0042502D01*
X0353210Y0042502D01*
X0353910Y0041801D01*
X0353910Y0041101D01*
X0353210Y0040400D01*
X0351808Y0040400D01*
X0351108Y0041101D01*
X0351108Y0041801D01*
X0351808Y0042502D01*
X0353210Y0042502D02*
X0353910Y0043202D01*
X0353910Y0043903D01*
X0353210Y0044604D01*
X0351808Y0044604D01*
X0351108Y0043903D01*
X0346504Y0044604D02*
X0346504Y0040400D01*
X0344702Y0043903D02*
X0344002Y0044604D01*
X0342601Y0044604D01*
X0341900Y0043903D01*
X0341900Y0043202D01*
X0342601Y0042502D01*
X0294910Y0043202D02*
X0292108Y0040400D01*
X0294910Y0040400D01*
X0294910Y0038604D02*
X0292108Y0038604D01*
X0292108Y0036502D01*
X0293509Y0037202D01*
X0294210Y0037202D01*
X0294910Y0036502D01*
X0294910Y0035101D01*
X0294210Y0034400D01*
X0292808Y0034400D01*
X0292108Y0035101D01*
X0290306Y0036502D02*
X0287504Y0036502D01*
X0289606Y0038604D01*
X0289606Y0034400D01*
X0285702Y0035101D02*
X0285702Y0037903D01*
X0285002Y0038604D01*
X0282900Y0038604D01*
X0282900Y0034400D01*
X0285002Y0034400D01*
X0285702Y0035101D01*
X0285002Y0040400D02*
X0283601Y0040400D01*
X0282900Y0041101D01*
X0283601Y0042502D02*
X0285002Y0042502D01*
X0285702Y0041801D01*
X0285702Y0041101D01*
X0285002Y0040400D01*
X0287504Y0040400D02*
X0287504Y0044604D01*
X0285702Y0043903D02*
X0285002Y0044604D01*
X0283601Y0044604D01*
X0282900Y0043903D01*
X0282900Y0043202D01*
X0283601Y0042502D01*
X0287504Y0040400D02*
X0288905Y0041801D01*
X0290306Y0040400D01*
X0290306Y0044604D01*
X0292108Y0043903D02*
X0292808Y0044604D01*
X0294210Y0044604D01*
X0294910Y0043903D01*
X0294910Y0043202D01*
X0235910Y0042502D02*
X0233108Y0042502D01*
X0235210Y0044604D01*
X0235210Y0040400D01*
X0235210Y0038604D02*
X0235910Y0037903D01*
X0235910Y0037202D01*
X0235210Y0036502D01*
X0233808Y0036502D01*
X0233108Y0037202D01*
X0233108Y0037903D01*
X0233808Y0038604D01*
X0235210Y0038604D01*
X0235210Y0036502D02*
X0235910Y0035801D01*
X0235910Y0035101D01*
X0235210Y0034400D01*
X0233808Y0034400D01*
X0233108Y0035101D01*
X0233108Y0035801D01*
X0233808Y0036502D01*
X0231306Y0036502D02*
X0228504Y0036502D01*
X0230606Y0038604D01*
X0230606Y0034400D01*
X0226702Y0035101D02*
X0226002Y0034400D01*
X0223900Y0034400D01*
X0223900Y0038604D01*
X0226002Y0038604D01*
X0226702Y0037903D01*
X0226702Y0035101D01*
X0226002Y0040400D02*
X0224601Y0040400D01*
X0223900Y0041101D01*
X0224601Y0042502D02*
X0226002Y0042502D01*
X0226702Y0041801D01*
X0226702Y0041101D01*
X0226002Y0040400D01*
X0228504Y0040400D02*
X0229905Y0041801D01*
X0231306Y0040400D01*
X0231306Y0044604D01*
X0228504Y0044604D02*
X0228504Y0040400D01*
X0226702Y0043903D02*
X0226002Y0044604D01*
X0224601Y0044604D01*
X0223900Y0043903D01*
X0223900Y0043202D01*
X0224601Y0042502D01*
X0183898Y0028604D02*
X0181796Y0026502D01*
X0184598Y0026502D01*
X0183898Y0024400D02*
X0183898Y0028604D01*
X0179995Y0027903D02*
X0179995Y0025101D01*
X0179294Y0024400D01*
X0177192Y0024400D01*
X0177192Y0028604D01*
X0179294Y0028604D01*
X0179995Y0027903D01*
X0162098Y0045900D02*
X0159296Y0045900D01*
X0160697Y0045900D02*
X0160697Y0050104D01*
X0159296Y0048702D01*
X0157495Y0049403D02*
X0157495Y0046601D01*
X0156794Y0045900D01*
X0154692Y0045900D01*
X0154692Y0050104D01*
X0156794Y0050104D01*
X0157495Y0049403D01*
X0038514Y0102900D02*
X0035712Y0102900D01*
X0037113Y0102900D02*
X0037113Y0107104D01*
X0035712Y0105702D01*
X0033910Y0106403D02*
X0033210Y0107104D01*
X0031808Y0107104D01*
X0031108Y0106403D01*
X0031108Y0103601D01*
X0031808Y0102900D01*
X0033210Y0102900D01*
X0033910Y0103601D01*
X0029306Y0102900D02*
X0029306Y0107104D01*
X0026504Y0107104D02*
X0029306Y0102900D01*
X0026504Y0102900D02*
X0026504Y0107104D01*
X0024702Y0107104D02*
X0021900Y0107104D01*
X0021900Y0102900D01*
X0024702Y0102900D01*
X0023301Y0105002D02*
X0021900Y0105002D01*
X0021900Y0182900D02*
X0024702Y0182900D01*
X0026504Y0182900D02*
X0026504Y0187104D01*
X0029306Y0182900D01*
X0029306Y0187104D01*
X0031108Y0186403D02*
X0031108Y0183601D01*
X0031808Y0182900D01*
X0033210Y0182900D01*
X0033910Y0183601D01*
X0035712Y0183601D02*
X0036412Y0182900D01*
X0037814Y0182900D01*
X0038514Y0183601D01*
X0038514Y0184301D01*
X0037814Y0185002D01*
X0037113Y0185002D01*
X0037814Y0185002D02*
X0038514Y0185702D01*
X0038514Y0186403D01*
X0037814Y0187104D01*
X0036412Y0187104D01*
X0035712Y0186403D01*
X0033910Y0186403D02*
X0033210Y0187104D01*
X0031808Y0187104D01*
X0031108Y0186403D01*
X0024702Y0187104D02*
X0021900Y0187104D01*
X0021900Y0182900D01*
X0021900Y0185002D02*
X0023301Y0185002D01*
X0093900Y0185400D02*
X0096002Y0185400D01*
X0096702Y0186101D01*
X0096702Y0188903D01*
X0096002Y0189604D01*
X0093900Y0189604D01*
X0093900Y0185400D01*
X0098504Y0185400D02*
X0101306Y0185400D01*
X0099905Y0185400D02*
X0099905Y0189604D01*
X0098504Y0188202D01*
X0103108Y0188903D02*
X0103808Y0189604D01*
X0105210Y0189604D01*
X0105910Y0188903D01*
X0105910Y0188202D01*
X0103108Y0185400D01*
X0105910Y0185400D01*
X0421396Y0160509D02*
X0422798Y0159108D01*
X0421396Y0160509D02*
X0425600Y0160509D01*
X0425600Y0159108D02*
X0425600Y0161910D01*
X0600900Y0170900D02*
X0603002Y0170900D01*
X0603702Y0171601D01*
X0603702Y0174403D01*
X0603002Y0175104D01*
X0600900Y0175104D01*
X0600900Y0170900D01*
X0605504Y0171601D02*
X0606205Y0170900D01*
X0607606Y0170900D01*
X0608306Y0171601D01*
X0608306Y0172301D01*
X0607606Y0173002D01*
X0606905Y0173002D01*
X0607606Y0173002D02*
X0608306Y0173702D01*
X0608306Y0174403D01*
X0607606Y0175104D01*
X0606205Y0175104D01*
X0605504Y0174403D01*
X0605504Y0176900D02*
X0606905Y0178301D01*
X0608306Y0176900D01*
X0608306Y0181104D01*
X0610108Y0179002D02*
X0612210Y0179002D01*
X0612910Y0178301D01*
X0612910Y0177601D01*
X0612210Y0176900D01*
X0610808Y0176900D01*
X0610108Y0177601D01*
X0610108Y0179002D01*
X0611509Y0180403D01*
X0612910Y0181104D01*
X0612210Y0175104D02*
X0610808Y0175104D01*
X0610108Y0174403D01*
X0610108Y0173702D01*
X0610808Y0173002D01*
X0612910Y0173002D01*
X0612910Y0171601D02*
X0612910Y0174403D01*
X0612210Y0175104D01*
X0612910Y0171601D02*
X0612210Y0170900D01*
X0610808Y0170900D01*
X0610108Y0171601D01*
X0605504Y0176900D02*
X0605504Y0181104D01*
X0603702Y0180403D02*
X0603002Y0181104D01*
X0601601Y0181104D01*
X0600900Y0180403D01*
X0600900Y0179702D01*
X0601601Y0179002D01*
X0603002Y0179002D01*
X0603702Y0178301D01*
X0603702Y0177601D01*
X0603002Y0176900D01*
X0601601Y0176900D01*
X0600900Y0177601D01*
X0659900Y0177601D02*
X0660601Y0176900D01*
X0662002Y0176900D01*
X0662702Y0177601D01*
X0662702Y0178301D01*
X0662002Y0179002D01*
X0660601Y0179002D01*
X0659900Y0179702D01*
X0659900Y0180403D01*
X0660601Y0181104D01*
X0662002Y0181104D01*
X0662702Y0180403D01*
X0664504Y0181104D02*
X0664504Y0176900D01*
X0665905Y0178301D01*
X0667306Y0176900D01*
X0667306Y0181104D01*
X0669108Y0179702D02*
X0670509Y0181104D01*
X0670509Y0176900D01*
X0669108Y0176900D02*
X0671910Y0176900D01*
X0672410Y0175104D02*
X0671009Y0174403D01*
X0669608Y0173002D01*
X0671710Y0173002D01*
X0672410Y0172301D01*
X0672410Y0171601D01*
X0671710Y0170900D01*
X0670308Y0170900D01*
X0669608Y0171601D01*
X0669608Y0173002D01*
X0667806Y0173702D02*
X0667106Y0173002D01*
X0667806Y0172301D01*
X0667806Y0171601D01*
X0667106Y0170900D01*
X0665705Y0170900D01*
X0665004Y0171601D01*
X0663202Y0171601D02*
X0663202Y0174403D01*
X0662502Y0175104D01*
X0660400Y0175104D01*
X0660400Y0170900D01*
X0662502Y0170900D01*
X0663202Y0171601D01*
X0665004Y0174403D02*
X0665705Y0175104D01*
X0667106Y0175104D01*
X0667806Y0174403D01*
X0667806Y0173702D01*
X0667106Y0173002D02*
X0666405Y0173002D01*
X0673712Y0177601D02*
X0676514Y0180403D01*
X0676514Y0177601D01*
X0675814Y0176900D01*
X0674412Y0176900D01*
X0673712Y0177601D01*
X0673712Y0180403D01*
X0674412Y0181104D01*
X0675814Y0181104D01*
X0676514Y0180403D01*
X0777900Y0180403D02*
X0777900Y0179702D01*
X0778601Y0179002D01*
X0780002Y0179002D01*
X0780702Y0178301D01*
X0780702Y0177601D01*
X0780002Y0176900D01*
X0778601Y0176900D01*
X0777900Y0177601D01*
X0777900Y0175104D02*
X0780002Y0175104D01*
X0780702Y0174403D01*
X0780702Y0171601D01*
X0780002Y0170900D01*
X0777900Y0170900D01*
X0777900Y0175104D01*
X0782504Y0174403D02*
X0783205Y0175104D01*
X0784606Y0175104D01*
X0785306Y0174403D01*
X0785306Y0173702D01*
X0784606Y0173002D01*
X0785306Y0172301D01*
X0785306Y0171601D01*
X0784606Y0170900D01*
X0783205Y0170900D01*
X0782504Y0171601D01*
X0783905Y0173002D02*
X0784606Y0173002D01*
X0787108Y0174403D02*
X0787808Y0175104D01*
X0789210Y0175104D01*
X0789910Y0174403D01*
X0789910Y0173702D01*
X0789210Y0173002D01*
X0789910Y0172301D01*
X0789910Y0171601D01*
X0789210Y0170900D01*
X0787808Y0170900D01*
X0787108Y0171601D01*
X0788509Y0173002D02*
X0789210Y0173002D01*
X0789910Y0176900D02*
X0787108Y0176900D01*
X0788509Y0176900D02*
X0788509Y0181104D01*
X0787108Y0179702D01*
X0785306Y0181104D02*
X0785306Y0176900D01*
X0783905Y0178301D01*
X0782504Y0176900D01*
X0782504Y0181104D01*
X0780702Y0180403D02*
X0780002Y0181104D01*
X0778601Y0181104D01*
X0777900Y0180403D01*
X0791712Y0180403D02*
X0792412Y0181104D01*
X0793814Y0181104D01*
X0794514Y0180403D01*
X0794514Y0179702D01*
X0791712Y0176900D01*
X0794514Y0176900D01*
X0836900Y0177601D02*
X0837601Y0176900D01*
X0839002Y0176900D01*
X0839702Y0177601D01*
X0839702Y0178301D01*
X0839002Y0179002D01*
X0837601Y0179002D01*
X0836900Y0179702D01*
X0836900Y0180403D01*
X0837601Y0181104D01*
X0839002Y0181104D01*
X0839702Y0180403D01*
X0841504Y0181104D02*
X0841504Y0176900D01*
X0842905Y0178301D01*
X0844306Y0176900D01*
X0844306Y0181104D01*
X0846108Y0179702D02*
X0847509Y0181104D01*
X0847509Y0176900D01*
X0846108Y0176900D02*
X0848910Y0176900D01*
X0848210Y0175104D02*
X0848910Y0174403D01*
X0846108Y0171601D01*
X0846808Y0170900D01*
X0848210Y0170900D01*
X0848910Y0171601D01*
X0848910Y0174403D01*
X0848210Y0175104D02*
X0846808Y0175104D01*
X0846108Y0174403D01*
X0846108Y0171601D01*
X0844306Y0171601D02*
X0843606Y0170900D01*
X0842205Y0170900D01*
X0841504Y0171601D01*
X0839702Y0171601D02*
X0839702Y0174403D01*
X0839002Y0175104D01*
X0836900Y0175104D01*
X0836900Y0170900D01*
X0839002Y0170900D01*
X0839702Y0171601D01*
X0841504Y0174403D02*
X0842205Y0175104D01*
X0843606Y0175104D01*
X0844306Y0174403D01*
X0844306Y0173702D01*
X0843606Y0173002D01*
X0844306Y0172301D01*
X0844306Y0171601D01*
X0843606Y0173002D02*
X0842905Y0173002D01*
X0852814Y0176900D02*
X0852814Y0181104D01*
X0850712Y0179002D01*
X0853514Y0179002D01*
X0895900Y0179702D02*
X0896601Y0179002D01*
X0898002Y0179002D01*
X0898702Y0178301D01*
X0898702Y0177601D01*
X0898002Y0176900D01*
X0896601Y0176900D01*
X0895900Y0177601D01*
X0895900Y0179702D02*
X0895900Y0180403D01*
X0896601Y0181104D01*
X0898002Y0181104D01*
X0898702Y0180403D01*
X0900504Y0181104D02*
X0900504Y0176900D01*
X0901905Y0178301D01*
X0903306Y0176900D01*
X0903306Y0181104D01*
X0905108Y0179702D02*
X0906509Y0181104D01*
X0906509Y0176900D01*
X0905108Y0176900D02*
X0907910Y0176900D01*
X0907910Y0175104D02*
X0907910Y0174403D01*
X0905108Y0171601D01*
X0905108Y0170900D01*
X0903306Y0170900D02*
X0900504Y0170900D01*
X0903306Y0173702D01*
X0903306Y0174403D01*
X0902606Y0175104D01*
X0901205Y0175104D01*
X0900504Y0174403D01*
X0898702Y0174403D02*
X0898702Y0171601D01*
X0898002Y0170900D01*
X0895900Y0170900D01*
X0895900Y0175104D01*
X0898002Y0175104D01*
X0898702Y0174403D01*
X0905108Y0175104D02*
X0907910Y0175104D01*
X0910412Y0176900D02*
X0909712Y0177601D01*
X0910412Y0176900D02*
X0911814Y0176900D01*
X0912514Y0177601D01*
X0912514Y0179002D01*
X0911814Y0179702D01*
X0911113Y0179702D01*
X0909712Y0179002D01*
X0909712Y0181104D01*
X0912514Y0181104D01*
X0995400Y0164104D02*
X0995400Y0159900D01*
X0998202Y0159900D01*
X1000004Y0159900D02*
X1000004Y0164104D01*
X1002806Y0159900D01*
X1002806Y0164104D01*
X1004608Y0163403D02*
X1004608Y0160601D01*
X1005308Y0159900D01*
X1006710Y0159900D01*
X1007410Y0160601D01*
X1009212Y0162002D02*
X1012014Y0162002D01*
X1011314Y0164104D02*
X1009212Y0162002D01*
X1007410Y0163403D02*
X1006710Y0164104D01*
X1005308Y0164104D01*
X1004608Y0163403D01*
X0998202Y0164104D02*
X0995400Y0164104D01*
X0995400Y0162002D02*
X0996801Y0162002D01*
X1011314Y0159900D02*
X1011314Y0164104D01*
X1075400Y0164104D02*
X1075400Y0159900D01*
X1078202Y0159900D01*
X1080004Y0159900D02*
X1080004Y0164104D01*
X1082806Y0159900D01*
X1082806Y0164104D01*
X1084608Y0163403D02*
X1085308Y0164104D01*
X1086710Y0164104D01*
X1087410Y0163403D01*
X1089212Y0162002D02*
X1091314Y0162002D01*
X1092014Y0161301D01*
X1092014Y0160601D01*
X1091314Y0159900D01*
X1089912Y0159900D01*
X1089212Y0160601D01*
X1089212Y0162002D01*
X1090613Y0163403D01*
X1092014Y0164104D01*
X1087410Y0160601D02*
X1086710Y0159900D01*
X1085308Y0159900D01*
X1084608Y0160601D01*
X1084608Y0163403D01*
X1078202Y0164104D02*
X1075400Y0164104D01*
X1075400Y0162002D02*
X1076801Y0162002D01*
X1155400Y0162002D02*
X1156801Y0162002D01*
X1155400Y0164104D02*
X1155400Y0159900D01*
X1158202Y0159900D01*
X1160004Y0159900D02*
X1160004Y0164104D01*
X1162806Y0159900D01*
X1162806Y0164104D01*
X1164608Y0163403D02*
X1165308Y0164104D01*
X1166710Y0164104D01*
X1167410Y0163403D01*
X1169212Y0163403D02*
X1169212Y0162702D01*
X1169912Y0162002D01*
X1171314Y0162002D01*
X1172014Y0161301D01*
X1172014Y0160601D01*
X1171314Y0159900D01*
X1169912Y0159900D01*
X1169212Y0160601D01*
X1169212Y0161301D01*
X1169912Y0162002D01*
X1171314Y0162002D02*
X1172014Y0162702D01*
X1172014Y0163403D01*
X1171314Y0164104D01*
X1169912Y0164104D01*
X1169212Y0163403D01*
X1167410Y0160601D02*
X1166710Y0159900D01*
X1165308Y0159900D01*
X1164608Y0160601D01*
X1164608Y0163403D01*
X1158202Y0164104D02*
X1155400Y0164104D01*
X1235400Y0164104D02*
X1235400Y0159900D01*
X1238202Y0159900D01*
X1240004Y0159900D02*
X1240004Y0164104D01*
X1242806Y0159900D01*
X1242806Y0164104D01*
X1244608Y0163403D02*
X1245308Y0164104D01*
X1246710Y0164104D01*
X1247410Y0163403D01*
X1249212Y0162702D02*
X1250613Y0164104D01*
X1250613Y0159900D01*
X1249212Y0159900D02*
X1252014Y0159900D01*
X1253816Y0160601D02*
X1254516Y0159900D01*
X1255917Y0159900D01*
X1256618Y0160601D01*
X1256618Y0163403D01*
X1253816Y0160601D01*
X1253816Y0163403D01*
X1254516Y0164104D01*
X1255917Y0164104D01*
X1256618Y0163403D01*
X1247410Y0160601D02*
X1246710Y0159900D01*
X1245308Y0159900D01*
X1244608Y0160601D01*
X1244608Y0163403D01*
X1238202Y0164104D02*
X1235400Y0164104D01*
X1235400Y0162002D02*
X1236801Y0162002D01*
X1235400Y0239900D02*
X1238202Y0239900D01*
X1240004Y0239900D02*
X1240004Y0244104D01*
X1242806Y0239900D01*
X1242806Y0244104D01*
X1244608Y0243403D02*
X1244608Y0240601D01*
X1245308Y0239900D01*
X1246710Y0239900D01*
X1247410Y0240601D01*
X1249212Y0239900D02*
X1252014Y0242702D01*
X1252014Y0243403D01*
X1251314Y0244104D01*
X1249912Y0244104D01*
X1249212Y0243403D01*
X1247410Y0243403D02*
X1246710Y0244104D01*
X1245308Y0244104D01*
X1244608Y0243403D01*
X1249212Y0239900D02*
X1252014Y0239900D01*
X1238202Y0244104D02*
X1235400Y0244104D01*
X1235400Y0239900D01*
X1235400Y0242002D02*
X1236801Y0242002D01*
X1172014Y0242002D02*
X1169912Y0242002D01*
X1169212Y0242702D01*
X1169212Y0243403D01*
X1169912Y0244104D01*
X1171314Y0244104D01*
X1172014Y0243403D01*
X1172014Y0240601D01*
X1171314Y0239900D01*
X1169912Y0239900D01*
X1169212Y0240601D01*
X1167410Y0240601D02*
X1166710Y0239900D01*
X1165308Y0239900D01*
X1164608Y0240601D01*
X1164608Y0243403D01*
X1165308Y0244104D01*
X1166710Y0244104D01*
X1167410Y0243403D01*
X1162806Y0244104D02*
X1162806Y0239900D01*
X1160004Y0244104D01*
X1160004Y0239900D01*
X1158202Y0239900D02*
X1155400Y0239900D01*
X1155400Y0244104D01*
X1158202Y0244104D01*
X1156801Y0242002D02*
X1155400Y0242002D01*
X1092014Y0243403D02*
X1089212Y0240601D01*
X1089212Y0239900D01*
X1087410Y0240601D02*
X1086710Y0239900D01*
X1085308Y0239900D01*
X1084608Y0240601D01*
X1084608Y0243403D01*
X1085308Y0244104D01*
X1086710Y0244104D01*
X1087410Y0243403D01*
X1089212Y0244104D02*
X1092014Y0244104D01*
X1092014Y0243403D01*
X1082806Y0244104D02*
X1082806Y0239900D01*
X1080004Y0244104D01*
X1080004Y0239900D01*
X1078202Y0239900D02*
X1075400Y0239900D01*
X1075400Y0244104D01*
X1078202Y0244104D01*
X1076801Y0242002D02*
X1075400Y0242002D01*
X1012014Y0242002D02*
X1012014Y0240601D01*
X1011314Y0239900D01*
X1009912Y0239900D01*
X1009212Y0240601D01*
X1009212Y0242002D02*
X1010613Y0242702D01*
X1011314Y0242702D01*
X1012014Y0242002D01*
X1012014Y0244104D02*
X1009212Y0244104D01*
X1009212Y0242002D01*
X1007410Y0243403D02*
X1006710Y0244104D01*
X1005308Y0244104D01*
X1004608Y0243403D01*
X1004608Y0240601D01*
X1005308Y0239900D01*
X1006710Y0239900D01*
X1007410Y0240601D01*
X1002806Y0239900D02*
X1002806Y0244104D01*
X1000004Y0244104D02*
X1002806Y0239900D01*
X1000004Y0239900D02*
X1000004Y0244104D01*
X0998202Y0244104D02*
X0995400Y0244104D01*
X0995400Y0239900D01*
X0998202Y0239900D01*
X0996801Y0242002D02*
X0995400Y0242002D01*
X0962910Y0263400D02*
X0960108Y0263400D01*
X0961509Y0263400D02*
X0961509Y0267604D01*
X0960108Y0266202D01*
X0958306Y0263400D02*
X0955504Y0263400D01*
X0956905Y0263400D02*
X0956905Y0267604D01*
X0955504Y0266202D01*
X0953702Y0266903D02*
X0953002Y0267604D01*
X0950900Y0267604D01*
X0950900Y0263400D01*
X0953002Y0263400D01*
X0953702Y0264101D01*
X0953702Y0266903D01*
X0931806Y0266903D02*
X0931806Y0266202D01*
X0931106Y0265502D01*
X0929705Y0265502D01*
X0929004Y0266202D01*
X0929004Y0266903D01*
X0929705Y0267604D01*
X0931106Y0267604D01*
X0931806Y0266903D01*
X0931106Y0265502D02*
X0931806Y0264801D01*
X0931806Y0264101D01*
X0931106Y0263400D01*
X0929705Y0263400D01*
X0929004Y0264101D01*
X0929004Y0264801D01*
X0929705Y0265502D01*
X0927202Y0266903D02*
X0926502Y0267604D01*
X0924400Y0267604D01*
X0924400Y0263400D01*
X0926502Y0263400D01*
X0927202Y0264101D01*
X0927202Y0266903D01*
X0893600Y0274900D02*
X0889396Y0274900D01*
X0889396Y0277002D01*
X0890097Y0277702D01*
X0891498Y0277702D01*
X0892199Y0277002D01*
X0892199Y0274900D01*
X0892199Y0276301D02*
X0893600Y0277702D01*
X0893600Y0279504D02*
X0893600Y0282306D01*
X0893600Y0280905D02*
X0889396Y0280905D01*
X0890798Y0279504D01*
X0890097Y0284108D02*
X0889396Y0284808D01*
X0889396Y0286210D01*
X0890097Y0286910D01*
X0890798Y0286910D01*
X0891498Y0286210D01*
X0892199Y0286910D01*
X0892899Y0286910D01*
X0893600Y0286210D01*
X0893600Y0284808D01*
X0892899Y0284108D01*
X0891498Y0285509D02*
X0891498Y0286210D01*
X0892199Y0291400D02*
X0892199Y0293502D01*
X0891498Y0294202D01*
X0890097Y0294202D01*
X0889396Y0293502D01*
X0889396Y0291400D01*
X0893600Y0291400D01*
X0892199Y0292801D02*
X0893600Y0294202D01*
X0893600Y0296004D02*
X0893600Y0298806D01*
X0893600Y0297405D02*
X0889396Y0297405D01*
X0890798Y0296004D01*
X0875306Y0291903D02*
X0874606Y0292604D01*
X0873205Y0292604D01*
X0872504Y0291903D01*
X0870702Y0291903D02*
X0870702Y0289101D01*
X0870002Y0288400D01*
X0868601Y0288400D01*
X0867900Y0289101D01*
X0867900Y0291903D01*
X0868601Y0292604D01*
X0870002Y0292604D01*
X0870702Y0291903D01*
X0869301Y0289801D02*
X0870702Y0288400D01*
X0872504Y0288400D02*
X0875306Y0291202D01*
X0875306Y0291903D01*
X0875306Y0288400D02*
X0872504Y0288400D01*
X0872953Y0287012D02*
X0868047Y0287012D01*
X0851100Y0286910D02*
X0851100Y0284108D01*
X0848298Y0286910D01*
X0847597Y0286910D01*
X0846896Y0286210D01*
X0846896Y0284808D01*
X0847597Y0284108D01*
X0846896Y0280905D02*
X0851100Y0280905D01*
X0851100Y0279504D02*
X0851100Y0282306D01*
X0848298Y0279504D02*
X0846896Y0280905D01*
X0847597Y0277702D02*
X0846896Y0277002D01*
X0846896Y0274900D01*
X0851100Y0274900D01*
X0849699Y0274900D02*
X0849699Y0277002D01*
X0848998Y0277702D01*
X0847597Y0277702D01*
X0849699Y0276301D02*
X0851100Y0277702D01*
X0868047Y0275988D02*
X0872953Y0275988D01*
X0851100Y0290400D02*
X0846896Y0290400D01*
X0846896Y0292502D01*
X0847597Y0293202D01*
X0848998Y0293202D01*
X0849699Y0292502D01*
X0849699Y0290400D01*
X0849699Y0291801D02*
X0851100Y0293202D01*
X0851100Y0295004D02*
X0851100Y0297806D01*
X0851100Y0296405D02*
X0846896Y0296405D01*
X0848298Y0295004D01*
X0847597Y0299608D02*
X0846896Y0300308D01*
X0846896Y0301710D01*
X0847597Y0302410D01*
X0850399Y0299608D01*
X0851100Y0300308D01*
X0851100Y0301710D01*
X0850399Y0302410D01*
X0847597Y0302410D01*
X0847597Y0299608D02*
X0850399Y0299608D01*
X0868047Y0300988D02*
X0872953Y0300988D01*
X0851100Y0306400D02*
X0846896Y0306400D01*
X0846896Y0308502D01*
X0847597Y0309202D01*
X0848998Y0309202D01*
X0849699Y0308502D01*
X0849699Y0306400D01*
X0849699Y0307801D02*
X0851100Y0309202D01*
X0850399Y0311004D02*
X0849699Y0311004D01*
X0848998Y0311705D01*
X0848998Y0313106D01*
X0849699Y0313806D01*
X0850399Y0313806D01*
X0851100Y0313106D01*
X0851100Y0311705D01*
X0850399Y0311004D01*
X0848998Y0311705D02*
X0848298Y0311004D01*
X0847597Y0311004D01*
X0846896Y0311705D01*
X0846896Y0313106D01*
X0847597Y0313806D01*
X0848298Y0313806D01*
X0848998Y0313106D01*
X0867900Y0314101D02*
X0868601Y0313400D01*
X0870002Y0313400D01*
X0870702Y0314101D01*
X0870702Y0316903D01*
X0870002Y0317604D01*
X0868601Y0317604D01*
X0867900Y0316903D01*
X0867900Y0314101D01*
X0869301Y0314801D02*
X0870702Y0313400D01*
X0872504Y0313400D02*
X0875306Y0313400D01*
X0873905Y0313400D02*
X0873905Y0317604D01*
X0872504Y0316202D01*
X0872953Y0312012D02*
X0868047Y0312012D01*
X0889396Y0312705D02*
X0890097Y0312004D01*
X0890798Y0312004D01*
X0891498Y0312705D01*
X0891498Y0314806D01*
X0890097Y0314806D02*
X0889396Y0314106D01*
X0889396Y0312705D01*
X0890097Y0314806D02*
X0892899Y0314806D01*
X0893600Y0314106D01*
X0893600Y0312705D01*
X0892899Y0312004D01*
X0893600Y0310202D02*
X0892199Y0308801D01*
X0892199Y0309502D02*
X0892199Y0307400D01*
X0893600Y0307400D02*
X0889396Y0307400D01*
X0889396Y0309502D01*
X0890097Y0310202D01*
X0891498Y0310202D01*
X0892199Y0309502D01*
X0893600Y0303410D02*
X0893600Y0300608D01*
X0893600Y0302009D02*
X0889396Y0302009D01*
X0890798Y0300608D01*
X0812910Y0301702D02*
X0810108Y0298900D01*
X0812910Y0298900D01*
X0812910Y0301702D02*
X0812910Y0302403D01*
X0812210Y0303104D01*
X0810808Y0303104D01*
X0810108Y0302403D01*
X0808306Y0302403D02*
X0807606Y0303104D01*
X0806205Y0303104D01*
X0805504Y0302403D01*
X0803702Y0302403D02*
X0803002Y0303104D01*
X0801601Y0303104D01*
X0800900Y0302403D01*
X0800900Y0299601D01*
X0801601Y0298900D01*
X0803002Y0298900D01*
X0803702Y0299601D01*
X0805504Y0298900D02*
X0808306Y0301702D01*
X0808306Y0302403D01*
X0808306Y0298900D02*
X0805504Y0298900D01*
X0757104Y0296600D02*
X0753601Y0296600D01*
X0752900Y0295899D01*
X0752900Y0294498D01*
X0753601Y0293798D01*
X0757104Y0293798D01*
X0756403Y0291996D02*
X0755702Y0291996D01*
X0755002Y0291295D01*
X0755002Y0289194D01*
X0753601Y0289194D02*
X0756403Y0289194D01*
X0757104Y0289894D01*
X0757104Y0291295D01*
X0756403Y0291996D01*
X0753601Y0291996D02*
X0752900Y0291295D01*
X0752900Y0289894D01*
X0753601Y0289194D01*
X0697910Y0270903D02*
X0697910Y0270202D01*
X0697210Y0269502D01*
X0697910Y0268801D01*
X0697910Y0268101D01*
X0697210Y0267400D01*
X0695808Y0267400D01*
X0695108Y0268101D01*
X0693306Y0267400D02*
X0690504Y0267400D01*
X0693306Y0270202D01*
X0693306Y0270903D01*
X0692606Y0271604D01*
X0691205Y0271604D01*
X0690504Y0270903D01*
X0688702Y0270903D02*
X0688002Y0271604D01*
X0686601Y0271604D01*
X0685900Y0270903D01*
X0685900Y0268101D01*
X0686601Y0267400D01*
X0688002Y0267400D01*
X0688702Y0268101D01*
X0695108Y0270903D02*
X0695808Y0271604D01*
X0697210Y0271604D01*
X0697910Y0270903D01*
X0697210Y0269502D02*
X0696509Y0269502D01*
X0677311Y0263598D02*
X0648689Y0263598D01*
X0583910Y0256502D02*
X0581108Y0256502D01*
X0583210Y0258604D01*
X0583210Y0254400D01*
X0579306Y0254400D02*
X0576504Y0254400D01*
X0577905Y0254400D02*
X0577905Y0258604D01*
X0576504Y0257202D01*
X0574702Y0257903D02*
X0574002Y0258604D01*
X0572601Y0258604D01*
X0571900Y0257903D01*
X0571900Y0255101D01*
X0572601Y0254400D01*
X0574002Y0254400D01*
X0574702Y0255101D01*
X0569199Y0267900D02*
X0570600Y0269301D01*
X0569199Y0270702D01*
X0566396Y0270702D01*
X0566396Y0272504D02*
X0566396Y0274606D01*
X0567097Y0275306D01*
X0568498Y0275306D01*
X0569199Y0274606D01*
X0569199Y0272504D01*
X0570600Y0272504D02*
X0566396Y0272504D01*
X0569199Y0273905D02*
X0570600Y0275306D01*
X0570600Y0277108D02*
X0570600Y0279910D01*
X0570600Y0278509D02*
X0566396Y0278509D01*
X0567798Y0277108D01*
X0569199Y0267900D02*
X0566396Y0267900D01*
X0585601Y0288900D02*
X0587002Y0288900D01*
X0587702Y0289601D01*
X0589504Y0289601D02*
X0590205Y0288900D01*
X0591606Y0288900D01*
X0592306Y0289601D01*
X0592306Y0292403D01*
X0591606Y0293104D01*
X0590205Y0293104D01*
X0589504Y0292403D01*
X0589504Y0291702D01*
X0590205Y0291002D01*
X0592306Y0291002D01*
X0587702Y0292403D02*
X0587002Y0293104D01*
X0585601Y0293104D01*
X0584900Y0292403D01*
X0584900Y0289601D01*
X0585601Y0288900D01*
X0648689Y0308303D02*
X0677311Y0308303D01*
X0656043Y0310723D02*
X0655342Y0310022D01*
X0653941Y0310022D01*
X0653240Y0310723D01*
X0653240Y0311423D01*
X0653941Y0312124D01*
X0655342Y0312124D01*
X0656043Y0311423D01*
X0656043Y0310723D01*
X0655342Y0312124D02*
X0656043Y0312824D01*
X0656043Y0313525D01*
X0655342Y0314226D01*
X0653941Y0314226D01*
X0653240Y0313525D01*
X0653240Y0312824D01*
X0653941Y0312124D01*
X0651439Y0310723D02*
X0650738Y0310022D01*
X0649337Y0310022D01*
X0648636Y0310723D01*
X0648636Y0314226D01*
X0651439Y0314226D02*
X0651439Y0310723D01*
X0621806Y0318403D02*
X0619004Y0315601D01*
X0619004Y0314900D01*
X0617202Y0315601D02*
X0617202Y0319104D01*
X0619004Y0319104D02*
X0621806Y0319104D01*
X0621806Y0318403D01*
X0617202Y0315601D02*
X0616502Y0314900D01*
X0615101Y0314900D01*
X0614400Y0315601D01*
X0614400Y0319104D01*
X0629900Y0323601D02*
X0630601Y0322900D01*
X0632002Y0322900D01*
X0632702Y0323601D01*
X0634504Y0322900D02*
X0637306Y0325702D01*
X0637306Y0326403D01*
X0636606Y0327104D01*
X0635205Y0327104D01*
X0634504Y0326403D01*
X0632702Y0326403D02*
X0632002Y0327104D01*
X0630601Y0327104D01*
X0629900Y0326403D01*
X0629900Y0323601D01*
X0634504Y0322900D02*
X0637306Y0322900D01*
X0639108Y0322900D02*
X0641910Y0322900D01*
X0640509Y0322900D02*
X0640509Y0327104D01*
X0639108Y0325702D01*
X0289806Y0292900D02*
X0287004Y0292900D01*
X0288405Y0292900D02*
X0288405Y0297104D01*
X0287004Y0295702D01*
X0285202Y0292900D02*
X0282400Y0292900D01*
X0282400Y0297104D01*
X1029396Y0277606D02*
X1030097Y0278306D01*
X1030798Y0278306D01*
X1031498Y0277606D01*
X1032199Y0278306D01*
X1032899Y0278306D01*
X1033600Y0277606D01*
X1033600Y0276205D01*
X1032899Y0275504D01*
X1032899Y0273702D02*
X1030097Y0273702D01*
X1029396Y0273002D01*
X1029396Y0270900D01*
X1033600Y0270900D01*
X1033600Y0273002D01*
X1032899Y0273702D01*
X1030097Y0275504D02*
X1029396Y0276205D01*
X1029396Y0277606D01*
X1031498Y0277606D02*
X1031498Y0276905D01*
X1049396Y0278306D02*
X1050097Y0276905D01*
X1051498Y0275504D01*
X1051498Y0277606D01*
X1052199Y0278306D01*
X1052899Y0278306D01*
X1053600Y0277606D01*
X1053600Y0276205D01*
X1052899Y0275504D01*
X1051498Y0275504D01*
X1050097Y0273702D02*
X1049396Y0273002D01*
X1049396Y0270900D01*
X1053600Y0270900D01*
X1053600Y0273002D01*
X1052899Y0273702D01*
X1050097Y0273702D01*
X1069396Y0273002D02*
X1069396Y0270900D01*
X1073600Y0270900D01*
X1073600Y0273002D01*
X1072899Y0273702D01*
X1070097Y0273702D01*
X1069396Y0273002D01*
X1070798Y0275504D02*
X1069396Y0276905D01*
X1073600Y0276905D01*
X1073600Y0275504D02*
X1073600Y0278306D01*
X1072899Y0280108D02*
X1070097Y0282910D01*
X1072899Y0282910D01*
X1073600Y0282210D01*
X1073600Y0280808D01*
X1072899Y0280108D01*
X1070097Y0280108D01*
X1069396Y0280808D01*
X1069396Y0282210D01*
X1070097Y0282910D01*
X1089396Y0282210D02*
X1090097Y0282910D01*
X1090798Y0282910D01*
X1091498Y0282210D01*
X1092199Y0282910D01*
X1092899Y0282910D01*
X1093600Y0282210D01*
X1093600Y0280808D01*
X1092899Y0280108D01*
X1093600Y0278306D02*
X1093600Y0275504D01*
X1093600Y0276905D02*
X1089396Y0276905D01*
X1090798Y0275504D01*
X1090097Y0273702D02*
X1089396Y0273002D01*
X1089396Y0270900D01*
X1093600Y0270900D01*
X1093600Y0273002D01*
X1092899Y0273702D01*
X1090097Y0273702D01*
X1090097Y0280108D02*
X1089396Y0280808D01*
X1089396Y0282210D01*
X1091498Y0282210D02*
X1091498Y0281509D01*
X1109396Y0282910D02*
X1110097Y0281509D01*
X1111498Y0280108D01*
X1111498Y0282210D01*
X1112199Y0282910D01*
X1112899Y0282910D01*
X1113600Y0282210D01*
X1113600Y0280808D01*
X1112899Y0280108D01*
X1111498Y0280108D01*
X1113600Y0278306D02*
X1113600Y0275504D01*
X1113600Y0276905D02*
X1109396Y0276905D01*
X1110798Y0275504D01*
X1110097Y0273702D02*
X1109396Y0273002D01*
X1109396Y0270900D01*
X1113600Y0270900D01*
X1113600Y0273002D01*
X1112899Y0273702D01*
X1110097Y0273702D01*
X1129396Y0273002D02*
X1129396Y0270900D01*
X1133600Y0270900D01*
X1133600Y0273002D01*
X1132899Y0273702D01*
X1130097Y0273702D01*
X1129396Y0273002D01*
X1130798Y0275504D02*
X1129396Y0276905D01*
X1133600Y0276905D01*
X1133600Y0275504D02*
X1133600Y0278306D01*
X1132899Y0280108D02*
X1132199Y0280108D01*
X1131498Y0280808D01*
X1131498Y0282210D01*
X1132199Y0282910D01*
X1132899Y0282910D01*
X1133600Y0282210D01*
X1133600Y0280808D01*
X1132899Y0280108D01*
X1131498Y0280808D02*
X1130798Y0280108D01*
X1130097Y0280108D01*
X1129396Y0280808D01*
X1129396Y0282210D01*
X1130097Y0282910D01*
X1130798Y0282910D01*
X1131498Y0282210D01*
X1149396Y0282210D02*
X1150097Y0282910D01*
X1152899Y0280108D01*
X1153600Y0280808D01*
X1153600Y0282210D01*
X1152899Y0282910D01*
X1150097Y0282910D01*
X1149396Y0282210D02*
X1149396Y0280808D01*
X1150097Y0280108D01*
X1152899Y0280108D01*
X1153600Y0278306D02*
X1153600Y0275504D01*
X1150798Y0278306D01*
X1150097Y0278306D01*
X1149396Y0277606D01*
X1149396Y0276205D01*
X1150097Y0275504D01*
X1150097Y0273702D02*
X1149396Y0273002D01*
X1149396Y0270900D01*
X1153600Y0270900D01*
X1153600Y0273002D01*
X1152899Y0273702D01*
X1150097Y0273702D01*
X1169396Y0273002D02*
X1169396Y0270900D01*
X1173600Y0270900D01*
X1173600Y0273002D01*
X1172899Y0273702D01*
X1170097Y0273702D01*
X1169396Y0273002D01*
X1170097Y0275504D02*
X1169396Y0276205D01*
X1169396Y0277606D01*
X1170097Y0278306D01*
X1170798Y0278306D01*
X1173600Y0275504D01*
X1173600Y0278306D01*
X1173600Y0280108D02*
X1170798Y0282910D01*
X1170097Y0282910D01*
X1169396Y0282210D01*
X1169396Y0280808D01*
X1170097Y0280108D01*
X1173600Y0280108D02*
X1173600Y0282910D01*
X1189396Y0282210D02*
X1190097Y0282910D01*
X1190798Y0282910D01*
X1191498Y0282210D01*
X1192199Y0282910D01*
X1192899Y0282910D01*
X1193600Y0282210D01*
X1193600Y0280808D01*
X1192899Y0280108D01*
X1193600Y0278306D02*
X1193600Y0275504D01*
X1190798Y0278306D01*
X1190097Y0278306D01*
X1189396Y0277606D01*
X1189396Y0276205D01*
X1190097Y0275504D01*
X1190097Y0273702D02*
X1189396Y0273002D01*
X1189396Y0270900D01*
X1193600Y0270900D01*
X1193600Y0273002D01*
X1192899Y0273702D01*
X1190097Y0273702D01*
X1209396Y0273002D02*
X1209396Y0270900D01*
X1213600Y0270900D01*
X1213600Y0273002D01*
X1212899Y0273702D01*
X1210097Y0273702D01*
X1209396Y0273002D01*
X1210097Y0275504D02*
X1209396Y0276205D01*
X1209396Y0277606D01*
X1210097Y0278306D01*
X1210798Y0278306D01*
X1213600Y0275504D01*
X1213600Y0278306D01*
X1211498Y0280108D02*
X1211498Y0282910D01*
X1209396Y0282210D02*
X1211498Y0280108D01*
X1213600Y0282210D02*
X1209396Y0282210D01*
X1191498Y0282210D02*
X1191498Y0281509D01*
X1190097Y0280108D02*
X1189396Y0280808D01*
X1189396Y0282210D01*
X1229396Y0282910D02*
X1229396Y0280108D01*
X1231498Y0280108D01*
X1230798Y0281509D01*
X1230798Y0282210D01*
X1231498Y0282910D01*
X1232899Y0282910D01*
X1233600Y0282210D01*
X1233600Y0280808D01*
X1232899Y0280108D01*
X1233600Y0278306D02*
X1233600Y0275504D01*
X1230798Y0278306D01*
X1230097Y0278306D01*
X1229396Y0277606D01*
X1229396Y0276205D01*
X1230097Y0275504D01*
X1230097Y0273702D02*
X1229396Y0273002D01*
X1229396Y0270900D01*
X1233600Y0270900D01*
X1233600Y0273002D01*
X1232899Y0273702D01*
X1230097Y0273702D01*
X1249396Y0273002D02*
X1249396Y0270900D01*
X1253600Y0270900D01*
X1253600Y0273002D01*
X1252899Y0273702D01*
X1250097Y0273702D01*
X1249396Y0273002D01*
X1250097Y0275504D02*
X1249396Y0276205D01*
X1249396Y0277606D01*
X1250097Y0278306D01*
X1250798Y0278306D01*
X1253600Y0275504D01*
X1253600Y0278306D01*
X1252899Y0280108D02*
X1253600Y0280808D01*
X1253600Y0282210D01*
X1252899Y0282910D01*
X1252199Y0282910D01*
X1251498Y0282210D01*
X1251498Y0280108D01*
X1252899Y0280108D01*
X1251498Y0280108D02*
X1250097Y0281509D01*
X1249396Y0282910D01*
D12*
X1235000Y0238500D02*
X1283000Y0238500D01*
X1283000Y0220500D01*
X1235000Y0220500D02*
X1235000Y0238500D01*
X1203000Y0238500D02*
X1203000Y0220500D01*
X1155000Y0220500D02*
X1155000Y0238500D01*
X1203000Y0238500D01*
X1123000Y0238500D02*
X1123000Y0220500D01*
X1075000Y0220500D02*
X1075000Y0238500D01*
X1123000Y0238500D01*
X1043000Y0238500D02*
X1043000Y0220500D01*
X0995000Y0220500D02*
X0995000Y0238500D01*
X1043000Y0238500D01*
X1043000Y0205500D02*
X1043000Y0184000D01*
X1034000Y0184000D01*
X1004000Y0184000D02*
X0995000Y0184000D01*
X0995000Y0205500D01*
X0918500Y0211000D02*
X0912500Y0211000D01*
X0859500Y0211000D02*
X0853500Y0211000D01*
X0800500Y0211000D02*
X0794500Y0211000D01*
X0682500Y0211000D02*
X0676500Y0211000D01*
X0623500Y0211000D02*
X0617500Y0211000D01*
X0582394Y0268098D02*
X0576606Y0268098D01*
X0576606Y0271445D02*
X0576606Y0275555D01*
X0576606Y0278902D02*
X0582394Y0278902D01*
X0995000Y0158500D02*
X1043000Y0158500D01*
X1043000Y0140500D01*
X1075000Y0140500D02*
X1075000Y0158500D01*
X1123000Y0158500D01*
X1123000Y0140500D01*
X1155000Y0140500D02*
X1155000Y0158500D01*
X1203000Y0158500D01*
X1203000Y0140500D01*
X1235000Y0140500D02*
X1235000Y0158500D01*
X1283000Y0158500D01*
X1283000Y0140500D01*
X1283000Y0125500D02*
X1283000Y0104000D01*
X1274000Y0104000D01*
X1244000Y0104000D02*
X1235000Y0104000D01*
X1235000Y0125500D01*
X1203000Y0125500D02*
X1203000Y0104000D01*
X1194000Y0104000D01*
X1164000Y0104000D02*
X1155000Y0104000D01*
X1155000Y0125500D01*
X1123000Y0125500D02*
X1123000Y0104000D01*
X1114000Y0104000D01*
X1084000Y0104000D02*
X1075000Y0104000D01*
X1075000Y0125500D01*
X1043000Y0125500D02*
X1043000Y0104000D01*
X1034000Y0104000D01*
X1004000Y0104000D02*
X0995000Y0104000D01*
X0995000Y0125500D01*
X0995000Y0140500D02*
X0995000Y0158500D01*
X0948000Y0152000D02*
X0942000Y0152000D01*
X0889000Y0152000D02*
X0883000Y0152000D01*
X0830000Y0152000D02*
X0824000Y0152000D01*
X0771000Y0152000D02*
X0765000Y0152000D01*
X0712000Y0152000D02*
X0706000Y0152000D01*
X0653000Y0152000D02*
X0647000Y0152000D01*
X0594000Y0152000D02*
X0588000Y0152000D01*
X0588000Y0074500D02*
X0594000Y0074500D01*
X0647000Y0074500D02*
X0653000Y0074500D01*
X0706000Y0074500D02*
X0712000Y0074500D01*
X0765000Y0074500D02*
X0771000Y0074500D01*
X0824000Y0074500D02*
X0830000Y0074500D01*
X0883000Y0074500D02*
X0889000Y0074500D01*
X0942000Y0074500D02*
X0948000Y0074500D01*
X1075000Y0184000D02*
X1075000Y0205500D01*
X1123000Y0205500D02*
X1123000Y0184000D01*
X1114000Y0184000D01*
X1084000Y0184000D02*
X1075000Y0184000D01*
X1155000Y0184000D02*
X1155000Y0205500D01*
X1203000Y0205500D02*
X1203000Y0184000D01*
X1194000Y0184000D01*
X1164000Y0184000D02*
X1155000Y0184000D01*
X1235000Y0184000D02*
X1235000Y0205500D01*
X1283000Y0205500D02*
X1283000Y0184000D01*
X1274000Y0184000D01*
X1244000Y0184000D02*
X1235000Y0184000D01*
X0364500Y0074500D02*
X0358500Y0074500D01*
X0305500Y0074500D02*
X0299500Y0074500D01*
X0246500Y0074500D02*
X0240500Y0074500D01*
X0087500Y0108500D02*
X0087500Y0165000D01*
X0019500Y0165000D01*
X0019500Y0108500D01*
X0087500Y0108500D01*
X0087500Y0188500D02*
X0019500Y0188500D01*
X0019500Y0245000D01*
X0087500Y0245000D01*
X0087500Y0188500D01*
D13*
X0095900Y0183600D02*
X0099100Y0183600D01*
X0099100Y0181400D01*
X0099100Y0174600D02*
X0099100Y0172400D01*
X0095900Y0172400D01*
X0127665Y0107504D02*
X0523335Y0107504D01*
X0523335Y0239394D01*
X0127665Y0239394D01*
X0127665Y0107504D01*
X0157900Y0063100D02*
X0157900Y0060900D01*
X0157900Y0063100D02*
X0161100Y0063100D01*
X0157900Y0054100D02*
X0157900Y0051900D01*
X0161100Y0051900D01*
X0180400Y0041600D02*
X0180400Y0039400D01*
X0180400Y0041600D02*
X0183600Y0041600D01*
X0180400Y0032600D02*
X0180400Y0030400D01*
X0183600Y0030400D01*
X0501665Y0138004D02*
X0504165Y0135504D01*
X0519165Y0135504D01*
X0521665Y0139004D01*
X0521665Y0144004D01*
X0519165Y0145504D01*
X0504165Y0145504D01*
X0501665Y0148004D01*
X0501665Y0153004D01*
X0504165Y0155504D01*
X0519165Y0155504D01*
X0521665Y0159004D01*
X0521665Y0164004D01*
X0519165Y0165504D01*
X0504165Y0165504D01*
X0501665Y0168004D01*
X0501665Y0173004D01*
X0504165Y0175504D01*
X0519165Y0175504D01*
X0521665Y0179004D01*
X0521665Y0184004D01*
X0519165Y0185504D01*
X0504165Y0185504D01*
X0501665Y0188004D01*
X0501665Y0193004D01*
X0504165Y0195504D01*
X0519165Y0195504D01*
X0521665Y0199004D01*
X0521665Y0204004D01*
X0519165Y0205504D01*
X0521665Y0209004D01*
X0521665Y0214004D01*
X0519165Y0215504D01*
X0504165Y0215504D01*
X0501665Y0213004D01*
X0501665Y0208004D01*
X0504165Y0205504D01*
X0519165Y0205504D01*
X0504165Y0205504D02*
X0501665Y0203004D01*
X0501665Y0198004D01*
X0504165Y0195504D01*
X0519165Y0195504D02*
X0521665Y0194004D01*
X0521665Y0189004D01*
X0519165Y0185504D01*
X0504165Y0185504D02*
X0501665Y0183004D01*
X0501665Y0178004D01*
X0504165Y0175504D01*
X0519165Y0175504D02*
X0521665Y0174004D01*
X0521665Y0169004D01*
X0519165Y0165504D01*
X0504165Y0165504D02*
X0501665Y0163004D01*
X0501665Y0158004D01*
X0504165Y0155504D01*
X0519165Y0155504D02*
X0521665Y0154004D01*
X0521665Y0149004D01*
X0519165Y0145504D01*
X0504165Y0145504D02*
X0501665Y0143004D01*
X0501665Y0138004D01*
X0926400Y0250400D02*
X0929600Y0250400D01*
X0929600Y0252600D01*
X0929600Y0259400D02*
X0929600Y0261600D01*
X0926400Y0261600D01*
X0952900Y0261600D02*
X0956100Y0261600D01*
X0956100Y0259400D01*
X0956100Y0252600D02*
X0956100Y0250400D01*
X0952900Y0250400D01*
X1035400Y0272900D02*
X1035400Y0276100D01*
X1037600Y0276100D01*
X1044400Y0276100D02*
X1046600Y0276100D01*
X1046600Y0272900D01*
X1055400Y0272900D02*
X1055400Y0276100D01*
X1057600Y0276100D01*
X1064400Y0276100D02*
X1066600Y0276100D01*
X1066600Y0272900D01*
X1075400Y0272900D02*
X1075400Y0276100D01*
X1077600Y0276100D01*
X1084400Y0276100D02*
X1086600Y0276100D01*
X1086600Y0272900D01*
X1095400Y0272900D02*
X1095400Y0276100D01*
X1097600Y0276100D01*
X1104400Y0276100D02*
X1106600Y0276100D01*
X1106600Y0272900D01*
X1115400Y0272900D02*
X1115400Y0276100D01*
X1117600Y0276100D01*
X1124400Y0276100D02*
X1126600Y0276100D01*
X1126600Y0272900D01*
X1135400Y0272900D02*
X1135400Y0276100D01*
X1137600Y0276100D01*
X1144400Y0276100D02*
X1146600Y0276100D01*
X1146600Y0272900D01*
X1155400Y0272900D02*
X1155400Y0276100D01*
X1157600Y0276100D01*
X1164400Y0276100D02*
X1166600Y0276100D01*
X1166600Y0272900D01*
X1175400Y0272900D02*
X1175400Y0276100D01*
X1177600Y0276100D01*
X1184400Y0276100D02*
X1186600Y0276100D01*
X1186600Y0272900D01*
X1195400Y0272900D02*
X1195400Y0276100D01*
X1197600Y0276100D01*
X1204400Y0276100D02*
X1206600Y0276100D01*
X1206600Y0272900D01*
X1215400Y0272900D02*
X1215400Y0276100D01*
X1217600Y0276100D01*
X1224400Y0276100D02*
X1226600Y0276100D01*
X1226600Y0272900D01*
X1235400Y0272900D02*
X1235400Y0276100D01*
X1237600Y0276100D01*
X1244400Y0276100D02*
X1246600Y0276100D01*
X1246600Y0272900D01*
X1255400Y0272900D02*
X1255400Y0276100D01*
X1257600Y0276100D01*
X1264400Y0276100D02*
X1266600Y0276100D01*
X1266600Y0272900D01*
X0791700Y0298350D02*
X0791702Y0298443D01*
X0791708Y0298537D01*
X0791718Y0298629D01*
X0791732Y0298722D01*
X0791749Y0298813D01*
X0791771Y0298904D01*
X0791796Y0298994D01*
X0791826Y0299083D01*
X0791859Y0299170D01*
X0791895Y0299256D01*
X0791936Y0299340D01*
X0791979Y0299423D01*
X0792027Y0299503D01*
X0792077Y0299582D01*
X0792131Y0299658D01*
X0792188Y0299732D01*
X0792249Y0299803D01*
X0792312Y0299872D01*
X0792378Y0299938D01*
X0792447Y0300001D01*
X0792518Y0300062D01*
X0792592Y0300119D01*
X0792668Y0300173D01*
X0792747Y0300223D01*
X0792827Y0300271D01*
X0792910Y0300314D01*
X0792994Y0300355D01*
X0793080Y0300391D01*
X0793167Y0300424D01*
X0793256Y0300454D01*
X0793346Y0300479D01*
X0793437Y0300501D01*
X0793528Y0300518D01*
X0793621Y0300532D01*
X0793713Y0300542D01*
X0793807Y0300548D01*
X0793900Y0300550D01*
X0793993Y0300548D01*
X0794087Y0300542D01*
X0794179Y0300532D01*
X0794272Y0300518D01*
X0794363Y0300501D01*
X0794454Y0300479D01*
X0794544Y0300454D01*
X0794633Y0300424D01*
X0794720Y0300391D01*
X0794806Y0300355D01*
X0794890Y0300314D01*
X0794973Y0300271D01*
X0795053Y0300223D01*
X0795132Y0300173D01*
X0795208Y0300119D01*
X0795282Y0300062D01*
X0795353Y0300001D01*
X0795422Y0299938D01*
X0795488Y0299872D01*
X0795551Y0299803D01*
X0795612Y0299732D01*
X0795669Y0299658D01*
X0795723Y0299582D01*
X0795773Y0299503D01*
X0795821Y0299423D01*
X0795864Y0299340D01*
X0795905Y0299256D01*
X0795941Y0299170D01*
X0795974Y0299083D01*
X0796004Y0298994D01*
X0796029Y0298904D01*
X0796051Y0298813D01*
X0796068Y0298722D01*
X0796082Y0298629D01*
X0796092Y0298537D01*
X0796098Y0298443D01*
X0796100Y0298350D01*
X0796098Y0298257D01*
X0796092Y0298163D01*
X0796082Y0298071D01*
X0796068Y0297978D01*
X0796051Y0297887D01*
X0796029Y0297796D01*
X0796004Y0297706D01*
X0795974Y0297617D01*
X0795941Y0297530D01*
X0795905Y0297444D01*
X0795864Y0297360D01*
X0795821Y0297277D01*
X0795773Y0297197D01*
X0795723Y0297118D01*
X0795669Y0297042D01*
X0795612Y0296968D01*
X0795551Y0296897D01*
X0795488Y0296828D01*
X0795422Y0296762D01*
X0795353Y0296699D01*
X0795282Y0296638D01*
X0795208Y0296581D01*
X0795132Y0296527D01*
X0795053Y0296477D01*
X0794973Y0296429D01*
X0794890Y0296386D01*
X0794806Y0296345D01*
X0794720Y0296309D01*
X0794633Y0296276D01*
X0794544Y0296246D01*
X0794454Y0296221D01*
X0794363Y0296199D01*
X0794272Y0296182D01*
X0794179Y0296168D01*
X0794087Y0296158D01*
X0793993Y0296152D01*
X0793900Y0296150D01*
X0793807Y0296152D01*
X0793713Y0296158D01*
X0793621Y0296168D01*
X0793528Y0296182D01*
X0793437Y0296199D01*
X0793346Y0296221D01*
X0793256Y0296246D01*
X0793167Y0296276D01*
X0793080Y0296309D01*
X0792994Y0296345D01*
X0792910Y0296386D01*
X0792827Y0296429D01*
X0792747Y0296477D01*
X0792668Y0296527D01*
X0792592Y0296581D01*
X0792518Y0296638D01*
X0792447Y0296699D01*
X0792378Y0296762D01*
X0792312Y0296828D01*
X0792249Y0296897D01*
X0792188Y0296968D01*
X0792131Y0297042D01*
X0792077Y0297118D01*
X0792027Y0297197D01*
X0791979Y0297277D01*
X0791936Y0297360D01*
X0791895Y0297444D01*
X0791859Y0297530D01*
X0791826Y0297617D01*
X0791796Y0297706D01*
X0791771Y0297796D01*
X0791749Y0297887D01*
X0791732Y0297978D01*
X0791718Y0298071D01*
X0791708Y0298163D01*
X0791702Y0298257D01*
X0791700Y0298350D01*
X0651450Y0303900D02*
X0651452Y0303993D01*
X0651458Y0304087D01*
X0651468Y0304179D01*
X0651482Y0304272D01*
X0651499Y0304363D01*
X0651521Y0304454D01*
X0651546Y0304544D01*
X0651576Y0304633D01*
X0651609Y0304720D01*
X0651645Y0304806D01*
X0651686Y0304890D01*
X0651729Y0304973D01*
X0651777Y0305053D01*
X0651827Y0305132D01*
X0651881Y0305208D01*
X0651938Y0305282D01*
X0651999Y0305353D01*
X0652062Y0305422D01*
X0652128Y0305488D01*
X0652197Y0305551D01*
X0652268Y0305612D01*
X0652342Y0305669D01*
X0652418Y0305723D01*
X0652497Y0305773D01*
X0652577Y0305821D01*
X0652660Y0305864D01*
X0652744Y0305905D01*
X0652830Y0305941D01*
X0652917Y0305974D01*
X0653006Y0306004D01*
X0653096Y0306029D01*
X0653187Y0306051D01*
X0653278Y0306068D01*
X0653371Y0306082D01*
X0653463Y0306092D01*
X0653557Y0306098D01*
X0653650Y0306100D01*
X0653743Y0306098D01*
X0653837Y0306092D01*
X0653929Y0306082D01*
X0654022Y0306068D01*
X0654113Y0306051D01*
X0654204Y0306029D01*
X0654294Y0306004D01*
X0654383Y0305974D01*
X0654470Y0305941D01*
X0654556Y0305905D01*
X0654640Y0305864D01*
X0654723Y0305821D01*
X0654803Y0305773D01*
X0654882Y0305723D01*
X0654958Y0305669D01*
X0655032Y0305612D01*
X0655103Y0305551D01*
X0655172Y0305488D01*
X0655238Y0305422D01*
X0655301Y0305353D01*
X0655362Y0305282D01*
X0655419Y0305208D01*
X0655473Y0305132D01*
X0655523Y0305053D01*
X0655571Y0304973D01*
X0655614Y0304890D01*
X0655655Y0304806D01*
X0655691Y0304720D01*
X0655724Y0304633D01*
X0655754Y0304544D01*
X0655779Y0304454D01*
X0655801Y0304363D01*
X0655818Y0304272D01*
X0655832Y0304179D01*
X0655842Y0304087D01*
X0655848Y0303993D01*
X0655850Y0303900D01*
X0655848Y0303807D01*
X0655842Y0303713D01*
X0655832Y0303621D01*
X0655818Y0303528D01*
X0655801Y0303437D01*
X0655779Y0303346D01*
X0655754Y0303256D01*
X0655724Y0303167D01*
X0655691Y0303080D01*
X0655655Y0302994D01*
X0655614Y0302910D01*
X0655571Y0302827D01*
X0655523Y0302747D01*
X0655473Y0302668D01*
X0655419Y0302592D01*
X0655362Y0302518D01*
X0655301Y0302447D01*
X0655238Y0302378D01*
X0655172Y0302312D01*
X0655103Y0302249D01*
X0655032Y0302188D01*
X0654958Y0302131D01*
X0654882Y0302077D01*
X0654803Y0302027D01*
X0654723Y0301979D01*
X0654640Y0301936D01*
X0654556Y0301895D01*
X0654470Y0301859D01*
X0654383Y0301826D01*
X0654294Y0301796D01*
X0654204Y0301771D01*
X0654113Y0301749D01*
X0654022Y0301732D01*
X0653929Y0301718D01*
X0653837Y0301708D01*
X0653743Y0301702D01*
X0653650Y0301700D01*
X0653557Y0301702D01*
X0653463Y0301708D01*
X0653371Y0301718D01*
X0653278Y0301732D01*
X0653187Y0301749D01*
X0653096Y0301771D01*
X0653006Y0301796D01*
X0652917Y0301826D01*
X0652830Y0301859D01*
X0652744Y0301895D01*
X0652660Y0301936D01*
X0652577Y0301979D01*
X0652497Y0302027D01*
X0652418Y0302077D01*
X0652342Y0302131D01*
X0652268Y0302188D01*
X0652197Y0302249D01*
X0652128Y0302312D01*
X0652062Y0302378D01*
X0651999Y0302447D01*
X0651938Y0302518D01*
X0651881Y0302592D01*
X0651827Y0302668D01*
X0651777Y0302747D01*
X0651729Y0302827D01*
X0651686Y0302910D01*
X0651645Y0302994D01*
X0651609Y0303080D01*
X0651576Y0303167D01*
X0651546Y0303256D01*
X0651521Y0303346D01*
X0651499Y0303437D01*
X0651482Y0303528D01*
X0651468Y0303621D01*
X0651458Y0303713D01*
X0651452Y0303807D01*
X0651450Y0303900D01*
X0617950Y0309400D02*
X0617952Y0309493D01*
X0617958Y0309587D01*
X0617968Y0309679D01*
X0617982Y0309772D01*
X0617999Y0309863D01*
X0618021Y0309954D01*
X0618046Y0310044D01*
X0618076Y0310133D01*
X0618109Y0310220D01*
X0618145Y0310306D01*
X0618186Y0310390D01*
X0618229Y0310473D01*
X0618277Y0310553D01*
X0618327Y0310632D01*
X0618381Y0310708D01*
X0618438Y0310782D01*
X0618499Y0310853D01*
X0618562Y0310922D01*
X0618628Y0310988D01*
X0618697Y0311051D01*
X0618768Y0311112D01*
X0618842Y0311169D01*
X0618918Y0311223D01*
X0618997Y0311273D01*
X0619077Y0311321D01*
X0619160Y0311364D01*
X0619244Y0311405D01*
X0619330Y0311441D01*
X0619417Y0311474D01*
X0619506Y0311504D01*
X0619596Y0311529D01*
X0619687Y0311551D01*
X0619778Y0311568D01*
X0619871Y0311582D01*
X0619963Y0311592D01*
X0620057Y0311598D01*
X0620150Y0311600D01*
X0620243Y0311598D01*
X0620337Y0311592D01*
X0620429Y0311582D01*
X0620522Y0311568D01*
X0620613Y0311551D01*
X0620704Y0311529D01*
X0620794Y0311504D01*
X0620883Y0311474D01*
X0620970Y0311441D01*
X0621056Y0311405D01*
X0621140Y0311364D01*
X0621223Y0311321D01*
X0621303Y0311273D01*
X0621382Y0311223D01*
X0621458Y0311169D01*
X0621532Y0311112D01*
X0621603Y0311051D01*
X0621672Y0310988D01*
X0621738Y0310922D01*
X0621801Y0310853D01*
X0621862Y0310782D01*
X0621919Y0310708D01*
X0621973Y0310632D01*
X0622023Y0310553D01*
X0622071Y0310473D01*
X0622114Y0310390D01*
X0622155Y0310306D01*
X0622191Y0310220D01*
X0622224Y0310133D01*
X0622254Y0310044D01*
X0622279Y0309954D01*
X0622301Y0309863D01*
X0622318Y0309772D01*
X0622332Y0309679D01*
X0622342Y0309587D01*
X0622348Y0309493D01*
X0622350Y0309400D01*
X0622348Y0309307D01*
X0622342Y0309213D01*
X0622332Y0309121D01*
X0622318Y0309028D01*
X0622301Y0308937D01*
X0622279Y0308846D01*
X0622254Y0308756D01*
X0622224Y0308667D01*
X0622191Y0308580D01*
X0622155Y0308494D01*
X0622114Y0308410D01*
X0622071Y0308327D01*
X0622023Y0308247D01*
X0621973Y0308168D01*
X0621919Y0308092D01*
X0621862Y0308018D01*
X0621801Y0307947D01*
X0621738Y0307878D01*
X0621672Y0307812D01*
X0621603Y0307749D01*
X0621532Y0307688D01*
X0621458Y0307631D01*
X0621382Y0307577D01*
X0621303Y0307527D01*
X0621223Y0307479D01*
X0621140Y0307436D01*
X0621056Y0307395D01*
X0620970Y0307359D01*
X0620883Y0307326D01*
X0620794Y0307296D01*
X0620704Y0307271D01*
X0620613Y0307249D01*
X0620522Y0307232D01*
X0620429Y0307218D01*
X0620337Y0307208D01*
X0620243Y0307202D01*
X0620150Y0307200D01*
X0620057Y0307202D01*
X0619963Y0307208D01*
X0619871Y0307218D01*
X0619778Y0307232D01*
X0619687Y0307249D01*
X0619596Y0307271D01*
X0619506Y0307296D01*
X0619417Y0307326D01*
X0619330Y0307359D01*
X0619244Y0307395D01*
X0619160Y0307436D01*
X0619077Y0307479D01*
X0618997Y0307527D01*
X0618918Y0307577D01*
X0618842Y0307631D01*
X0618768Y0307688D01*
X0618697Y0307749D01*
X0618628Y0307812D01*
X0618562Y0307878D01*
X0618499Y0307947D01*
X0618438Y0308018D01*
X0618381Y0308092D01*
X0618327Y0308168D01*
X0618277Y0308247D01*
X0618229Y0308327D01*
X0618186Y0308410D01*
X0618145Y0308494D01*
X0618109Y0308580D01*
X0618076Y0308667D01*
X0618046Y0308756D01*
X0618021Y0308846D01*
X0617999Y0308937D01*
X0617982Y0309028D01*
X0617968Y0309121D01*
X0617958Y0309213D01*
X0617952Y0309307D01*
X0617950Y0309400D01*
X0997900Y0083600D02*
X1001100Y0083600D01*
X1001100Y0081400D01*
X1001100Y0074600D02*
X1001100Y0072400D01*
X0997900Y0072400D01*
X0997900Y0064600D02*
X1001100Y0064600D01*
X1001100Y0062400D01*
X1001100Y0055600D02*
X1001100Y0053400D01*
X0997900Y0053400D01*
X0997900Y0045600D02*
X1001100Y0045600D01*
X1001100Y0043400D01*
X1001100Y0036600D02*
X1001100Y0034400D01*
X0997900Y0034400D01*
X1024400Y0034400D02*
X1027600Y0034400D01*
X1027600Y0036600D01*
X1027600Y0043400D02*
X1027600Y0045600D01*
X1024400Y0045600D01*
X1024400Y0053400D02*
X1027600Y0053400D01*
X1027600Y0055600D01*
X1027600Y0062400D02*
X1027600Y0064600D01*
X1024400Y0064600D01*
X1024400Y0072400D02*
X1027600Y0072400D01*
X1027600Y0074600D01*
X1027600Y0081400D02*
X1027600Y0083600D01*
X1024400Y0083600D01*
X1050900Y0083600D02*
X1054100Y0083600D01*
X1054100Y0081400D01*
X1054100Y0074600D02*
X1054100Y0072400D01*
X1050900Y0072400D01*
X1089950Y0069900D02*
X1089952Y0069993D01*
X1089958Y0070087D01*
X1089968Y0070179D01*
X1089982Y0070272D01*
X1089999Y0070363D01*
X1090021Y0070454D01*
X1090046Y0070544D01*
X1090076Y0070633D01*
X1090109Y0070720D01*
X1090145Y0070806D01*
X1090186Y0070890D01*
X1090229Y0070973D01*
X1090277Y0071053D01*
X1090327Y0071132D01*
X1090381Y0071208D01*
X1090438Y0071282D01*
X1090499Y0071353D01*
X1090562Y0071422D01*
X1090628Y0071488D01*
X1090697Y0071551D01*
X1090768Y0071612D01*
X1090842Y0071669D01*
X1090918Y0071723D01*
X1090997Y0071773D01*
X1091077Y0071821D01*
X1091160Y0071864D01*
X1091244Y0071905D01*
X1091330Y0071941D01*
X1091417Y0071974D01*
X1091506Y0072004D01*
X1091596Y0072029D01*
X1091687Y0072051D01*
X1091778Y0072068D01*
X1091871Y0072082D01*
X1091963Y0072092D01*
X1092057Y0072098D01*
X1092150Y0072100D01*
X1092243Y0072098D01*
X1092337Y0072092D01*
X1092429Y0072082D01*
X1092522Y0072068D01*
X1092613Y0072051D01*
X1092704Y0072029D01*
X1092794Y0072004D01*
X1092883Y0071974D01*
X1092970Y0071941D01*
X1093056Y0071905D01*
X1093140Y0071864D01*
X1093223Y0071821D01*
X1093303Y0071773D01*
X1093382Y0071723D01*
X1093458Y0071669D01*
X1093532Y0071612D01*
X1093603Y0071551D01*
X1093672Y0071488D01*
X1093738Y0071422D01*
X1093801Y0071353D01*
X1093862Y0071282D01*
X1093919Y0071208D01*
X1093973Y0071132D01*
X1094023Y0071053D01*
X1094071Y0070973D01*
X1094114Y0070890D01*
X1094155Y0070806D01*
X1094191Y0070720D01*
X1094224Y0070633D01*
X1094254Y0070544D01*
X1094279Y0070454D01*
X1094301Y0070363D01*
X1094318Y0070272D01*
X1094332Y0070179D01*
X1094342Y0070087D01*
X1094348Y0069993D01*
X1094350Y0069900D01*
X1094348Y0069807D01*
X1094342Y0069713D01*
X1094332Y0069621D01*
X1094318Y0069528D01*
X1094301Y0069437D01*
X1094279Y0069346D01*
X1094254Y0069256D01*
X1094224Y0069167D01*
X1094191Y0069080D01*
X1094155Y0068994D01*
X1094114Y0068910D01*
X1094071Y0068827D01*
X1094023Y0068747D01*
X1093973Y0068668D01*
X1093919Y0068592D01*
X1093862Y0068518D01*
X1093801Y0068447D01*
X1093738Y0068378D01*
X1093672Y0068312D01*
X1093603Y0068249D01*
X1093532Y0068188D01*
X1093458Y0068131D01*
X1093382Y0068077D01*
X1093303Y0068027D01*
X1093223Y0067979D01*
X1093140Y0067936D01*
X1093056Y0067895D01*
X1092970Y0067859D01*
X1092883Y0067826D01*
X1092794Y0067796D01*
X1092704Y0067771D01*
X1092613Y0067749D01*
X1092522Y0067732D01*
X1092429Y0067718D01*
X1092337Y0067708D01*
X1092243Y0067702D01*
X1092150Y0067700D01*
X1092057Y0067702D01*
X1091963Y0067708D01*
X1091871Y0067718D01*
X1091778Y0067732D01*
X1091687Y0067749D01*
X1091596Y0067771D01*
X1091506Y0067796D01*
X1091417Y0067826D01*
X1091330Y0067859D01*
X1091244Y0067895D01*
X1091160Y0067936D01*
X1091077Y0067979D01*
X1090997Y0068027D01*
X1090918Y0068077D01*
X1090842Y0068131D01*
X1090768Y0068188D01*
X1090697Y0068249D01*
X1090628Y0068312D01*
X1090562Y0068378D01*
X1090499Y0068447D01*
X1090438Y0068518D01*
X1090381Y0068592D01*
X1090327Y0068668D01*
X1090277Y0068747D01*
X1090229Y0068827D01*
X1090186Y0068910D01*
X1090145Y0068994D01*
X1090109Y0069080D01*
X1090076Y0069167D01*
X1090046Y0069256D01*
X1090021Y0069346D01*
X1089999Y0069437D01*
X1089982Y0069528D01*
X1089968Y0069621D01*
X1089958Y0069713D01*
X1089952Y0069807D01*
X1089950Y0069900D01*
D14*
X0869300Y0285700D03*
X0869300Y0310700D03*
M02*
