%
M48
M72
T01C0.01575
T02C0.02756
T03C0.03600
T04C0.04000
T05C0.05118
T06C0.05900
T07C0.05906
T08C0.08500
T09C0.08661
T10C0.09000
T11C0.12598
%
T01
X429500Y264000
X488000Y226500
X532500Y230000
X579000Y243500
X747500Y196000
X706500Y226000
X652000Y99500
X596000Y111500
X903000Y304500
X913000Y299000
X940500Y293500
X931500Y276000
X1024000Y228500
X1094500Y147000
X1094500Y166000
X1092000Y220000
X1184000Y225000
X1231500Y178500
X1184500Y45500
X1184000Y64000
X1147500Y41500
X710000Y114000
X652500Y232500
X493000Y276500
X373000Y295500
X459500Y192500
X246500Y137000
X296500Y128000
X65000Y48000
X1018000Y133500
X726500Y35000
X970000Y244500
X872500Y249000
X652000Y112500
X668500Y118000
X716000Y191000
X742000Y226000
X989000Y232000
X1065500Y233000
X281500Y268500
X621000Y261000
X663000Y274000
X1231000Y197000
X1107500Y144000
X1126500Y165000
X1192000Y35500
X1073000Y88500
X1042000Y31000
X1096000Y19000
X386500Y243500
X558000Y261000
X505500Y276500
X307500Y320500
X405000Y181000
X418000Y297500
X1062000Y33000
X533000Y123500
X563500Y110000
X358000Y228000
X272000Y230000
X449500Y279500
X379500Y318500
X552500Y281000
X820000Y294000
X778000Y294500
X806000Y284500
X592500Y275000
X493000Y145500
X440500Y144500
X692500Y277000
X333000Y165000
X604500Y270500
X961000Y288500
X597000Y294500
X380000Y146000
X420500Y170500
X335000Y143000
X324000Y163000
X348000Y119500
X418000Y123000
X420000Y109500
X478000Y146500
X553500Y252000
X505500Y104500
X490500Y105000
X487000Y123000
X173500Y279000
X400000Y212000
X910500Y39000
X847000Y35500
X966000Y38500
X957000Y113500
X801500Y127000
X737000Y159500
X173000Y46000
X180500Y57500
X276000Y57500
X1116000Y228000
X1070500Y182000
X1043500Y181500
X1233000Y292000
X559000Y324000
X186500Y147000
X182500Y222000
X40000Y312000
X1259000Y67500
X592000Y26500
X560500Y11000
X565000Y197500
X527000Y209000
X418500Y192000
X406000Y198000
X211500Y301000
X401000Y160000
X406500Y145500
X552000Y223000
X313500Y261000
X581000Y185000
X325500Y103500
X348000Y101500
X340000Y165000
X360500Y180000
X439500Y123500
X412500Y105500
X410500Y90000
X412500Y77000
X410500Y69000
X335000Y160500
X328500Y154000
X504500Y86000
X479500Y181000
X442500Y191500
X435500Y170500
X435500Y182500
X428000Y190500
X430500Y111500
X443500Y170500
X443500Y182500
X289500Y185000
X435500Y192500
X357500Y111000
X348000Y113500
X390500Y180000
X286500Y154500
X315000Y161500
X450000Y168500
X383000Y180000
X461000Y171500
X484500Y164500
X380500Y165500
X394500Y164000
X474500Y162500
X414500Y163500
X375500Y180000
X369500Y178000
X347000Y165000
X348000Y109500
X325500Y111000
X445500Y123500
X428000Y128000
X398500Y125000
X342000Y160000
X336000Y154000
X414500Y52000
X416000Y68000
X426500Y68500
X417000Y90000
X429500Y123000
X423000Y95500
X483500Y26000
X476000Y135000
X449500Y137500
X508000Y95500
X466500Y99500
X442500Y99500
X434500Y60000
X442500Y72500
X428000Y89000
X454000Y128500
X470500Y73500
X478500Y127000
X496500Y75500
X509000Y75500
X442000Y39500
X438000Y31500
X356500Y128000
X373000Y125500
X363000Y136000
X394500Y132500
X387500Y123000
X510000Y58500
X497000Y60000
X333000Y131000
X438500Y57000
X445000Y65500
X432500Y68500
X412500Y98000
X469500Y41000
X402000Y29000
X387500Y29000
X390000Y38000
X362000Y103500
X383000Y127000
X485500Y41000
X485500Y33000
X492000Y28000
X465500Y23500
X358000Y25500
X347500Y27000
X346000Y140500
X394500Y142000
X411000Y126000
X403500Y126000
X434000Y40500
X421500Y35000
X462000Y39500
X411500Y25500
X395000Y25000
X411500Y134000
X478000Y40000
X473000Y24000
X472500Y99500
X470500Y89500
X466500Y138500
X466500Y125000
X462500Y89500
X460500Y99500
X479500Y99500
X454500Y99500
X448500Y99500
X485500Y87000
X451500Y76000
X434500Y99500
X465500Y68000
X435000Y88500
X462500Y84000
X397500Y104500
X457500Y66000
X384500Y101500
X377500Y104500
X384500Y92500
X465500Y61500
X369000Y99000
X371500Y137500
X367500Y146000
X743000Y286000
X782500Y250500
X910000Y202500
X939500Y144000
X939500Y66500
X713000Y303500
X738500Y281500
X776500Y250500
X851000Y202500
X891500Y144000
X891500Y66500
X726000Y301000
X730500Y296000
X734000Y277000
X770500Y250500
X792000Y202500
X821500Y144000
X833000Y66500
X726000Y291500
X729500Y272500
X764500Y250500
X685000Y203000
X762500Y144000
X773000Y66500
X721500Y287000
X725000Y268000
X626000Y203000
X703500Y144000
X714500Y66500
X750000Y259000
X717000Y282500
X720500Y263500
X752500Y250500
X655500Y66500
X644500Y144000
X367000Y67500
X348000Y95500
X329000Y97500
X510500Y21500
X594000Y204500
X594000Y216500
X555500Y50000
X712500Y278000
X716000Y259000
X746500Y250500
X596500Y66500
X308000Y66500
X529500Y85500
X556000Y80000
X597000Y144000
X587500Y216000
X587500Y199500
X708000Y273500
X711000Y254000
X740500Y250500
X237500Y66000
X540000Y149500
X556500Y176000
X455500Y82000
X446500Y80000
X655500Y317000
X824000Y315500
X472000Y309500
X515000Y251500
X254500Y235500
X237000Y189000
X457000Y242000
X460000Y237000
X470000Y317500
X515500Y257000
X533500Y184500
X564500Y228500
X525500Y185500
X557000Y225000
X525500Y160000
X460000Y307000
X686500Y311500
X739500Y307000
X508500Y246000
X844500Y310000
X465500Y309500
X681500Y316000
X733000Y317000
X838500Y277500
X513500Y246000
X456000Y302500
X481500Y248000
X693000Y307500
X733500Y307000
X865000Y293000
X249000Y66500
X296500Y66500
X371000Y39500
X326000Y39500
X922000Y203000
X885000Y259500
X862000Y203000
X887000Y204000
X904500Y241500
X803000Y203000
X884500Y189500
X674000Y202500
X732000Y213500
X789000Y232000
X614500Y202500
X682500Y178000
X356000Y66500
X348000Y89500
X561500Y182500
X655000Y179500
X870500Y310500
X870500Y303000
X951000Y144000
X891500Y259500
X833500Y144000
X880000Y144000
X892000Y177500
X951000Y177500
X774000Y144000
X797500Y152000
X797500Y163000
X714500Y144000
X727000Y174500
X747000Y174500
X655500Y144000
X675000Y159500
X686500Y165000
X585000Y144000
X608000Y165000
X619000Y154000
X584500Y66500
X644000Y66500
X703500Y66500
X762500Y66500
X821500Y66000
X880500Y66500
X951500Y66000
X898000Y284500
X971000Y209500
X971500Y116000
X397500Y235000
X432500Y212500
X423500Y220000
X410500Y235000
X404000Y235000
X429000Y216000
X476000Y228000
X222000Y252500
X1072500Y66000
X536500Y162500
X536500Y170000
X496500Y175500
X490500Y184000
X490500Y192500
X465000Y222000
X467000Y209000
X495000Y207500
X1065500Y66000
X529500Y66500
X523000Y85500
X474000Y185000
X483500Y192000
X526500Y130000
X458500Y222000
X461000Y207000
X488500Y204500
X1128500Y36500
X540000Y157000
X547500Y166500
X544000Y194500
X472000Y222000
X473500Y210500
X497500Y212500
X391500Y230000
X1037500Y68000
X1120000Y61500
X1028500Y267500
X1060000Y241000
X1035000Y82500
X1057500Y255500
X1079000Y27500
X1038000Y59000
X1115500Y56500
X1071500Y282500
X1218500Y287000
X1037500Y51500
X1114500Y50500
X1247000Y279000
X1081000Y284500
X1068000Y263000
X1078500Y263000
X1122000Y52500
X1133000Y57000
X981500Y264500
X1101000Y284500
X1157000Y58000
X1261000Y285000
X1107500Y300500
X1211500Y32500
X1116000Y279000
X1054000Y169000
X1050000Y114500
X1050000Y104500
X1051000Y254500
X1055831Y236169
X1004500Y72500
X1065000Y56500
X1193000Y63500
X1136000Y283000
X988000Y59000
X1065000Y51500
X1207500Y66500
X1105000Y198500
X987000Y40000
X1065000Y46500
X1222000Y66500
X1181500Y262000
X1219000Y252500
X1216000Y239000
X796000Y268500
X734500Y250500
X581500Y214000
X572500Y209000
X585500Y222500
X601000Y238000
X790500Y264500
X1128000Y114500
X1152000Y153000
X1272500Y267000
X802500Y255500
X847000Y255500
X678000Y173000
X681500Y144000
X617000Y164000
X566000Y175500
X566000Y154500
X831500Y233000
X819500Y245000
X883500Y179000
X767000Y177000
X856000Y164500
X276500Y80500
X551500Y72000
X276500Y146500
X276500Y136000
X345500Y170000
X361000Y171500
X601000Y99500
X556500Y169500
X543000Y171000
X762500Y277500
X230000Y157500
X246500Y163500
X349500Y173500
X364000Y176500
X800000Y83000
X680500Y81500
X550000Y203500
X752264Y286264
X908500Y89500
X750500Y310500
X751000Y303500
X750000Y318500
X463000Y232000
X1033000Y275000
X1025000Y279000
X1014500Y276500
X978500Y324500
X967500Y321000
X1010000Y268000
X1022000Y268000
X1050000Y268000
X1064000Y254000
X1076000Y249500
X1071500Y270000
X1067000Y246000
X1101500Y252500
X1091000Y263000
X1109500Y264000
X1131000Y264000
X1248000Y252500
X1085000Y263000
X1113500Y249000
X1127000Y249000
X1248000Y247000
X1101000Y263000
X1197000Y258000
X1161000Y263500
X1110000Y154000
X1127500Y154000
X1141500Y156500
X1166000Y239500
X1177500Y251000
X1186500Y276500
X1207500Y239500
X1229500Y253500
X1229500Y264500
X1025000Y273500
X1052000Y273500
X1145500Y294500
X1145500Y284500
X424000Y147000
X490500Y165500
X324000Y157500
T02
X493000Y266500
X493000Y286500
T03
X320921Y290200
X311079Y290200
X311079Y298000
X320921Y298000
T04
X1249000Y104000
X1259000Y104000
X1269000Y104000
X1009000Y184000
X1019000Y184000
X1029000Y184000
X1089000Y184000
X1099000Y184000
X1109000Y184000
X1169000Y184000
X1179000Y184000
X1189000Y184000
X1249000Y184000
X1259000Y184000
X1269000Y184000
X1009000Y104000
X1019000Y104000
X1029000Y104000
X1089000Y104000
X1099000Y104000
X1109000Y104000
X1169000Y104000
X1179000Y104000
X1189000Y104000
X532000Y261500
X542000Y261500
X532000Y271500
X542000Y271500
X532000Y281500
X542000Y281500
X516665Y140504
X506665Y140504
X516665Y150504
X506665Y150504
X516665Y160504
X506665Y160504
X516665Y170504
X506665Y170504
X516665Y180504
X506665Y180504
X516665Y190504
X506665Y190504
X516665Y200504
X506665Y200504
X516665Y210504
X506665Y210504
X181600Y322900
X199400Y322900
X268500Y188500
X258500Y188500
X268500Y178500
X258500Y178500
X268500Y168500
X258500Y168500
X268500Y158500
X258500Y158500
X268500Y148500
X258500Y148500
X196500Y191000
X206500Y191000
X216500Y191000
T05
X32000Y117000
X31500Y149500
X53000Y160500
X75000Y150000
X76500Y120000
X32000Y197000
X31500Y229500
X53000Y240500
X75000Y230000
X76500Y200000
X225815Y331311
X225815Y321469
X265185Y321469
X265185Y331311
X245500Y301783
T06
X176700Y313100
X204300Y313100
T07
X225815Y301783
X265185Y301783
X245500Y319500
T08
X1235000Y133000
X1283000Y133000
X995000Y213000
X1043000Y213000
X1075000Y213000
X1123000Y213000
X1155000Y213000
X1203000Y213000
X1235000Y213000
X1283000Y213000
X995000Y133000
X1043000Y133000
X1075000Y133000
X1123000Y133000
X1155000Y133000
X1203000Y133000
T09
X28000Y133000
X79000Y133000
X28000Y213000
X79000Y213000
T10
X339700Y308700
X292300Y308700
T11
X510877Y229551
X137048Y117346
X510877Y117346
X137002Y229471
X15000Y321500
X535500Y15500
X535500Y321500
X1287500Y321500
X1287500Y15500
X15000Y15500
M30
